<svg width="36" height="36" viewBox="0 0 36 36" fill="none" xmlns="http://www.w3.org/2000/svg">
<g clip-path="url(#clip0_1382_1027)">
<path d="M11.3063 6.78516C12.2906 7.98047 13.486 8.95782 14.7867 9.75235C16.6078 10.8633 18.5625 11.5734 20.25 11.9742V9.75938C18.6891 7.62891 17.5781 5.02735 17.4797 1.96875C17.4516 1.17422 16.9524 0.457034 16.186 0.253128C15.6516 0.112503 15.075 0.239065 14.7094 0.66094C13.7742 1.74375 12.4102 3.79688 11.3063 6.79219V6.78516ZM22.5 10.125V12.2766V12.368V14.625C18.225 14.2664 9.49221 11.5453 7.08049 3.57188C6.84846 2.8125 6.18049 2.25 5.38596 2.25C4.83049 2.25 4.31017 2.52422 4.06408 3.02344C3.29064 4.6336 2.25002 7.88203 2.25002 12.375C2.25002 20.5945 7.88205 25.0664 10.575 26.6344L0.829706 29.2922C0.471113 29.3906 0.182831 29.6578 0.0633002 30.0094C-0.0562311 30.3609 0.00705017 30.7547 0.225019 31.05C1.5258 32.7797 5.43517 36 11.25 36C11.5031 36 11.7563 35.9156 11.9531 35.7539L17.2688 31.5H22.5C28.7156 31.5 33.75 26.4656 33.75 20.25V9L35.8524 5.84297C35.9438 5.70235 36 5.5336 36 5.36485C36 4.88672 35.6133 4.5 35.1352 4.5H28.125C25.0172 4.5 22.5 7.01719 22.5 10.125ZM28.125 9C28.4234 9 28.7095 9.11853 28.9205 9.32951C29.1315 9.54049 29.25 9.82663 29.25 10.125C29.25 10.4234 29.1315 10.7095 28.9205 10.9205C28.7095 11.1315 28.4234 11.25 28.125 11.25C27.8266 11.25 27.5405 11.1315 27.3295 10.9205C27.1185 10.7095 27 10.4234 27 10.125C27 9.82663 27.1185 9.54049 27.3295 9.32951C27.5405 9.11853 27.8266 9 28.125 9Z" fill="white"/>
</g>
<defs>
<clipPath id="clip0_1382_1027">
<rect width="36" height="36" fill="white"/>
</clipPath>
</defs>
</svg>
