<svg width="36" height="36" viewBox="0 0 36 36" fill="none" xmlns="http://www.w3.org/2000/svg">
<g clip-path="url(#clip0_1382_1028)">
<path d="M10.0817 8.76141L12.1833 4.13661C12.5293 3.37525 12.1896 2.48175 11.4345 2.13567C10.6794 1.7896 9.77962 2.12938 9.43355 2.88445L7.78498 6.51508L6.14271 2.89074C5.79663 2.12938 4.89684 1.79589 4.14177 2.13567C3.3867 2.47546 3.04692 3.38154 3.3867 4.13661L5.48831 8.76141C4.8465 9.20816 4.34312 9.83109 4.04739 10.561H2.97771L2.71972 9.2585C2.55613 8.44051 1.7633 7.91196 0.945311 8.07555C0.127319 8.23915 -0.401229 9.03198 -0.237631 9.84997L0.265749 12.3669C0.404178 13.0716 1.02711 13.5813 1.74443 13.5813H3.75795V15.0474L1.37948 15.6451C0.781713 15.7961 0.334964 16.2869 0.253164 16.8973L-0.250215 20.4209C-0.369768 21.2452 0.202826 22.0129 1.0334 22.1324C1.86398 22.252 2.62534 21.6794 2.74489 20.8488L3.10355 18.3319L4.26133 18.0425C4.9346 19.282 6.26226 20.1252 7.78498 20.1252C9.30771 20.1252 10.6354 19.282 11.3149 18.0362L12.4727 18.3256L12.8314 20.8425C12.9509 21.6668 13.7123 22.2394 14.5429 22.1261C15.3734 22.0129 15.9397 21.2452 15.8265 20.4146L15.3231 16.891C15.235 16.2806 14.7883 15.7898 14.1968 15.6388L11.812 15.0474V13.5813H13.8255C14.5429 13.5813 15.1658 13.0716 15.3042 12.3669L15.8076 9.84997C15.9712 9.03198 15.4426 8.23915 14.6247 8.07555C13.8067 7.91196 13.0138 8.44051 12.8502 9.2585L12.586 10.561H11.5163C11.2205 9.83109 10.7172 9.20816 10.0754 8.76141H10.0817ZM30.9404 20.0308L35.0682 17.0735C35.7477 16.589 35.905 15.6451 35.4205 14.9656C34.936 14.286 33.9922 14.1287 33.3126 14.6132L30.0784 16.9287L30.4622 12.9709C30.544 12.1403 29.9337 11.4042 29.1031 11.3224C28.2725 11.2406 27.5363 11.8509 27.4545 12.6815L26.9637 17.7342C26.1898 17.7971 25.441 18.0865 24.8181 18.571L23.8931 18.0362L24.321 16.7777C24.5853 15.9849 24.1637 15.1292 23.3772 14.8649C22.5906 14.6006 21.7286 15.0222 21.4643 15.8087L20.64 18.2375C20.4072 18.9171 20.6904 19.6722 21.3133 20.0308L23.0563 21.0376L22.3201 22.3086L19.9605 21.6353C19.369 21.4655 18.7335 21.6731 18.356 22.1576L16.16 24.9577C15.644 25.612 15.7573 26.5622 16.4179 27.0781C17.0786 27.5941 18.0225 27.4808 18.5384 26.8202L20.1115 24.8192L21.2567 25.1464C21.2252 26.5685 21.9488 27.9591 23.2702 28.7204C24.5916 29.4818 26.1583 29.4126 27.3727 28.6764L28.2285 29.5069L27.2784 31.8665C26.97 32.6405 27.3413 33.5214 28.1152 33.8297C28.8892 34.138 29.7701 33.7668 30.0784 32.9928L31.4124 29.6894C31.6389 29.1168 31.5005 28.4687 31.06 28.0409L29.2982 26.3357L30.0281 25.0709L31.771 26.0777C32.394 26.4363 33.1868 26.3105 33.6587 25.7694L35.3576 23.8376C35.905 23.2084 35.8484 22.2583 35.2192 21.7046C34.59 21.1508 33.6398 21.2138 33.0861 21.843L32.2115 22.8435L31.2865 22.3086C31.3935 21.5284 31.2739 20.7356 30.9404 20.0308Z" fill="white"/>
</g>
<defs>
<clipPath id="clip0_1382_1028">
<rect width="36" height="36" fill="white"/>
</clipPath>
</defs>
</svg>
