<svg width="36" height="36" viewBox="0 0 36 36" fill="none" xmlns="http://www.w3.org/2000/svg">
<g clip-path="url(#clip0_1382_1025)">
<path d="M18.5 36C11.0469 36 5 29.9531 5 22.5C5 16.0875 14.1547 4.05703 16.7141 0.822656C17.1359 0.295312 17.7617 0 18.4367 0H18.5633C19.2383 0 19.8641 0.295312 20.2859 0.822656C22.8453 4.05703 32 16.0875 32 22.5C32 29.9531 25.9531 36 18.5 36ZM11.75 23.625C11.75 23.0063 11.2438 22.5 10.625 22.5C10.0062 22.5 9.5 23.0063 9.5 23.625C9.5 27.9773 13.0227 31.5 17.375 31.5C17.9937 31.5 18.5 30.9937 18.5 30.375C18.5 29.7563 17.9937 29.25 17.375 29.25C14.2672 29.25 11.75 26.7328 11.75 23.625Z" fill="white"/>
</g>
<defs>
<clipPath id="clip0_1382_1025">
<rect width="36" height="36" fill="white"/>
</clipPath>
</defs>
</svg>
