<svg width="36" height="36" viewBox="0 0 36 36" fill="none" xmlns="http://www.w3.org/2000/svg">
<g clip-path="url(#clip0_1382_1026)">
<path d="M19.2857 0.268399C28.1089 0.268399 35.2653 7.42478 35.2653 16.248C35.2653 17.1641 34.5283 17.9011 33.6122 17.9011C32.6962 17.9011 31.9592 17.1641 31.9592 16.248C31.9592 9.25003 26.2837 3.57452 19.2857 3.57452C18.3696 3.57452 17.6327 2.83753 17.6327 1.92146C17.6327 1.00539 18.3696 0.268399 19.2857 0.268399ZM19.8367 13.4929C20.4213 13.4929 20.9819 13.7251 21.3953 14.1384C21.8086 14.5518 22.0408 15.1124 22.0408 15.697C22.0408 16.2815 21.8086 16.8421 21.3953 17.2555C20.9819 17.6688 20.4213 17.9011 19.8367 17.9011C19.2522 17.9011 18.6916 17.6688 18.2782 17.2555C17.8649 16.8421 17.6327 16.2815 17.6327 15.697C17.6327 15.1124 17.8649 14.5518 18.2782 14.1384C18.6916 13.7251 19.2522 13.4929 19.8367 13.4929ZM17.6327 8.5337C17.6327 7.61763 18.3696 6.88064 19.2857 6.88064C24.4584 6.88064 28.6531 11.0753 28.6531 16.248C28.6531 17.1641 27.9161 17.9011 27 17.9011C26.0839 17.9011 25.3469 17.1641 25.3469 16.248C25.3469 12.9005 22.6332 10.1868 19.2857 10.1868C18.3696 10.1868 17.6327 9.44978 17.6327 8.5337ZM8.09311 0.364827C9.42934 -0.000223726 10.8275 0.681664 11.3579 1.96279L14.113 8.57503C14.5814 9.69773 14.2577 10.9995 13.314 11.7641L9.91837 14.5467C12.212 19.3957 16.138 23.3217 20.987 25.6153L23.7628 22.2197C24.5342 21.2761 25.8291 20.9523 26.9518 21.4207L33.564 24.1758C34.8451 24.7062 35.527 26.1044 35.162 27.4406L33.5089 33.5018C33.1852 34.7003 32.0969 35.5337 30.8571 35.5337C13.8168 35.5337 0 21.7169 0 4.67656C0 3.43677 0.833418 2.3485 2.03189 2.01789L8.09311 0.364827Z" fill="white"/>
</g>
<defs>
<clipPath id="clip0_1382_1026">
<rect width="36" height="36" fill="white"/>
</clipPath>
</defs>
</svg>
