<svg width="36" height="36" viewBox="0 0 36 36" fill="none" xmlns="http://www.w3.org/2000/svg">
<g clip-path="url(#clip0_1382_1029)">
<path d="M15.75 5.00563C15.0019 5.00563 14.4 5.6075 14.4 6.35563C14.4 7.10375 15.0019 7.70563 15.75 7.70563H18.9956L19.9181 9.41L14.4 14.0056L11.8519 11.4575C11.1769 10.7825 10.26 10.4056 9.30375 10.4056H3.6C2.60437 10.4056 1.8 11.21 1.8 12.2056V14.0056H7.2C12.1725 14.0056 16.2 18.0331 16.2 23.0056C16.2 23.6244 16.1381 24.2263 16.02 24.8056H19.98C19.8619 24.2263 19.8 23.6244 19.8 23.0056C19.8 20.0694 21.2062 17.4594 23.3831 15.8169L24.2494 17.4256C22.635 18.7475 21.6 20.7556 21.6 23.0056C21.6 26.9825 24.8231 30.2056 28.8 30.2056C32.7769 30.2056 36 26.9825 36 23.0056C36 19.0288 32.7769 15.8056 28.8 15.8056C28.0406 15.8056 27.3094 15.9238 26.6231 16.1431L23.5238 10.4056H27C27.9956 10.4056 28.8 9.60125 28.8 8.60563V6.80563C28.8 5.81 27.9956 5.00563 27 5.00563H25.8525C25.4306 5.00563 25.0256 5.15188 24.6994 5.42188L22.0331 7.64375L21.2456 6.18125C20.8519 5.45563 20.0925 5 19.2656 5H15.75V5.00563ZM26.0269 20.7106L27.6131 23.6469C27.9675 24.305 28.7887 24.5469 29.4412 24.1925C30.0938 23.8381 30.3412 23.0169 29.9869 22.3644L28.4006 19.4281C28.53 19.4113 28.665 19.4056 28.8 19.4056C30.7856 19.4056 32.4 21.02 32.4 23.0056C32.4 24.9913 30.7856 26.6056 28.8 26.6056C26.8144 26.6056 25.2 24.9913 25.2 23.0056C25.2 22.1338 25.5094 21.335 26.0269 20.7106ZM10.5356 24.3556C10.0013 25.6775 8.7075 26.6056 7.2 26.6056C5.21438 26.6056 3.6 24.9913 3.6 23.0056C3.6 21.02 5.21438 19.4056 7.2 19.4056C8.71312 19.4056 10.0069 20.3338 10.5356 21.6556H14.2706C13.6406 18.3256 10.7156 15.8056 7.2 15.8056C3.22312 15.8056 0 19.0288 0 23.0056C0 26.9825 3.22312 30.2056 7.2 30.2056C10.7156 30.2056 13.6406 27.6856 14.2762 24.3556H10.5356ZM7.2 24.8056C7.67739 24.8056 8.13523 24.616 8.47279 24.2784C8.81036 23.9409 9 23.483 9 23.0056C9 22.5282 8.81036 22.0704 8.47279 21.7328C8.13523 21.3953 7.67739 21.2056 7.2 21.2056C6.72261 21.2056 6.26477 21.3953 5.92721 21.7328C5.58964 22.0704 5.4 22.5282 5.4 23.0056C5.4 23.483 5.58964 23.9409 5.92721 24.2784C6.26477 24.616 6.72261 24.8056 7.2 24.8056Z" fill="white"/>
</g>
<defs>
<clipPath id="clip0_1382_1029">
<rect width="36" height="36" fill="white"/>
</clipPath>
</defs>
</svg>
