<svg width="23" height="18" viewBox="0 0 23 18" fill="none" xmlns="http://www.w3.org/2000/svg">
<g id="Group 2">
<path id="Vector" d="M9.76856 3.71119C9.76856 2.64915 8.54005 2.0587 7.71074 2.72215L4.68852 5.13993C4.46393 5.3196 4.18489 5.41748 3.89729 5.41748H1.26659C0.56707 5.41748 0 5.98455 0 6.68407V10.6633C0 11.3628 0.567071 11.9299 1.26659 11.9299H3.89729C4.18489 11.9299 4.46393 12.0277 4.68852 12.2074L7.71074 14.6252C8.54005 15.2886 9.76856 14.6982 9.76856 13.6361V3.71119Z" fill="white"/>
<path id="Vector_2" d="M18.5277 0.999939C20.5625 3.03536 21.7056 5.7956 21.7056 8.67368C21.7056 11.5518 20.5625 14.312 18.5277 16.3474M14.6963 4.83138C15.7137 5.84909 16.2852 7.22922 16.2852 8.66826C16.2852 10.1073 15.7137 11.4874 14.6963 12.5051" stroke="white" stroke-width="1.68878" stroke-linecap="round" stroke-linejoin="round"/>
</g>
</svg>
