<svg width="1298" height="700" viewBox="0 0 1298 700" fill="none" xmlns="http://www.w3.org/2000/svg">
<g opacity="0.5">
<path d="M887.463 159.021C914.894 127.247 968.592 149.67 963.685 190.94C962.583 200.251 961.07 209.512 959.158 218.712L961.449 171.5L945.092 151.5L914.5 144.341L887.463 159.021Z" fill="#FFEB3B"/>
<path d="M226.937 198.522C222.393 157.099 276.279 136.415 303.416 169.06C310.751 177.902 318.612 186.466 327 194.731L280.5 157.2H250.5L230 182.5L233.816 238.33C230.701 225.172 228.408 211.873 226.937 198.522Z" fill="#FFEB3B"/>
<path d="M887.463 159.021L914.5 144.341L945.092 151.5L961.449 171.5L959.158 218.712C946.017 281.91 853.108 328.712 802 377C664.814 506.617 448.34 528 312.309 393.968C264.791 347.148 247.836 297.628 233.816 238.33L230 182.5L250.5 157.2H280.5L327 194.731C462.553 328.293 726.953 313.088 863.658 183.904C872.117 175.912 880.052 167.603 887.463 159.021Z" fill="#FFEB3B"/>
</g>
<path d="M6.35156 35.5859V47H4.46875V37.8203L1.67969 38.7656V37.2109L6.125 35.5859H6.35156ZM18.7188 40.3594V42.2188C18.7188 43.1094 18.6302 43.8698 18.4531 44.5C18.2812 45.125 18.0312 45.6328 17.7031 46.0234C17.375 46.4141 16.9818 46.7005 16.5234 46.8828C16.0703 47.0651 15.5625 47.1562 15 47.1562C14.5521 47.1562 14.1354 47.099 13.75 46.9844C13.3698 46.8698 13.026 46.6901 12.7188 46.4453C12.4115 46.2005 12.1484 45.8854 11.9297 45.5C11.7161 45.1094 11.5495 44.6432 11.4297 44.1016C11.3151 43.5599 11.2578 42.9323 11.2578 42.2188V40.3594C11.2578 39.4635 11.3464 38.7083 11.5234 38.0938C11.7005 37.474 11.9531 36.9714 12.2812 36.5859C12.6094 36.1953 13 35.9115 13.4531 35.7344C13.9115 35.5573 14.4219 35.4688 14.9844 35.4688C15.4375 35.4688 15.8542 35.526 16.2344 35.6406C16.6198 35.75 16.9635 35.9245 17.2656 36.1641C17.5729 36.4036 17.8333 36.7161 18.0469 37.1016C18.2656 37.4818 18.4323 37.9427 18.5469 38.4844C18.6615 39.0208 18.7188 39.6458 18.7188 40.3594ZM16.8359 42.4844V40.0781C16.8359 39.625 16.8099 39.2266 16.7578 38.8828C16.7057 38.5339 16.6276 38.2396 16.5234 38C16.4245 37.7552 16.2995 37.5573 16.1484 37.4062C15.9974 37.25 15.8255 37.138 15.6328 37.0703C15.4401 36.9974 15.224 36.9609 14.9844 36.9609C14.6927 36.9609 14.4323 37.0182 14.2031 37.1328C13.974 37.2422 13.7812 37.4193 13.625 37.6641C13.4688 37.9089 13.349 38.2318 13.2656 38.6328C13.1875 39.0286 13.1484 39.5104 13.1484 40.0781V42.4844C13.1484 42.9427 13.1745 43.3464 13.2266 43.6953C13.2786 44.0443 13.3568 44.3438 13.4609 44.5938C13.5651 44.8385 13.6901 45.0417 13.8359 45.2031C13.987 45.3594 14.1589 45.474 14.3516 45.5469C14.5495 45.6198 14.7656 45.6562 15 45.6562C15.2969 45.6562 15.5599 45.599 15.7891 45.4844C16.0182 45.3698 16.2109 45.1875 16.3672 44.9375C16.5234 44.6823 16.6406 44.3516 16.7188 43.9453C16.7969 43.5391 16.8359 43.0521 16.8359 42.4844ZM31.6484 45.25V35H33.5391V47H31.8281L31.6484 45.25ZM26.1484 42.8672V42.7031C26.1484 42.0625 26.224 41.4792 26.375 40.9531C26.526 40.4219 26.7448 39.9661 27.0312 39.5859C27.3177 39.2005 27.6667 38.9062 28.0781 38.7031C28.4896 38.4948 28.9531 38.3906 29.4688 38.3906C29.9792 38.3906 30.4271 38.4896 30.8125 38.6875C31.1979 38.8854 31.526 39.1693 31.7969 39.5391C32.0677 39.9036 32.2839 40.3411 32.4453 40.8516C32.6068 41.3568 32.7214 41.9193 32.7891 42.5391V43.0625C32.7214 43.6667 32.6068 44.2188 32.4453 44.7188C32.2839 45.2188 32.0677 45.651 31.7969 46.0156C31.526 46.3802 31.1953 46.6615 30.8047 46.8594C30.4193 47.0573 29.9688 47.1562 29.4531 47.1562C28.9427 47.1562 28.4818 47.0495 28.0703 46.8359C27.6641 46.6224 27.3177 46.3229 27.0312 45.9375C26.7448 45.5521 26.526 45.099 26.375 44.5781C26.224 44.0521 26.1484 43.4818 26.1484 42.8672ZM28.0312 42.7031V42.8672C28.0312 43.2526 28.0651 43.612 28.1328 43.9453C28.2057 44.2786 28.3177 44.5729 28.4688 44.8281C28.6198 45.0781 28.8151 45.276 29.0547 45.4219C29.2995 45.5625 29.5911 45.6328 29.9297 45.6328C30.3568 45.6328 30.7083 45.5391 30.9844 45.3516C31.2604 45.1641 31.4766 44.9115 31.6328 44.5938C31.7943 44.2708 31.9036 43.9115 31.9609 43.5156V42.1016C31.9297 41.7943 31.8646 41.5078 31.7656 41.2422C31.6719 40.9766 31.5443 40.7448 31.3828 40.5469C31.2214 40.3438 31.0208 40.1875 30.7812 40.0781C30.5469 39.9635 30.2682 39.9062 29.9453 39.9062C29.6016 39.9062 29.3099 39.9792 29.0703 40.125C28.8307 40.2708 28.6328 40.4714 28.4766 40.7266C28.3255 40.9818 28.2135 41.2786 28.1406 41.6172C28.0677 41.9557 28.0312 42.3177 28.0312 42.7031ZM40.9609 41.8594H38.0625L38.0469 40.4297H40.5781C41.0052 40.4297 41.3672 40.3672 41.6641 40.2422C41.9661 40.112 42.1953 39.9271 42.3516 39.6875C42.5078 39.4427 42.5859 39.1484 42.5859 38.8047C42.5859 38.4245 42.513 38.1146 42.3672 37.875C42.2214 37.6354 41.9974 37.4609 41.6953 37.3516C41.3984 37.2422 41.0182 37.1875 40.5547 37.1875H38.6562V47H36.6953V35.625H40.5547C41.1797 35.625 41.737 35.6849 42.2266 35.8047C42.7214 35.9245 43.1406 36.112 43.4844 36.3672C43.8333 36.6172 44.0964 36.9349 44.2734 37.3203C44.4557 37.7057 44.5469 38.1641 44.5469 38.6953C44.5469 39.1641 44.4349 39.5938 44.2109 39.9844C43.987 40.3698 43.6562 40.6849 43.2188 40.9297C42.7812 41.1745 42.237 41.3203 41.5859 41.3672L40.9609 41.8594ZM40.875 47H37.4453L38.3281 45.4453H40.875C41.3177 45.4453 41.6875 45.3724 41.9844 45.2266C42.2812 45.0755 42.5026 44.8698 42.6484 44.6094C42.7995 44.3438 42.875 44.0339 42.875 43.6797C42.875 43.3099 42.8099 42.9896 42.6797 42.7188C42.5495 42.4427 42.3438 42.2318 42.0625 42.0859C41.7812 41.9349 41.4141 41.8594 40.9609 41.8594H38.7578L38.7734 40.4297H41.6406L42.0859 40.9688C42.7109 40.9896 43.224 41.1276 43.625 41.3828C44.0312 41.638 44.3333 41.9688 44.5312 42.375C44.7292 42.7812 44.8281 43.2188 44.8281 43.6875C44.8281 44.4115 44.6693 45.0182 44.3516 45.5078C44.0391 45.9974 43.5885 46.3698 43 46.625C42.4115 46.875 41.7031 47 40.875 47Z" fill="#9B9B9B"/>
<path d="M66 41.5H54" stroke="#4F4747"/>
<path d="M3.42188 217.211H4.54688C4.98438 217.211 5.34635 217.135 5.63281 216.984C5.92448 216.833 6.14062 216.625 6.28125 216.359C6.42188 216.094 6.49219 215.789 6.49219 215.445C6.49219 215.086 6.42708 214.779 6.29688 214.523C6.17188 214.263 5.97917 214.062 5.71875 213.922C5.46354 213.781 5.13802 213.711 4.74219 213.711C4.40885 213.711 4.10677 213.779 3.83594 213.914C3.57031 214.044 3.35938 214.232 3.20312 214.477C3.04688 214.716 2.96875 215.003 2.96875 215.336H1.07812C1.07812 214.732 1.23698 214.195 1.55469 213.727C1.8724 213.258 2.30469 212.891 2.85156 212.625C3.40365 212.354 4.02344 212.219 4.71094 212.219C5.44531 212.219 6.08594 212.341 6.63281 212.586C7.1849 212.826 7.61458 213.185 7.92188 213.664C8.22917 214.143 8.38281 214.737 8.38281 215.445C8.38281 215.768 8.30729 216.096 8.15625 216.43C8.00521 216.763 7.78125 217.068 7.48438 217.344C7.1875 217.615 6.81771 217.836 6.375 218.008C5.93229 218.174 5.41927 218.258 4.83594 218.258H3.42188V217.211ZM3.42188 218.68V217.648H4.83594C5.5026 217.648 6.07031 217.727 6.53906 217.883C7.01302 218.039 7.39844 218.255 7.69531 218.531C7.99219 218.802 8.20833 219.112 8.34375 219.461C8.48438 219.81 8.55469 220.18 8.55469 220.57C8.55469 221.102 8.45833 221.576 8.26562 221.992C8.07812 222.404 7.8099 222.753 7.46094 223.039C7.11198 223.326 6.70312 223.542 6.23438 223.688C5.77083 223.833 5.26562 223.906 4.71875 223.906C4.22917 223.906 3.76042 223.839 3.3125 223.703C2.86458 223.568 2.46354 223.367 2.10938 223.102C1.75521 222.831 1.47396 222.495 1.26562 222.094C1.0625 221.688 0.960938 221.219 0.960938 220.688H2.84375C2.84375 221.026 2.92188 221.326 3.07812 221.586C3.23958 221.841 3.46354 222.042 3.75 222.188C4.04167 222.333 4.375 222.406 4.75 222.406C5.14583 222.406 5.48698 222.336 5.77344 222.195C6.0599 222.055 6.27865 221.846 6.42969 221.57C6.58594 221.294 6.66406 220.961 6.66406 220.57C6.66406 220.128 6.57812 219.768 6.40625 219.492C6.23438 219.216 5.98958 219.013 5.67188 218.883C5.35417 218.747 4.97917 218.68 4.54688 218.68H3.42188ZM18.7188 217.109V218.969C18.7188 219.859 18.6302 220.62 18.4531 221.25C18.2812 221.875 18.0312 222.383 17.7031 222.773C17.375 223.164 16.9818 223.451 16.5234 223.633C16.0703 223.815 15.5625 223.906 15 223.906C14.5521 223.906 14.1354 223.849 13.75 223.734C13.3698 223.62 13.026 223.44 12.7188 223.195C12.4115 222.951 12.1484 222.635 11.9297 222.25C11.7161 221.859 11.5495 221.393 11.4297 220.852C11.3151 220.31 11.2578 219.682 11.2578 218.969V217.109C11.2578 216.214 11.3464 215.458 11.5234 214.844C11.7005 214.224 11.9531 213.721 12.2812 213.336C12.6094 212.945 13 212.661 13.4531 212.484C13.9115 212.307 14.4219 212.219 14.9844 212.219C15.4375 212.219 15.8542 212.276 16.2344 212.391C16.6198 212.5 16.9635 212.674 17.2656 212.914C17.5729 213.154 17.8333 213.466 18.0469 213.852C18.2656 214.232 18.4323 214.693 18.5469 215.234C18.6615 215.771 18.7188 216.396 18.7188 217.109ZM16.8359 219.234V216.828C16.8359 216.375 16.8099 215.977 16.7578 215.633C16.7057 215.284 16.6276 214.99 16.5234 214.75C16.4245 214.505 16.2995 214.307 16.1484 214.156C15.9974 214 15.8255 213.888 15.6328 213.82C15.4401 213.747 15.224 213.711 14.9844 213.711C14.6927 213.711 14.4323 213.768 14.2031 213.883C13.974 213.992 13.7812 214.169 13.625 214.414C13.4688 214.659 13.349 214.982 13.2656 215.383C13.1875 215.779 13.1484 216.26 13.1484 216.828V219.234C13.1484 219.693 13.1745 220.096 13.2266 220.445C13.2786 220.794 13.3568 221.094 13.4609 221.344C13.5651 221.589 13.6901 221.792 13.8359 221.953C13.987 222.109 14.1589 222.224 14.3516 222.297C14.5495 222.37 14.7656 222.406 15 222.406C15.2969 222.406 15.5599 222.349 15.7891 222.234C16.0182 222.12 16.2109 221.938 16.3672 221.688C16.5234 221.432 16.6406 221.102 16.7188 220.695C16.7969 220.289 16.8359 219.802 16.8359 219.234ZM31.6484 222V211.75H33.5391V223.75H31.8281L31.6484 222ZM26.1484 219.617V219.453C26.1484 218.812 26.224 218.229 26.375 217.703C26.526 217.172 26.7448 216.716 27.0312 216.336C27.3177 215.951 27.6667 215.656 28.0781 215.453C28.4896 215.245 28.9531 215.141 29.4688 215.141C29.9792 215.141 30.4271 215.24 30.8125 215.438C31.1979 215.635 31.526 215.919 31.7969 216.289C32.0677 216.654 32.2839 217.091 32.4453 217.602C32.6068 218.107 32.7214 218.669 32.7891 219.289V219.812C32.7214 220.417 32.6068 220.969 32.4453 221.469C32.2839 221.969 32.0677 222.401 31.7969 222.766C31.526 223.13 31.1953 223.411 30.8047 223.609C30.4193 223.807 29.9688 223.906 29.4531 223.906C28.9427 223.906 28.4818 223.799 28.0703 223.586C27.6641 223.372 27.3177 223.073 27.0312 222.688C26.7448 222.302 26.526 221.849 26.375 221.328C26.224 220.802 26.1484 220.232 26.1484 219.617ZM28.0312 219.453V219.617C28.0312 220.003 28.0651 220.362 28.1328 220.695C28.2057 221.029 28.3177 221.323 28.4688 221.578C28.6198 221.828 28.8151 222.026 29.0547 222.172C29.2995 222.312 29.5911 222.383 29.9297 222.383C30.3568 222.383 30.7083 222.289 30.9844 222.102C31.2604 221.914 31.4766 221.661 31.6328 221.344C31.7943 221.021 31.9036 220.661 31.9609 220.266V218.852C31.9297 218.544 31.8646 218.258 31.7656 217.992C31.6719 217.727 31.5443 217.495 31.3828 217.297C31.2214 217.094 31.0208 216.938 30.7812 216.828C30.5469 216.714 30.2682 216.656 29.9453 216.656C29.6016 216.656 29.3099 216.729 29.0703 216.875C28.8307 217.021 28.6328 217.221 28.4766 217.477C28.3255 217.732 28.2135 218.029 28.1406 218.367C28.0677 218.706 28.0312 219.068 28.0312 219.453ZM40.9609 218.609H38.0625L38.0469 217.18H40.5781C41.0052 217.18 41.3672 217.117 41.6641 216.992C41.9661 216.862 42.1953 216.677 42.3516 216.438C42.5078 216.193 42.5859 215.898 42.5859 215.555C42.5859 215.174 42.513 214.865 42.3672 214.625C42.2214 214.385 41.9974 214.211 41.6953 214.102C41.3984 213.992 41.0182 213.938 40.5547 213.938H38.6562V223.75H36.6953V212.375H40.5547C41.1797 212.375 41.737 212.435 42.2266 212.555C42.7214 212.674 43.1406 212.862 43.4844 213.117C43.8333 213.367 44.0964 213.685 44.2734 214.07C44.4557 214.456 44.5469 214.914 44.5469 215.445C44.5469 215.914 44.4349 216.344 44.2109 216.734C43.987 217.12 43.6562 217.435 43.2188 217.68C42.7812 217.924 42.237 218.07 41.5859 218.117L40.9609 218.609ZM40.875 223.75H37.4453L38.3281 222.195H40.875C41.3177 222.195 41.6875 222.122 41.9844 221.977C42.2812 221.826 42.5026 221.62 42.6484 221.359C42.7995 221.094 42.875 220.784 42.875 220.43C42.875 220.06 42.8099 219.74 42.6797 219.469C42.5495 219.193 42.3438 218.982 42.0625 218.836C41.7812 218.685 41.4141 218.609 40.9609 218.609H38.7578L38.7734 217.18H41.6406L42.0859 217.719C42.7109 217.74 43.224 217.878 43.625 218.133C44.0312 218.388 44.3333 218.719 44.5312 219.125C44.7292 219.531 44.8281 219.969 44.8281 220.438C44.8281 221.161 44.6693 221.768 44.3516 222.258C44.0391 222.747 43.5885 223.12 43 223.375C42.4115 223.625 41.7031 223.75 40.875 223.75Z" fill="#9B9B9B"/>
<path d="M66 218.25H54" stroke="#4F4747"/>
<path d="M3.1875 363.211L1.6875 362.844L2.30469 357.125H8.4375V358.719H3.86719L3.55469 361.508C3.73177 361.404 3.97656 361.302 4.28906 361.203C4.60156 361.099 4.95833 361.047 5.35938 361.047C5.89583 361.047 6.375 361.135 6.79688 361.312C7.22396 361.484 7.58594 361.737 7.88281 362.07C8.17969 362.398 8.40625 362.799 8.5625 363.273C8.71875 363.742 8.79688 364.271 8.79688 364.859C8.79688 365.385 8.71875 365.878 8.5625 366.336C8.41146 366.794 8.18229 367.198 7.875 367.547C7.56771 367.896 7.17969 368.169 6.71094 368.367C6.2474 368.56 5.69792 368.656 5.0625 368.656C4.58854 368.656 4.13281 368.589 3.69531 368.453C3.26302 368.312 2.875 368.107 2.53125 367.836C2.1875 367.56 1.91146 367.221 1.70312 366.82C1.49479 366.414 1.375 365.948 1.34375 365.422H3.1875C3.23438 365.792 3.33594 366.107 3.49219 366.367C3.65365 366.622 3.86719 366.818 4.13281 366.953C4.39844 367.089 4.70573 367.156 5.05469 367.156C5.3724 367.156 5.64583 367.102 5.875 366.992C6.10417 366.878 6.29427 366.716 6.44531 366.508C6.60156 366.294 6.71615 366.044 6.78906 365.758C6.86719 365.471 6.90625 365.154 6.90625 364.805C6.90625 364.471 6.86198 364.167 6.77344 363.891C6.6901 363.615 6.5625 363.375 6.39062 363.172C6.22396 362.969 6.01302 362.812 5.75781 362.703C5.5026 362.589 5.20833 362.531 4.875 362.531C4.42708 362.531 4.08333 362.596 3.84375 362.727C3.60938 362.857 3.39062 363.018 3.1875 363.211ZM18.7188 361.859V363.719C18.7188 364.609 18.6302 365.37 18.4531 366C18.2812 366.625 18.0312 367.133 17.7031 367.523C17.375 367.914 16.9818 368.201 16.5234 368.383C16.0703 368.565 15.5625 368.656 15 368.656C14.5521 368.656 14.1354 368.599 13.75 368.484C13.3698 368.37 13.026 368.19 12.7188 367.945C12.4115 367.701 12.1484 367.385 11.9297 367C11.7161 366.609 11.5495 366.143 11.4297 365.602C11.3151 365.06 11.2578 364.432 11.2578 363.719V361.859C11.2578 360.964 11.3464 360.208 11.5234 359.594C11.7005 358.974 11.9531 358.471 12.2812 358.086C12.6094 357.695 13 357.411 13.4531 357.234C13.9115 357.057 14.4219 356.969 14.9844 356.969C15.4375 356.969 15.8542 357.026 16.2344 357.141C16.6198 357.25 16.9635 357.424 17.2656 357.664C17.5729 357.904 17.8333 358.216 18.0469 358.602C18.2656 358.982 18.4323 359.443 18.5469 359.984C18.6615 360.521 18.7188 361.146 18.7188 361.859ZM16.8359 363.984V361.578C16.8359 361.125 16.8099 360.727 16.7578 360.383C16.7057 360.034 16.6276 359.74 16.5234 359.5C16.4245 359.255 16.2995 359.057 16.1484 358.906C15.9974 358.75 15.8255 358.638 15.6328 358.57C15.4401 358.497 15.224 358.461 14.9844 358.461C14.6927 358.461 14.4323 358.518 14.2031 358.633C13.974 358.742 13.7812 358.919 13.625 359.164C13.4688 359.409 13.349 359.732 13.2656 360.133C13.1875 360.529 13.1484 361.01 13.1484 361.578V363.984C13.1484 364.443 13.1745 364.846 13.2266 365.195C13.2786 365.544 13.3568 365.844 13.4609 366.094C13.5651 366.339 13.6901 366.542 13.8359 366.703C13.987 366.859 14.1589 366.974 14.3516 367.047C14.5495 367.12 14.7656 367.156 15 367.156C15.2969 367.156 15.5599 367.099 15.7891 366.984C16.0182 366.87 16.2109 366.688 16.3672 366.438C16.5234 366.182 16.6406 365.852 16.7188 365.445C16.7969 365.039 16.8359 364.552 16.8359 363.984ZM31.6484 366.75V356.5H33.5391V368.5H31.8281L31.6484 366.75ZM26.1484 364.367V364.203C26.1484 363.562 26.224 362.979 26.375 362.453C26.526 361.922 26.7448 361.466 27.0312 361.086C27.3177 360.701 27.6667 360.406 28.0781 360.203C28.4896 359.995 28.9531 359.891 29.4688 359.891C29.9792 359.891 30.4271 359.99 30.8125 360.188C31.1979 360.385 31.526 360.669 31.7969 361.039C32.0677 361.404 32.2839 361.841 32.4453 362.352C32.6068 362.857 32.7214 363.419 32.7891 364.039V364.562C32.7214 365.167 32.6068 365.719 32.4453 366.219C32.2839 366.719 32.0677 367.151 31.7969 367.516C31.526 367.88 31.1953 368.161 30.8047 368.359C30.4193 368.557 29.9688 368.656 29.4531 368.656C28.9427 368.656 28.4818 368.549 28.0703 368.336C27.6641 368.122 27.3177 367.823 27.0312 367.438C26.7448 367.052 26.526 366.599 26.375 366.078C26.224 365.552 26.1484 364.982 26.1484 364.367ZM28.0312 364.203V364.367C28.0312 364.753 28.0651 365.112 28.1328 365.445C28.2057 365.779 28.3177 366.073 28.4688 366.328C28.6198 366.578 28.8151 366.776 29.0547 366.922C29.2995 367.062 29.5911 367.133 29.9297 367.133C30.3568 367.133 30.7083 367.039 30.9844 366.852C31.2604 366.664 31.4766 366.411 31.6328 366.094C31.7943 365.771 31.9036 365.411 31.9609 365.016V363.602C31.9297 363.294 31.8646 363.008 31.7656 362.742C31.6719 362.477 31.5443 362.245 31.3828 362.047C31.2214 361.844 31.0208 361.688 30.7812 361.578C30.5469 361.464 30.2682 361.406 29.9453 361.406C29.6016 361.406 29.3099 361.479 29.0703 361.625C28.8307 361.771 28.6328 361.971 28.4766 362.227C28.3255 362.482 28.2135 362.779 28.1406 363.117C28.0677 363.456 28.0312 363.818 28.0312 364.203ZM40.9609 363.359H38.0625L38.0469 361.93H40.5781C41.0052 361.93 41.3672 361.867 41.6641 361.742C41.9661 361.612 42.1953 361.427 42.3516 361.188C42.5078 360.943 42.5859 360.648 42.5859 360.305C42.5859 359.924 42.513 359.615 42.3672 359.375C42.2214 359.135 41.9974 358.961 41.6953 358.852C41.3984 358.742 41.0182 358.688 40.5547 358.688H38.6562V368.5H36.6953V357.125H40.5547C41.1797 357.125 41.737 357.185 42.2266 357.305C42.7214 357.424 43.1406 357.612 43.4844 357.867C43.8333 358.117 44.0964 358.435 44.2734 358.82C44.4557 359.206 44.5469 359.664 44.5469 360.195C44.5469 360.664 44.4349 361.094 44.2109 361.484C43.987 361.87 43.6562 362.185 43.2188 362.43C42.7812 362.674 42.237 362.82 41.5859 362.867L40.9609 363.359ZM40.875 368.5H37.4453L38.3281 366.945H40.875C41.3177 366.945 41.6875 366.872 41.9844 366.727C42.2812 366.576 42.5026 366.37 42.6484 366.109C42.7995 365.844 42.875 365.534 42.875 365.18C42.875 364.81 42.8099 364.49 42.6797 364.219C42.5495 363.943 42.3438 363.732 42.0625 363.586C41.7812 363.435 41.4141 363.359 40.9609 363.359H38.7578L38.7734 361.93H41.6406L42.0859 362.469C42.7109 362.49 43.224 362.628 43.625 362.883C44.0312 363.138 44.3333 363.469 44.5312 363.875C44.7292 364.281 44.8281 364.719 44.8281 365.188C44.8281 365.911 44.6693 366.518 44.3516 367.008C44.0391 367.497 43.5885 367.87 43 368.125C42.4115 368.375 41.7031 368.5 40.875 368.5Z" fill="#9B9B9B"/>
<path d="M66 363H54" stroke="#4F4747"/>
<path d="M8.76562 501.875V502.906L4.21875 513.25H2.23438L6.77344 503.375H0.882812V501.875H8.76562ZM18.7188 506.609V508.469C18.7188 509.359 18.6302 510.12 18.4531 510.75C18.2812 511.375 18.0312 511.883 17.7031 512.273C17.375 512.664 16.9818 512.951 16.5234 513.133C16.0703 513.315 15.5625 513.406 15 513.406C14.5521 513.406 14.1354 513.349 13.75 513.234C13.3698 513.12 13.026 512.94 12.7188 512.695C12.4115 512.451 12.1484 512.135 11.9297 511.75C11.7161 511.359 11.5495 510.893 11.4297 510.352C11.3151 509.81 11.2578 509.182 11.2578 508.469V506.609C11.2578 505.714 11.3464 504.958 11.5234 504.344C11.7005 503.724 11.9531 503.221 12.2812 502.836C12.6094 502.445 13 502.161 13.4531 501.984C13.9115 501.807 14.4219 501.719 14.9844 501.719C15.4375 501.719 15.8542 501.776 16.2344 501.891C16.6198 502 16.9635 502.174 17.2656 502.414C17.5729 502.654 17.8333 502.966 18.0469 503.352C18.2656 503.732 18.4323 504.193 18.5469 504.734C18.6615 505.271 18.7188 505.896 18.7188 506.609ZM16.8359 508.734V506.328C16.8359 505.875 16.8099 505.477 16.7578 505.133C16.7057 504.784 16.6276 504.49 16.5234 504.25C16.4245 504.005 16.2995 503.807 16.1484 503.656C15.9974 503.5 15.8255 503.388 15.6328 503.32C15.4401 503.247 15.224 503.211 14.9844 503.211C14.6927 503.211 14.4323 503.268 14.2031 503.383C13.974 503.492 13.7812 503.669 13.625 503.914C13.4688 504.159 13.349 504.482 13.2656 504.883C13.1875 505.279 13.1484 505.76 13.1484 506.328V508.734C13.1484 509.193 13.1745 509.596 13.2266 509.945C13.2786 510.294 13.3568 510.594 13.4609 510.844C13.5651 511.089 13.6901 511.292 13.8359 511.453C13.987 511.609 14.1589 511.724 14.3516 511.797C14.5495 511.87 14.7656 511.906 15 511.906C15.2969 511.906 15.5599 511.849 15.7891 511.734C16.0182 511.62 16.2109 511.438 16.3672 511.188C16.5234 510.932 16.6406 510.602 16.7188 510.195C16.7969 509.789 16.8359 509.302 16.8359 508.734ZM31.6484 511.5V501.25H33.5391V513.25H31.8281L31.6484 511.5ZM26.1484 509.117V508.953C26.1484 508.312 26.224 507.729 26.375 507.203C26.526 506.672 26.7448 506.216 27.0312 505.836C27.3177 505.451 27.6667 505.156 28.0781 504.953C28.4896 504.745 28.9531 504.641 29.4688 504.641C29.9792 504.641 30.4271 504.74 30.8125 504.938C31.1979 505.135 31.526 505.419 31.7969 505.789C32.0677 506.154 32.2839 506.591 32.4453 507.102C32.6068 507.607 32.7214 508.169 32.7891 508.789V509.312C32.7214 509.917 32.6068 510.469 32.4453 510.969C32.2839 511.469 32.0677 511.901 31.7969 512.266C31.526 512.63 31.1953 512.911 30.8047 513.109C30.4193 513.307 29.9688 513.406 29.4531 513.406C28.9427 513.406 28.4818 513.299 28.0703 513.086C27.6641 512.872 27.3177 512.573 27.0312 512.188C26.7448 511.802 26.526 511.349 26.375 510.828C26.224 510.302 26.1484 509.732 26.1484 509.117ZM28.0312 508.953V509.117C28.0312 509.503 28.0651 509.862 28.1328 510.195C28.2057 510.529 28.3177 510.823 28.4688 511.078C28.6198 511.328 28.8151 511.526 29.0547 511.672C29.2995 511.812 29.5911 511.883 29.9297 511.883C30.3568 511.883 30.7083 511.789 30.9844 511.602C31.2604 511.414 31.4766 511.161 31.6328 510.844C31.7943 510.521 31.9036 510.161 31.9609 509.766V508.352C31.9297 508.044 31.8646 507.758 31.7656 507.492C31.6719 507.227 31.5443 506.995 31.3828 506.797C31.2214 506.594 31.0208 506.438 30.7812 506.328C30.5469 506.214 30.2682 506.156 29.9453 506.156C29.6016 506.156 29.3099 506.229 29.0703 506.375C28.8307 506.521 28.6328 506.721 28.4766 506.977C28.3255 507.232 28.2135 507.529 28.1406 507.867C28.0677 508.206 28.0312 508.568 28.0312 508.953ZM40.9609 508.109H38.0625L38.0469 506.68H40.5781C41.0052 506.68 41.3672 506.617 41.6641 506.492C41.9661 506.362 42.1953 506.177 42.3516 505.938C42.5078 505.693 42.5859 505.398 42.5859 505.055C42.5859 504.674 42.513 504.365 42.3672 504.125C42.2214 503.885 41.9974 503.711 41.6953 503.602C41.3984 503.492 41.0182 503.438 40.5547 503.438H38.6562V513.25H36.6953V501.875H40.5547C41.1797 501.875 41.737 501.935 42.2266 502.055C42.7214 502.174 43.1406 502.362 43.4844 502.617C43.8333 502.867 44.0964 503.185 44.2734 503.57C44.4557 503.956 44.5469 504.414 44.5469 504.945C44.5469 505.414 44.4349 505.844 44.2109 506.234C43.987 506.62 43.6562 506.935 43.2188 507.18C42.7812 507.424 42.237 507.57 41.5859 507.617L40.9609 508.109ZM40.875 513.25H37.4453L38.3281 511.695H40.875C41.3177 511.695 41.6875 511.622 41.9844 511.477C42.2812 511.326 42.5026 511.12 42.6484 510.859C42.7995 510.594 42.875 510.284 42.875 509.93C42.875 509.56 42.8099 509.24 42.6797 508.969C42.5495 508.693 42.3438 508.482 42.0625 508.336C41.7812 508.185 41.4141 508.109 40.9609 508.109H38.7578L38.7734 506.68H41.6406L42.0859 507.219C42.7109 507.24 43.224 507.378 43.625 507.633C44.0312 507.888 44.3333 508.219 44.5312 508.625C44.7292 509.031 44.8281 509.469 44.8281 509.938C44.8281 510.661 44.6693 511.268 44.3516 511.758C44.0391 512.247 43.5885 512.62 43 512.875C42.4115 513.125 41.7031 513.25 40.875 513.25Z" fill="#9B9B9B"/>
<path d="M66 507.75H54" stroke="#4F4747"/>
<path d="M8.64844 654.898C8.64844 655.607 8.48438 656.203 8.15625 656.688C7.82812 657.172 7.38021 657.539 6.8125 657.789C6.25 658.034 5.61458 658.156 4.90625 658.156C4.19792 658.156 3.5599 658.034 2.99219 657.789C2.42448 657.539 1.97656 657.172 1.64844 656.688C1.32031 656.203 1.15625 655.607 1.15625 654.898C1.15625 654.43 1.2474 654.005 1.42969 653.625C1.61198 653.24 1.86979 652.909 2.20312 652.633C2.54167 652.352 2.9375 652.135 3.39062 651.984C3.84896 651.833 4.34896 651.758 4.89062 651.758C5.60938 651.758 6.2526 651.891 6.82031 652.156C7.38802 652.422 7.83333 652.789 8.15625 653.258C8.48438 653.727 8.64844 654.273 8.64844 654.898ZM6.75781 654.805C6.75781 654.424 6.67969 654.091 6.52344 653.805C6.36719 653.518 6.14844 653.297 5.86719 653.141C5.58594 652.984 5.26042 652.906 4.89062 652.906C4.51562 652.906 4.1901 652.984 3.91406 653.141C3.63802 653.297 3.42188 653.518 3.26562 653.805C3.11458 654.091 3.03906 654.424 3.03906 654.805C3.03906 655.19 3.11458 655.523 3.26562 655.805C3.41667 656.081 3.63281 656.292 3.91406 656.438C4.19531 656.583 4.52604 656.656 4.90625 656.656C5.28646 656.656 5.61458 656.583 5.89062 656.438C6.16667 656.292 6.38021 656.081 6.53125 655.805C6.68229 655.523 6.75781 655.19 6.75781 654.805ZM8.39062 649.617C8.39062 650.185 8.23958 650.69 7.9375 651.133C7.64062 651.576 7.22917 651.924 6.70312 652.18C6.17708 652.43 5.57812 652.555 4.90625 652.555C4.22917 652.555 3.625 652.43 3.09375 652.18C2.56771 651.924 2.15365 651.576 1.85156 651.133C1.55469 650.69 1.40625 650.185 1.40625 649.617C1.40625 648.94 1.55469 648.37 1.85156 647.906C2.15365 647.438 2.56771 647.081 3.09375 646.836C3.61979 646.591 4.22135 646.469 4.89844 646.469C5.57552 646.469 6.17708 646.591 6.70312 646.836C7.22917 647.081 7.64062 647.438 7.9375 647.906C8.23958 648.37 8.39062 648.94 8.39062 649.617ZM6.50781 649.68C6.50781 649.341 6.4401 649.044 6.30469 648.789C6.17448 648.529 5.98958 648.326 5.75 648.18C5.51042 648.034 5.22656 647.961 4.89844 647.961C4.57031 647.961 4.28646 648.031 4.04688 648.172C3.80729 648.312 3.6224 648.51 3.49219 648.766C3.36198 649.021 3.29688 649.326 3.29688 649.68C3.29688 650.029 3.36198 650.333 3.49219 650.594C3.6224 650.849 3.80729 651.049 4.04688 651.195C4.29167 651.341 4.57812 651.414 4.90625 651.414C5.23438 651.414 5.51823 651.341 5.75781 651.195C5.9974 651.049 6.18229 650.849 6.3125 650.594C6.44271 650.333 6.50781 650.029 6.50781 649.68ZM18.7188 651.359V653.219C18.7188 654.109 18.6302 654.87 18.4531 655.5C18.2812 656.125 18.0312 656.633 17.7031 657.023C17.375 657.414 16.9818 657.701 16.5234 657.883C16.0703 658.065 15.5625 658.156 15 658.156C14.5521 658.156 14.1354 658.099 13.75 657.984C13.3698 657.87 13.026 657.69 12.7188 657.445C12.4115 657.201 12.1484 656.885 11.9297 656.5C11.7161 656.109 11.5495 655.643 11.4297 655.102C11.3151 654.56 11.2578 653.932 11.2578 653.219V651.359C11.2578 650.464 11.3464 649.708 11.5234 649.094C11.7005 648.474 11.9531 647.971 12.2812 647.586C12.6094 647.195 13 646.911 13.4531 646.734C13.9115 646.557 14.4219 646.469 14.9844 646.469C15.4375 646.469 15.8542 646.526 16.2344 646.641C16.6198 646.75 16.9635 646.924 17.2656 647.164C17.5729 647.404 17.8333 647.716 18.0469 648.102C18.2656 648.482 18.4323 648.943 18.5469 649.484C18.6615 650.021 18.7188 650.646 18.7188 651.359ZM16.8359 653.484V651.078C16.8359 650.625 16.8099 650.227 16.7578 649.883C16.7057 649.534 16.6276 649.24 16.5234 649C16.4245 648.755 16.2995 648.557 16.1484 648.406C15.9974 648.25 15.8255 648.138 15.6328 648.07C15.4401 647.997 15.224 647.961 14.9844 647.961C14.6927 647.961 14.4323 648.018 14.2031 648.133C13.974 648.242 13.7812 648.419 13.625 648.664C13.4688 648.909 13.349 649.232 13.2656 649.633C13.1875 650.029 13.1484 650.51 13.1484 651.078V653.484C13.1484 653.943 13.1745 654.346 13.2266 654.695C13.2786 655.044 13.3568 655.344 13.4609 655.594C13.5651 655.839 13.6901 656.042 13.8359 656.203C13.987 656.359 14.1589 656.474 14.3516 656.547C14.5495 656.62 14.7656 656.656 15 656.656C15.2969 656.656 15.5599 656.599 15.7891 656.484C16.0182 656.37 16.2109 656.188 16.3672 655.938C16.5234 655.682 16.6406 655.352 16.7188 654.945C16.7969 654.539 16.8359 654.052 16.8359 653.484ZM31.6484 656.25V646H33.5391V658H31.8281L31.6484 656.25ZM26.1484 653.867V653.703C26.1484 653.062 26.224 652.479 26.375 651.953C26.526 651.422 26.7448 650.966 27.0312 650.586C27.3177 650.201 27.6667 649.906 28.0781 649.703C28.4896 649.495 28.9531 649.391 29.4688 649.391C29.9792 649.391 30.4271 649.49 30.8125 649.688C31.1979 649.885 31.526 650.169 31.7969 650.539C32.0677 650.904 32.2839 651.341 32.4453 651.852C32.6068 652.357 32.7214 652.919 32.7891 653.539V654.062C32.7214 654.667 32.6068 655.219 32.4453 655.719C32.2839 656.219 32.0677 656.651 31.7969 657.016C31.526 657.38 31.1953 657.661 30.8047 657.859C30.4193 658.057 29.9688 658.156 29.4531 658.156C28.9427 658.156 28.4818 658.049 28.0703 657.836C27.6641 657.622 27.3177 657.323 27.0312 656.938C26.7448 656.552 26.526 656.099 26.375 655.578C26.224 655.052 26.1484 654.482 26.1484 653.867ZM28.0312 653.703V653.867C28.0312 654.253 28.0651 654.612 28.1328 654.945C28.2057 655.279 28.3177 655.573 28.4688 655.828C28.6198 656.078 28.8151 656.276 29.0547 656.422C29.2995 656.562 29.5911 656.633 29.9297 656.633C30.3568 656.633 30.7083 656.539 30.9844 656.352C31.2604 656.164 31.4766 655.911 31.6328 655.594C31.7943 655.271 31.9036 654.911 31.9609 654.516V653.102C31.9297 652.794 31.8646 652.508 31.7656 652.242C31.6719 651.977 31.5443 651.745 31.3828 651.547C31.2214 651.344 31.0208 651.188 30.7812 651.078C30.5469 650.964 30.2682 650.906 29.9453 650.906C29.6016 650.906 29.3099 650.979 29.0703 651.125C28.8307 651.271 28.6328 651.471 28.4766 651.727C28.3255 651.982 28.2135 652.279 28.1406 652.617C28.0677 652.956 28.0312 653.318 28.0312 653.703ZM40.9609 652.859H38.0625L38.0469 651.43H40.5781C41.0052 651.43 41.3672 651.367 41.6641 651.242C41.9661 651.112 42.1953 650.927 42.3516 650.688C42.5078 650.443 42.5859 650.148 42.5859 649.805C42.5859 649.424 42.513 649.115 42.3672 648.875C42.2214 648.635 41.9974 648.461 41.6953 648.352C41.3984 648.242 41.0182 648.188 40.5547 648.188H38.6562V658H36.6953V646.625H40.5547C41.1797 646.625 41.737 646.685 42.2266 646.805C42.7214 646.924 43.1406 647.112 43.4844 647.367C43.8333 647.617 44.0964 647.935 44.2734 648.32C44.4557 648.706 44.5469 649.164 44.5469 649.695C44.5469 650.164 44.4349 650.594 44.2109 650.984C43.987 651.37 43.6562 651.685 43.2188 651.93C42.7812 652.174 42.237 652.32 41.5859 652.367L40.9609 652.859ZM40.875 658H37.4453L38.3281 656.445H40.875C41.3177 656.445 41.6875 656.372 41.9844 656.227C42.2812 656.076 42.5026 655.87 42.6484 655.609C42.7995 655.344 42.875 655.034 42.875 654.68C42.875 654.31 42.8099 653.99 42.6797 653.719C42.5495 653.443 42.3438 653.232 42.0625 653.086C41.7812 652.935 41.4141 652.859 40.9609 652.859H38.7578L38.7734 651.43H41.6406L42.0859 651.969C42.7109 651.99 43.224 652.128 43.625 652.383C44.0312 652.638 44.3333 652.969 44.5312 653.375C44.7292 653.781 44.8281 654.219 44.8281 654.688C44.8281 655.411 44.6693 656.018 44.3516 656.508C44.0391 656.997 43.5885 657.37 43 657.625C42.4115 657.875 41.7031 658 40.875 658Z" fill="#9B9B9B"/>
<path d="M66 652.5H54" stroke="#4F4747"/>
<path d="M66 0V672" stroke="#191C19"/>
<path d="M66 663H1274" stroke="#191C19"/>
<path d="M89 663V673" stroke="#4F4747"/>
<path d="M74.6953 694.5V696H67.0703V694.711L70.7734 690.672C71.1797 690.214 71.5 689.818 71.7344 689.484C71.9688 689.151 72.1328 688.852 72.2266 688.586C72.3255 688.315 72.375 688.052 72.375 687.797C72.375 687.438 72.3073 687.122 72.1719 686.852C72.0417 686.576 71.849 686.359 71.5938 686.203C71.3385 686.042 71.0286 685.961 70.6641 685.961C70.2422 685.961 69.888 686.052 69.6016 686.234C69.3151 686.417 69.099 686.669 68.9531 686.992C68.8073 687.31 68.7344 687.674 68.7344 688.086H66.8516C66.8516 687.424 67.0026 686.82 67.3047 686.273C67.6068 685.721 68.0443 685.284 68.6172 684.961C69.1901 684.633 69.8802 684.469 70.6875 684.469C71.4479 684.469 72.0938 684.596 72.625 684.852C73.1562 685.107 73.5599 685.469 73.8359 685.938C74.1172 686.406 74.2578 686.961 74.2578 687.602C74.2578 687.956 74.2005 688.307 74.0859 688.656C73.9714 689.005 73.8073 689.354 73.5938 689.703C73.3854 690.047 73.138 690.393 72.8516 690.742C72.5651 691.086 72.25 691.435 71.9062 691.789L69.4453 694.5H74.6953ZM84.5781 689.359V691.219C84.5781 692.109 84.4896 692.87 84.3125 693.5C84.1406 694.125 83.8906 694.633 83.5625 695.023C83.2344 695.414 82.8411 695.701 82.3828 695.883C81.9297 696.065 81.4219 696.156 80.8594 696.156C80.4115 696.156 79.9948 696.099 79.6094 695.984C79.2292 695.87 78.8854 695.69 78.5781 695.445C78.2708 695.201 78.0078 694.885 77.7891 694.5C77.5755 694.109 77.4089 693.643 77.2891 693.102C77.1745 692.56 77.1172 691.932 77.1172 691.219V689.359C77.1172 688.464 77.2057 687.708 77.3828 687.094C77.5599 686.474 77.8125 685.971 78.1406 685.586C78.4688 685.195 78.8594 684.911 79.3125 684.734C79.7708 684.557 80.2812 684.469 80.8438 684.469C81.2969 684.469 81.7135 684.526 82.0938 684.641C82.4792 684.75 82.8229 684.924 83.125 685.164C83.4323 685.404 83.6927 685.716 83.9062 686.102C84.125 686.482 84.2917 686.943 84.4062 687.484C84.5208 688.021 84.5781 688.646 84.5781 689.359ZM82.6953 691.484V689.078C82.6953 688.625 82.6693 688.227 82.6172 687.883C82.5651 687.534 82.487 687.24 82.3828 687C82.2839 686.755 82.1589 686.557 82.0078 686.406C81.8568 686.25 81.6849 686.138 81.4922 686.07C81.2995 685.997 81.0833 685.961 80.8438 685.961C80.5521 685.961 80.2917 686.018 80.0625 686.133C79.8333 686.242 79.6406 686.419 79.4844 686.664C79.3281 686.909 79.2083 687.232 79.125 687.633C79.0469 688.029 79.0078 688.51 79.0078 689.078V691.484C79.0078 691.943 79.0339 692.346 79.0859 692.695C79.138 693.044 79.2161 693.344 79.3203 693.594C79.4245 693.839 79.5495 694.042 79.6953 694.203C79.8464 694.359 80.0182 694.474 80.2109 694.547C80.4089 694.62 80.625 694.656 80.8594 694.656C81.1562 694.656 81.4193 694.599 81.6484 694.484C81.8776 694.37 82.0703 694.188 82.2266 693.938C82.3828 693.682 82.5 693.352 82.5781 692.945C82.6562 692.539 82.6953 692.052 82.6953 691.484ZM100.055 689.375V690.93H94.0156V689.375H100.055ZM94.5 684.625V696H92.5391V684.625H94.5ZM101.562 684.625V696H99.6094V684.625H101.562ZM111.25 694.5V696H104.953V694.5H111.25ZM111.078 688.719L105.594 696H104.375V694.789L109.828 687.547H111.078V688.719ZM110.352 687.547V689.047H104.469V687.547H110.352Z" fill="#9B9B9B"/>
<path d="M88 13V673" stroke="#9B9B9B"/>
<path d="M291.75 663V673" stroke="#4F4747"/>
<path d="M264.867 684.586V696H262.984V686.82L260.195 687.766V686.211L264.641 684.586H264.867ZM277.234 689.359V691.219C277.234 692.109 277.146 692.87 276.969 693.5C276.797 694.125 276.547 694.633 276.219 695.023C275.891 695.414 275.497 695.701 275.039 695.883C274.586 696.065 274.078 696.156 273.516 696.156C273.068 696.156 272.651 696.099 272.266 695.984C271.885 695.87 271.542 695.69 271.234 695.445C270.927 695.201 270.664 694.885 270.445 694.5C270.232 694.109 270.065 693.643 269.945 693.102C269.831 692.56 269.773 691.932 269.773 691.219V689.359C269.773 688.464 269.862 687.708 270.039 687.094C270.216 686.474 270.469 685.971 270.797 685.586C271.125 685.195 271.516 684.911 271.969 684.734C272.427 684.557 272.938 684.469 273.5 684.469C273.953 684.469 274.37 684.526 274.75 684.641C275.135 684.75 275.479 684.924 275.781 685.164C276.089 685.404 276.349 685.716 276.562 686.102C276.781 686.482 276.948 686.943 277.062 687.484C277.177 688.021 277.234 688.646 277.234 689.359ZM275.352 691.484V689.078C275.352 688.625 275.326 688.227 275.273 687.883C275.221 687.534 275.143 687.24 275.039 687C274.94 686.755 274.815 686.557 274.664 686.406C274.513 686.25 274.341 686.138 274.148 686.07C273.956 685.997 273.74 685.961 273.5 685.961C273.208 685.961 272.948 686.018 272.719 686.133C272.49 686.242 272.297 686.419 272.141 686.664C271.984 686.909 271.865 687.232 271.781 687.633C271.703 688.029 271.664 688.51 271.664 689.078V691.484C271.664 691.943 271.69 692.346 271.742 692.695C271.794 693.044 271.872 693.344 271.977 693.594C272.081 693.839 272.206 694.042 272.352 694.203C272.503 694.359 272.674 694.474 272.867 694.547C273.065 694.62 273.281 694.656 273.516 694.656C273.812 694.656 274.076 694.599 274.305 694.484C274.534 694.37 274.727 694.188 274.883 693.938C275.039 693.682 275.156 693.352 275.234 692.945C275.312 692.539 275.352 692.052 275.352 691.484ZM287.328 689.359V691.219C287.328 692.109 287.24 692.87 287.062 693.5C286.891 694.125 286.641 694.633 286.312 695.023C285.984 695.414 285.591 695.701 285.133 695.883C284.68 696.065 284.172 696.156 283.609 696.156C283.161 696.156 282.745 696.099 282.359 695.984C281.979 695.87 281.635 695.69 281.328 695.445C281.021 695.201 280.758 694.885 280.539 694.5C280.326 694.109 280.159 693.643 280.039 693.102C279.924 692.56 279.867 691.932 279.867 691.219V689.359C279.867 688.464 279.956 687.708 280.133 687.094C280.31 686.474 280.562 685.971 280.891 685.586C281.219 685.195 281.609 684.911 282.062 684.734C282.521 684.557 283.031 684.469 283.594 684.469C284.047 684.469 284.464 684.526 284.844 684.641C285.229 684.75 285.573 684.924 285.875 685.164C286.182 685.404 286.443 685.716 286.656 686.102C286.875 686.482 287.042 686.943 287.156 687.484C287.271 688.021 287.328 688.646 287.328 689.359ZM285.445 691.484V689.078C285.445 688.625 285.419 688.227 285.367 687.883C285.315 687.534 285.237 687.24 285.133 687C285.034 686.755 284.909 686.557 284.758 686.406C284.607 686.25 284.435 686.138 284.242 686.07C284.049 685.997 283.833 685.961 283.594 685.961C283.302 685.961 283.042 686.018 282.812 686.133C282.583 686.242 282.391 686.419 282.234 686.664C282.078 686.909 281.958 687.232 281.875 687.633C281.797 688.029 281.758 688.51 281.758 689.078V691.484C281.758 691.943 281.784 692.346 281.836 692.695C281.888 693.044 281.966 693.344 282.07 693.594C282.174 693.839 282.299 694.042 282.445 694.203C282.596 694.359 282.768 694.474 282.961 694.547C283.159 694.62 283.375 694.656 283.609 694.656C283.906 694.656 284.169 694.599 284.398 694.484C284.628 694.37 284.82 694.188 284.977 693.938C285.133 693.682 285.25 693.352 285.328 692.945C285.406 692.539 285.445 692.052 285.445 691.484ZM297.422 689.359V691.219C297.422 692.109 297.333 692.87 297.156 693.5C296.984 694.125 296.734 694.633 296.406 695.023C296.078 695.414 295.685 695.701 295.227 695.883C294.773 696.065 294.266 696.156 293.703 696.156C293.255 696.156 292.839 696.099 292.453 695.984C292.073 695.87 291.729 695.69 291.422 695.445C291.115 695.201 290.852 694.885 290.633 694.5C290.419 694.109 290.253 693.643 290.133 693.102C290.018 692.56 289.961 691.932 289.961 691.219V689.359C289.961 688.464 290.049 687.708 290.227 687.094C290.404 686.474 290.656 685.971 290.984 685.586C291.312 685.195 291.703 684.911 292.156 684.734C292.615 684.557 293.125 684.469 293.688 684.469C294.141 684.469 294.557 684.526 294.938 684.641C295.323 684.75 295.667 684.924 295.969 685.164C296.276 685.404 296.536 685.716 296.75 686.102C296.969 686.482 297.135 686.943 297.25 687.484C297.365 688.021 297.422 688.646 297.422 689.359ZM295.539 691.484V689.078C295.539 688.625 295.513 688.227 295.461 687.883C295.409 687.534 295.331 687.24 295.227 687C295.128 686.755 295.003 686.557 294.852 686.406C294.701 686.25 294.529 686.138 294.336 686.07C294.143 685.997 293.927 685.961 293.688 685.961C293.396 685.961 293.135 686.018 292.906 686.133C292.677 686.242 292.484 686.419 292.328 686.664C292.172 686.909 292.052 687.232 291.969 687.633C291.891 688.029 291.852 688.51 291.852 689.078V691.484C291.852 691.943 291.878 692.346 291.93 692.695C291.982 693.044 292.06 693.344 292.164 693.594C292.268 693.839 292.393 694.042 292.539 694.203C292.69 694.359 292.862 694.474 293.055 694.547C293.253 694.62 293.469 694.656 293.703 694.656C294 694.656 294.263 694.599 294.492 694.484C294.721 694.37 294.914 694.188 295.07 693.938C295.227 693.682 295.344 693.352 295.422 692.945C295.5 692.539 295.539 692.052 295.539 691.484ZM312.898 689.375V690.93H306.859V689.375H312.898ZM307.344 684.625V696H305.383V684.625H307.344ZM314.406 684.625V696H312.453V684.625H314.406ZM324.094 694.5V696H317.797V694.5H324.094ZM323.922 688.719L318.438 696H317.219V694.789L322.672 687.547H323.922V688.719ZM323.195 687.547V689.047H317.312V687.547H323.195Z" fill="#9B9B9B"/>
<path d="M290.75 13V673" stroke="#9B9B9B"/>
<path d="M592.5 663V673" stroke="#4F4747"/>
<path d="M568.312 691.945V693.445H560.109L560.047 692.312L564.953 684.625H566.461L564.828 687.422L562.008 691.945H568.312ZM566.891 684.625V696H565.008V684.625H566.891ZM577.984 689.359V691.219C577.984 692.109 577.896 692.87 577.719 693.5C577.547 694.125 577.297 694.633 576.969 695.023C576.641 695.414 576.247 695.701 575.789 695.883C575.336 696.065 574.828 696.156 574.266 696.156C573.818 696.156 573.401 696.099 573.016 695.984C572.635 695.87 572.292 695.69 571.984 695.445C571.677 695.201 571.414 694.885 571.195 694.5C570.982 694.109 570.815 693.643 570.695 693.102C570.581 692.56 570.523 691.932 570.523 691.219V689.359C570.523 688.464 570.612 687.708 570.789 687.094C570.966 686.474 571.219 685.971 571.547 685.586C571.875 685.195 572.266 684.911 572.719 684.734C573.177 684.557 573.688 684.469 574.25 684.469C574.703 684.469 575.12 684.526 575.5 684.641C575.885 684.75 576.229 684.924 576.531 685.164C576.839 685.404 577.099 685.716 577.312 686.102C577.531 686.482 577.698 686.943 577.812 687.484C577.927 688.021 577.984 688.646 577.984 689.359ZM576.102 691.484V689.078C576.102 688.625 576.076 688.227 576.023 687.883C575.971 687.534 575.893 687.24 575.789 687C575.69 686.755 575.565 686.557 575.414 686.406C575.263 686.25 575.091 686.138 574.898 686.07C574.706 685.997 574.49 685.961 574.25 685.961C573.958 685.961 573.698 686.018 573.469 686.133C573.24 686.242 573.047 686.419 572.891 686.664C572.734 686.909 572.615 687.232 572.531 687.633C572.453 688.029 572.414 688.51 572.414 689.078V691.484C572.414 691.943 572.44 692.346 572.492 692.695C572.544 693.044 572.622 693.344 572.727 693.594C572.831 693.839 572.956 694.042 573.102 694.203C573.253 694.359 573.424 694.474 573.617 694.547C573.815 694.62 574.031 694.656 574.266 694.656C574.562 694.656 574.826 694.599 575.055 694.484C575.284 694.37 575.477 694.188 575.633 693.938C575.789 693.682 575.906 693.352 575.984 692.945C576.062 692.539 576.102 692.052 576.102 691.484ZM588.078 689.359V691.219C588.078 692.109 587.99 692.87 587.812 693.5C587.641 694.125 587.391 694.633 587.062 695.023C586.734 695.414 586.341 695.701 585.883 695.883C585.43 696.065 584.922 696.156 584.359 696.156C583.911 696.156 583.495 696.099 583.109 695.984C582.729 695.87 582.385 695.69 582.078 695.445C581.771 695.201 581.508 694.885 581.289 694.5C581.076 694.109 580.909 693.643 580.789 693.102C580.674 692.56 580.617 691.932 580.617 691.219V689.359C580.617 688.464 580.706 687.708 580.883 687.094C581.06 686.474 581.312 685.971 581.641 685.586C581.969 685.195 582.359 684.911 582.812 684.734C583.271 684.557 583.781 684.469 584.344 684.469C584.797 684.469 585.214 684.526 585.594 684.641C585.979 684.75 586.323 684.924 586.625 685.164C586.932 685.404 587.193 685.716 587.406 686.102C587.625 686.482 587.792 686.943 587.906 687.484C588.021 688.021 588.078 688.646 588.078 689.359ZM586.195 691.484V689.078C586.195 688.625 586.169 688.227 586.117 687.883C586.065 687.534 585.987 687.24 585.883 687C585.784 686.755 585.659 686.557 585.508 686.406C585.357 686.25 585.185 686.138 584.992 686.07C584.799 685.997 584.583 685.961 584.344 685.961C584.052 685.961 583.792 686.018 583.562 686.133C583.333 686.242 583.141 686.419 582.984 686.664C582.828 686.909 582.708 687.232 582.625 687.633C582.547 688.029 582.508 688.51 582.508 689.078V691.484C582.508 691.943 582.534 692.346 582.586 692.695C582.638 693.044 582.716 693.344 582.82 693.594C582.924 693.839 583.049 694.042 583.195 694.203C583.346 694.359 583.518 694.474 583.711 694.547C583.909 694.62 584.125 694.656 584.359 694.656C584.656 694.656 584.919 694.599 585.148 694.484C585.378 694.37 585.57 694.188 585.727 693.938C585.883 693.682 586 693.352 586.078 692.945C586.156 692.539 586.195 692.052 586.195 691.484ZM598.172 689.359V691.219C598.172 692.109 598.083 692.87 597.906 693.5C597.734 694.125 597.484 694.633 597.156 695.023C596.828 695.414 596.435 695.701 595.977 695.883C595.523 696.065 595.016 696.156 594.453 696.156C594.005 696.156 593.589 696.099 593.203 695.984C592.823 695.87 592.479 695.69 592.172 695.445C591.865 695.201 591.602 694.885 591.383 694.5C591.169 694.109 591.003 693.643 590.883 693.102C590.768 692.56 590.711 691.932 590.711 691.219V689.359C590.711 688.464 590.799 687.708 590.977 687.094C591.154 686.474 591.406 685.971 591.734 685.586C592.062 685.195 592.453 684.911 592.906 684.734C593.365 684.557 593.875 684.469 594.438 684.469C594.891 684.469 595.307 684.526 595.688 684.641C596.073 684.75 596.417 684.924 596.719 685.164C597.026 685.404 597.286 685.716 597.5 686.102C597.719 686.482 597.885 686.943 598 687.484C598.115 688.021 598.172 688.646 598.172 689.359ZM596.289 691.484V689.078C596.289 688.625 596.263 688.227 596.211 687.883C596.159 687.534 596.081 687.24 595.977 687C595.878 686.755 595.753 686.557 595.602 686.406C595.451 686.25 595.279 686.138 595.086 686.07C594.893 685.997 594.677 685.961 594.438 685.961C594.146 685.961 593.885 686.018 593.656 686.133C593.427 686.242 593.234 686.419 593.078 686.664C592.922 686.909 592.802 687.232 592.719 687.633C592.641 688.029 592.602 688.51 592.602 689.078V691.484C592.602 691.943 592.628 692.346 592.68 692.695C592.732 693.044 592.81 693.344 592.914 693.594C593.018 693.839 593.143 694.042 593.289 694.203C593.44 694.359 593.612 694.474 593.805 694.547C594.003 694.62 594.219 694.656 594.453 694.656C594.75 694.656 595.013 694.599 595.242 694.484C595.471 694.37 595.664 694.188 595.82 693.938C595.977 693.682 596.094 693.352 596.172 692.945C596.25 692.539 596.289 692.052 596.289 691.484ZM613.648 689.375V690.93H607.609V689.375H613.648ZM608.094 684.625V696H606.133V684.625H608.094ZM615.156 684.625V696H613.203V684.625H615.156ZM624.844 694.5V696H618.547V694.5H624.844ZM624.672 688.719L619.188 696H617.969V694.789L623.422 687.547H624.672V688.719ZM623.945 687.547V689.047H618.062V687.547H623.945Z" fill="#9B9B9B"/>
<path d="M591.5 13V673" stroke="#9B9B9B"/>
<path d="M905.25 663V673" stroke="#4F4747"/>
<path d="M880.664 692.898C880.664 693.607 880.5 694.203 880.172 694.688C879.844 695.172 879.396 695.539 878.828 695.789C878.266 696.034 877.63 696.156 876.922 696.156C876.214 696.156 875.576 696.034 875.008 695.789C874.44 695.539 873.992 695.172 873.664 694.688C873.336 694.203 873.172 693.607 873.172 692.898C873.172 692.43 873.263 692.005 873.445 691.625C873.628 691.24 873.885 690.909 874.219 690.633C874.557 690.352 874.953 690.135 875.406 689.984C875.865 689.833 876.365 689.758 876.906 689.758C877.625 689.758 878.268 689.891 878.836 690.156C879.404 690.422 879.849 690.789 880.172 691.258C880.5 691.727 880.664 692.273 880.664 692.898ZM878.773 692.805C878.773 692.424 878.695 692.091 878.539 691.805C878.383 691.518 878.164 691.297 877.883 691.141C877.602 690.984 877.276 690.906 876.906 690.906C876.531 690.906 876.206 690.984 875.93 691.141C875.654 691.297 875.438 691.518 875.281 691.805C875.13 692.091 875.055 692.424 875.055 692.805C875.055 693.19 875.13 693.523 875.281 693.805C875.432 694.081 875.648 694.292 875.93 694.438C876.211 694.583 876.542 694.656 876.922 694.656C877.302 694.656 877.63 694.583 877.906 694.438C878.182 694.292 878.396 694.081 878.547 693.805C878.698 693.523 878.773 693.19 878.773 692.805ZM880.406 687.617C880.406 688.185 880.255 688.69 879.953 689.133C879.656 689.576 879.245 689.924 878.719 690.18C878.193 690.43 877.594 690.555 876.922 690.555C876.245 690.555 875.641 690.43 875.109 690.18C874.583 689.924 874.169 689.576 873.867 689.133C873.57 688.69 873.422 688.185 873.422 687.617C873.422 686.94 873.57 686.37 873.867 685.906C874.169 685.438 874.583 685.081 875.109 684.836C875.635 684.591 876.237 684.469 876.914 684.469C877.591 684.469 878.193 684.591 878.719 684.836C879.245 685.081 879.656 685.438 879.953 685.906C880.255 686.37 880.406 686.94 880.406 687.617ZM878.523 687.68C878.523 687.341 878.456 687.044 878.32 686.789C878.19 686.529 878.005 686.326 877.766 686.18C877.526 686.034 877.242 685.961 876.914 685.961C876.586 685.961 876.302 686.031 876.062 686.172C875.823 686.312 875.638 686.51 875.508 686.766C875.378 687.021 875.312 687.326 875.312 687.68C875.312 688.029 875.378 688.333 875.508 688.594C875.638 688.849 875.823 689.049 876.062 689.195C876.307 689.341 876.594 689.414 876.922 689.414C877.25 689.414 877.534 689.341 877.773 689.195C878.013 689.049 878.198 688.849 878.328 688.594C878.458 688.333 878.523 688.029 878.523 687.68ZM890.734 689.359V691.219C890.734 692.109 890.646 692.87 890.469 693.5C890.297 694.125 890.047 694.633 889.719 695.023C889.391 695.414 888.997 695.701 888.539 695.883C888.086 696.065 887.578 696.156 887.016 696.156C886.568 696.156 886.151 696.099 885.766 695.984C885.385 695.87 885.042 695.69 884.734 695.445C884.427 695.201 884.164 694.885 883.945 694.5C883.732 694.109 883.565 693.643 883.445 693.102C883.331 692.56 883.273 691.932 883.273 691.219V689.359C883.273 688.464 883.362 687.708 883.539 687.094C883.716 686.474 883.969 685.971 884.297 685.586C884.625 685.195 885.016 684.911 885.469 684.734C885.927 684.557 886.438 684.469 887 684.469C887.453 684.469 887.87 684.526 888.25 684.641C888.635 684.75 888.979 684.924 889.281 685.164C889.589 685.404 889.849 685.716 890.062 686.102C890.281 686.482 890.448 686.943 890.562 687.484C890.677 688.021 890.734 688.646 890.734 689.359ZM888.852 691.484V689.078C888.852 688.625 888.826 688.227 888.773 687.883C888.721 687.534 888.643 687.24 888.539 687C888.44 686.755 888.315 686.557 888.164 686.406C888.013 686.25 887.841 686.138 887.648 686.07C887.456 685.997 887.24 685.961 887 685.961C886.708 685.961 886.448 686.018 886.219 686.133C885.99 686.242 885.797 686.419 885.641 686.664C885.484 686.909 885.365 687.232 885.281 687.633C885.203 688.029 885.164 688.51 885.164 689.078V691.484C885.164 691.943 885.19 692.346 885.242 692.695C885.294 693.044 885.372 693.344 885.477 693.594C885.581 693.839 885.706 694.042 885.852 694.203C886.003 694.359 886.174 694.474 886.367 694.547C886.565 694.62 886.781 694.656 887.016 694.656C887.312 694.656 887.576 694.599 887.805 694.484C888.034 694.37 888.227 694.188 888.383 693.938C888.539 693.682 888.656 693.352 888.734 692.945C888.812 692.539 888.852 692.052 888.852 691.484ZM900.828 689.359V691.219C900.828 692.109 900.74 692.87 900.562 693.5C900.391 694.125 900.141 694.633 899.812 695.023C899.484 695.414 899.091 695.701 898.633 695.883C898.18 696.065 897.672 696.156 897.109 696.156C896.661 696.156 896.245 696.099 895.859 695.984C895.479 695.87 895.135 695.69 894.828 695.445C894.521 695.201 894.258 694.885 894.039 694.5C893.826 694.109 893.659 693.643 893.539 693.102C893.424 692.56 893.367 691.932 893.367 691.219V689.359C893.367 688.464 893.456 687.708 893.633 687.094C893.81 686.474 894.062 685.971 894.391 685.586C894.719 685.195 895.109 684.911 895.562 684.734C896.021 684.557 896.531 684.469 897.094 684.469C897.547 684.469 897.964 684.526 898.344 684.641C898.729 684.75 899.073 684.924 899.375 685.164C899.682 685.404 899.943 685.716 900.156 686.102C900.375 686.482 900.542 686.943 900.656 687.484C900.771 688.021 900.828 688.646 900.828 689.359ZM898.945 691.484V689.078C898.945 688.625 898.919 688.227 898.867 687.883C898.815 687.534 898.737 687.24 898.633 687C898.534 686.755 898.409 686.557 898.258 686.406C898.107 686.25 897.935 686.138 897.742 686.07C897.549 685.997 897.333 685.961 897.094 685.961C896.802 685.961 896.542 686.018 896.312 686.133C896.083 686.242 895.891 686.419 895.734 686.664C895.578 686.909 895.458 687.232 895.375 687.633C895.297 688.029 895.258 688.51 895.258 689.078V691.484C895.258 691.943 895.284 692.346 895.336 692.695C895.388 693.044 895.466 693.344 895.57 693.594C895.674 693.839 895.799 694.042 895.945 694.203C896.096 694.359 896.268 694.474 896.461 694.547C896.659 694.62 896.875 694.656 897.109 694.656C897.406 694.656 897.669 694.599 897.898 694.484C898.128 694.37 898.32 694.188 898.477 693.938C898.633 693.682 898.75 693.352 898.828 692.945C898.906 692.539 898.945 692.052 898.945 691.484ZM910.922 689.359V691.219C910.922 692.109 910.833 692.87 910.656 693.5C910.484 694.125 910.234 694.633 909.906 695.023C909.578 695.414 909.185 695.701 908.727 695.883C908.273 696.065 907.766 696.156 907.203 696.156C906.755 696.156 906.339 696.099 905.953 695.984C905.573 695.87 905.229 695.69 904.922 695.445C904.615 695.201 904.352 694.885 904.133 694.5C903.919 694.109 903.753 693.643 903.633 693.102C903.518 692.56 903.461 691.932 903.461 691.219V689.359C903.461 688.464 903.549 687.708 903.727 687.094C903.904 686.474 904.156 685.971 904.484 685.586C904.812 685.195 905.203 684.911 905.656 684.734C906.115 684.557 906.625 684.469 907.188 684.469C907.641 684.469 908.057 684.526 908.438 684.641C908.823 684.75 909.167 684.924 909.469 685.164C909.776 685.404 910.036 685.716 910.25 686.102C910.469 686.482 910.635 686.943 910.75 687.484C910.865 688.021 910.922 688.646 910.922 689.359ZM909.039 691.484V689.078C909.039 688.625 909.013 688.227 908.961 687.883C908.909 687.534 908.831 687.24 908.727 687C908.628 686.755 908.503 686.557 908.352 686.406C908.201 686.25 908.029 686.138 907.836 686.07C907.643 685.997 907.427 685.961 907.188 685.961C906.896 685.961 906.635 686.018 906.406 686.133C906.177 686.242 905.984 686.419 905.828 686.664C905.672 686.909 905.552 687.232 905.469 687.633C905.391 688.029 905.352 688.51 905.352 689.078V691.484C905.352 691.943 905.378 692.346 905.43 692.695C905.482 693.044 905.56 693.344 905.664 693.594C905.768 693.839 905.893 694.042 906.039 694.203C906.19 694.359 906.362 694.474 906.555 694.547C906.753 694.62 906.969 694.656 907.203 694.656C907.5 694.656 907.763 694.599 907.992 694.484C908.221 694.37 908.414 694.188 908.57 693.938C908.727 693.682 908.844 693.352 908.922 692.945C909 692.539 909.039 692.052 909.039 691.484ZM926.398 689.375V690.93H920.359V689.375H926.398ZM920.844 684.625V696H918.883V684.625H920.844ZM927.906 684.625V696H925.953V684.625H927.906ZM937.594 694.5V696H931.297V694.5H937.594ZM937.422 688.719L931.938 696H930.719V694.789L936.172 687.547H937.422V688.719ZM936.695 687.547V689.047H930.812V687.547H936.695Z" fill="#9B9B9B"/>
<path d="M904.25 13V673" stroke="#9B9B9B"/>
<path d="M1185.5 663V673" stroke="#4F4747"/>
<path d="M1151.08 684.586V696H1149.2V686.82L1146.41 687.766V686.211L1150.85 684.586H1151.08ZM1163.45 689.359V691.219C1163.45 692.109 1163.36 692.87 1163.18 693.5C1163.01 694.125 1162.76 694.633 1162.43 695.023C1162.1 695.414 1161.71 695.701 1161.25 695.883C1160.8 696.065 1160.29 696.156 1159.73 696.156C1159.28 696.156 1158.86 696.099 1158.48 695.984C1158.1 695.87 1157.75 695.69 1157.45 695.445C1157.14 695.201 1156.88 694.885 1156.66 694.5C1156.44 694.109 1156.28 693.643 1156.16 693.102C1156.04 692.56 1155.98 691.932 1155.98 691.219V689.359C1155.98 688.464 1156.07 687.708 1156.25 687.094C1156.43 686.474 1156.68 685.971 1157.01 685.586C1157.34 685.195 1157.73 684.911 1158.18 684.734C1158.64 684.557 1159.15 684.469 1159.71 684.469C1160.16 684.469 1160.58 684.526 1160.96 684.641C1161.35 684.75 1161.69 684.924 1161.99 685.164C1162.3 685.404 1162.56 685.716 1162.77 686.102C1162.99 686.482 1163.16 686.943 1163.27 687.484C1163.39 688.021 1163.45 688.646 1163.45 689.359ZM1161.56 691.484V689.078C1161.56 688.625 1161.54 688.227 1161.48 687.883C1161.43 687.534 1161.35 687.24 1161.25 687C1161.15 686.755 1161.03 686.557 1160.88 686.406C1160.72 686.25 1160.55 686.138 1160.36 686.07C1160.17 685.997 1159.95 685.961 1159.71 685.961C1159.42 685.961 1159.16 686.018 1158.93 686.133C1158.7 686.242 1158.51 686.419 1158.35 686.664C1158.2 686.909 1158.08 687.232 1157.99 687.633C1157.91 688.029 1157.88 688.51 1157.88 689.078V691.484C1157.88 691.943 1157.9 692.346 1157.95 692.695C1158.01 693.044 1158.08 693.344 1158.19 693.594C1158.29 693.839 1158.42 694.042 1158.56 694.203C1158.71 694.359 1158.89 694.474 1159.08 694.547C1159.28 694.62 1159.49 694.656 1159.73 694.656C1160.02 694.656 1160.29 694.599 1160.52 694.484C1160.74 694.37 1160.94 694.188 1161.09 693.938C1161.25 693.682 1161.37 693.352 1161.45 692.945C1161.52 692.539 1161.56 692.052 1161.56 691.484ZM1178.52 689.359V691.219C1178.52 692.109 1178.43 692.87 1178.26 693.5C1178.09 694.125 1177.84 694.633 1177.51 695.023C1177.18 695.414 1176.79 695.701 1176.33 695.883C1175.88 696.065 1175.37 696.156 1174.8 696.156C1174.36 696.156 1173.94 696.099 1173.55 695.984C1173.17 695.87 1172.83 695.69 1172.52 695.445C1172.22 695.201 1171.95 694.885 1171.73 694.5C1171.52 694.109 1171.35 693.643 1171.23 693.102C1171.12 692.56 1171.06 691.932 1171.06 691.219V689.359C1171.06 688.464 1171.15 687.708 1171.33 687.094C1171.51 686.474 1171.76 685.971 1172.09 685.586C1172.41 685.195 1172.8 684.911 1173.26 684.734C1173.72 684.557 1174.23 684.469 1174.79 684.469C1175.24 684.469 1175.66 684.526 1176.04 684.641C1176.42 684.75 1176.77 684.924 1177.07 685.164C1177.38 685.404 1177.64 685.716 1177.85 686.102C1178.07 686.482 1178.24 686.943 1178.35 687.484C1178.47 688.021 1178.52 688.646 1178.52 689.359ZM1176.64 691.484V689.078C1176.64 688.625 1176.61 688.227 1176.56 687.883C1176.51 687.534 1176.43 687.24 1176.33 687C1176.23 686.755 1176.1 686.557 1175.95 686.406C1175.8 686.25 1175.63 686.138 1175.44 686.07C1175.24 685.997 1175.03 685.961 1174.79 685.961C1174.5 685.961 1174.24 686.018 1174.01 686.133C1173.78 686.242 1173.59 686.419 1173.43 686.664C1173.27 686.909 1173.15 687.232 1173.07 687.633C1172.99 688.029 1172.95 688.51 1172.95 689.078V691.484C1172.95 691.943 1172.98 692.346 1173.03 692.695C1173.08 693.044 1173.16 693.344 1173.27 693.594C1173.37 693.839 1173.49 694.042 1173.64 694.203C1173.79 694.359 1173.96 694.474 1174.16 694.547C1174.35 694.62 1174.57 694.656 1174.8 694.656C1175.1 694.656 1175.36 694.599 1175.59 694.484C1175.82 694.37 1176.02 694.188 1176.17 693.938C1176.33 693.682 1176.45 693.352 1176.52 692.945C1176.6 692.539 1176.64 692.052 1176.64 691.484ZM1188.62 689.359V691.219C1188.62 692.109 1188.53 692.87 1188.35 693.5C1188.18 694.125 1187.93 694.633 1187.6 695.023C1187.27 695.414 1186.88 695.701 1186.42 695.883C1185.97 696.065 1185.46 696.156 1184.9 696.156C1184.45 696.156 1184.03 696.099 1183.65 695.984C1183.27 695.87 1182.92 695.69 1182.62 695.445C1182.31 695.201 1182.05 694.885 1181.83 694.5C1181.61 694.109 1181.45 693.643 1181.33 693.102C1181.21 692.56 1181.16 691.932 1181.16 691.219V689.359C1181.16 688.464 1181.24 687.708 1181.42 687.094C1181.6 686.474 1181.85 685.971 1182.18 685.586C1182.51 685.195 1182.9 684.911 1183.35 684.734C1183.81 684.557 1184.32 684.469 1184.88 684.469C1185.34 684.469 1185.75 684.526 1186.13 684.641C1186.52 684.75 1186.86 684.924 1187.16 685.164C1187.47 685.404 1187.73 685.716 1187.95 686.102C1188.16 686.482 1188.33 686.943 1188.45 687.484C1188.56 688.021 1188.62 688.646 1188.62 689.359ZM1186.73 691.484V689.078C1186.73 688.625 1186.71 688.227 1186.66 687.883C1186.6 687.534 1186.53 687.24 1186.42 687C1186.32 686.755 1186.2 686.557 1186.05 686.406C1185.9 686.25 1185.72 686.138 1185.53 686.07C1185.34 685.997 1185.12 685.961 1184.88 685.961C1184.59 685.961 1184.33 686.018 1184.1 686.133C1183.87 686.242 1183.68 686.419 1183.52 686.664C1183.37 686.909 1183.25 687.232 1183.16 687.633C1183.09 688.029 1183.05 688.51 1183.05 689.078V691.484C1183.05 691.943 1183.07 692.346 1183.12 692.695C1183.18 693.044 1183.26 693.344 1183.36 693.594C1183.46 693.839 1183.59 694.042 1183.73 694.203C1183.89 694.359 1184.06 694.474 1184.25 694.547C1184.45 694.62 1184.66 694.656 1184.9 694.656C1185.2 694.656 1185.46 694.599 1185.69 694.484C1185.92 694.37 1186.11 694.188 1186.27 693.938C1186.42 693.682 1186.54 693.352 1186.62 692.945C1186.7 692.539 1186.73 692.052 1186.73 691.484ZM1198.71 689.359V691.219C1198.71 692.109 1198.62 692.87 1198.45 693.5C1198.27 694.125 1198.02 694.633 1197.7 695.023C1197.37 695.414 1196.97 695.701 1196.52 695.883C1196.06 696.065 1195.55 696.156 1194.99 696.156C1194.54 696.156 1194.13 696.099 1193.74 695.984C1193.36 695.87 1193.02 695.69 1192.71 695.445C1192.4 695.201 1192.14 694.885 1191.92 694.5C1191.71 694.109 1191.54 693.643 1191.42 693.102C1191.31 692.56 1191.25 691.932 1191.25 691.219V689.359C1191.25 688.464 1191.34 687.708 1191.52 687.094C1191.69 686.474 1191.95 685.971 1192.27 685.586C1192.6 685.195 1192.99 684.911 1193.45 684.734C1193.9 684.557 1194.41 684.469 1194.98 684.469C1195.43 684.469 1195.85 684.526 1196.23 684.641C1196.61 684.75 1196.96 684.924 1197.26 685.164C1197.57 685.404 1197.83 685.716 1198.04 686.102C1198.26 686.482 1198.42 686.943 1198.54 687.484C1198.65 688.021 1198.71 688.646 1198.71 689.359ZM1196.83 691.484V689.078C1196.83 688.625 1196.8 688.227 1196.75 687.883C1196.7 687.534 1196.62 687.24 1196.52 687C1196.42 686.755 1196.29 686.557 1196.14 686.406C1195.99 686.25 1195.82 686.138 1195.62 686.07C1195.43 685.997 1195.22 685.961 1194.98 685.961C1194.68 685.961 1194.42 686.018 1194.2 686.133C1193.97 686.242 1193.77 686.419 1193.62 686.664C1193.46 686.909 1193.34 687.232 1193.26 687.633C1193.18 688.029 1193.14 688.51 1193.14 689.078V691.484C1193.14 691.943 1193.17 692.346 1193.22 692.695C1193.27 693.044 1193.35 693.344 1193.45 693.594C1193.56 693.839 1193.68 694.042 1193.83 694.203C1193.98 694.359 1194.15 694.474 1194.34 694.547C1194.54 694.62 1194.76 694.656 1194.99 694.656C1195.29 694.656 1195.55 694.599 1195.78 694.484C1196.01 694.37 1196.2 694.188 1196.36 693.938C1196.52 693.682 1196.63 693.352 1196.71 692.945C1196.79 692.539 1196.83 692.052 1196.83 691.484ZM1214.19 689.375V690.93H1208.15V689.375H1214.19ZM1208.63 684.625V696H1206.67V684.625H1208.63ZM1215.7 684.625V696H1213.74V684.625H1215.7ZM1225.38 694.5V696H1219.09V694.5H1225.38ZM1225.21 688.719L1219.73 696H1218.51V694.789L1223.96 687.547H1225.21V688.719ZM1224.48 687.547V689.047H1218.6V687.547H1224.48Z" fill="#9B9B9B"/>
<path d="M1185 13V673" stroke="#9B9B9B"/>
</svg>
