<svg width="160" height="28" viewBox="0 0 160 28" fill="none" xmlns="http://www.w3.org/2000/svg">
<path d="M11.1445 14.1602V16.4102H3.41016V14.1602H11.1445ZM4.20703 8.34766V22H1.38281V8.34766H4.20703ZM13.207 8.34766V22H10.3828V8.34766H13.207ZM20.0078 8.34766V22H17.1719V8.34766H20.0078ZM35.457 14.8516V20.2891C35.2305 20.5469 34.8867 20.8242 34.4258 21.1211C33.9648 21.418 33.3633 21.6719 32.6211 21.8828C31.8789 22.0859 30.9688 22.1875 29.8906 22.1875C28.9531 22.1875 28.0977 22.043 27.3242 21.7539C26.5586 21.457 25.8945 21.0273 25.332 20.4648C24.7695 19.9023 24.3359 19.2148 24.0312 18.4023C23.7344 17.582 23.5859 16.6484 23.5859 15.6016V14.7461C23.5859 13.6992 23.7305 12.7695 24.0195 11.957C24.3086 11.1367 24.7188 10.4453 25.25 9.88281C25.7891 9.32031 26.4336 8.89453 27.1836 8.60547C27.9336 8.30859 28.7695 8.16016 29.6914 8.16016C30.9414 8.16016 31.9688 8.35547 32.7734 8.74609C33.5859 9.12891 34.207 9.66016 34.6367 10.3398C35.0664 11.0195 35.3359 11.8008 35.4453 12.6836H32.6914C32.6133 12.2148 32.4648 11.8125 32.2461 11.4766C32.0273 11.1328 31.7148 10.8672 31.3086 10.6797C30.9102 10.4922 30.3945 10.3984 29.7617 10.3984C29.2305 10.3984 28.7539 10.4922 28.332 10.6797C27.918 10.8594 27.5664 11.1328 27.2773 11.5C26.9961 11.8672 26.7812 12.3203 26.6328 12.8594C26.4922 13.3906 26.4219 14.0117 26.4219 14.7227V15.6016C26.4219 16.3125 26.5 16.9414 26.6562 17.4883C26.8203 18.0273 27.0547 18.4805 27.3594 18.8477C27.6719 19.2148 28.0508 19.4922 28.4961 19.6797C28.9492 19.8594 29.4648 19.9492 30.043 19.9492C30.8164 19.9492 31.3984 19.8711 31.7891 19.7148C32.1797 19.5508 32.457 19.3984 32.6211 19.2578V16.8789H29.668V14.8516H35.457ZM48.6914 14.1602V16.4102H40.957V14.1602H48.6914ZM41.7539 8.34766V22H38.9297V8.34766H41.7539ZM50.7539 8.34766V22H47.9297V8.34766H50.7539ZM64.2812 19.7617V22H56.4648V19.7617H64.2812ZM57.3555 8.34766V22H54.5312V8.34766H57.3555ZM63.2734 13.8203V16.0586H56.4648V13.8203H63.2734ZM64.2578 8.34766V10.5977H56.4648V8.34766H64.2578ZM67.1445 8.34766H72.5234C73.3594 8.34766 74.1094 8.4375 74.7734 8.61719C75.4375 8.79688 76 9.0625 76.4609 9.41406C76.9297 9.75781 77.2852 10.1875 77.5273 10.7031C77.7773 11.2109 77.9023 11.8008 77.9023 12.4727C77.9023 13.2148 77.7695 13.8516 77.5039 14.3828C77.2383 14.9062 76.8633 15.3398 76.3789 15.6836C75.8945 16.0273 75.3242 16.3047 74.668 16.5156L73.7656 17.0078H69.0195L68.9961 14.7578H72.5586C73.1211 14.7578 73.5859 14.6719 73.9531 14.5C74.3203 14.3281 74.5977 14.0898 74.7852 13.7852C74.9727 13.4727 75.0664 13.1133 75.0664 12.707C75.0664 12.2773 74.9727 11.9062 74.7852 11.5938C74.6055 11.2734 74.3242 11.0273 73.9414 10.8555C73.5664 10.6836 73.0938 10.5977 72.5234 10.5977H69.9805V22H67.1445V8.34766ZM75.418 22L72.043 15.9531L75.0312 15.9297L78.4648 21.8711V22H75.418ZM95.9922 18.4258C95.9922 18.168 95.9453 17.9375 95.8516 17.7344C95.7656 17.5312 95.6133 17.3477 95.3945 17.1836C95.1836 17.0117 94.8906 16.8516 94.5156 16.7031C94.1484 16.5547 93.6836 16.4141 93.1211 16.2812C92.3086 16.0859 91.5898 15.8672 90.9648 15.625C90.3477 15.375 89.8281 15.0859 89.4062 14.7578C88.9844 14.4297 88.6641 14.043 88.4453 13.5977C88.2344 13.1523 88.1289 12.6328 88.1289 12.0391C88.1289 11.4688 88.2539 10.9492 88.5039 10.4805C88.7539 10.0039 89.1094 9.59375 89.5703 9.25C90.0312 8.89844 90.5781 8.62891 91.2109 8.44141C91.8438 8.25391 92.5391 8.16016 93.2969 8.16016C94.3984 8.16016 95.3555 8.33984 96.168 8.69922C96.9805 9.05859 97.6094 9.55469 98.0547 10.1875C98.5078 10.8125 98.7344 11.5391 98.7344 12.3672H95.9102C95.9102 11.9766 95.8086 11.625 95.6055 11.3125C95.4102 11 95.1211 10.75 94.7383 10.5625C94.3555 10.375 93.875 10.2812 93.2969 10.2812C92.7422 10.2812 92.2852 10.3633 91.9258 10.5273C91.5664 10.6836 91.2969 10.8906 91.1172 11.1484C90.9453 11.3984 90.8594 11.6719 90.8594 11.9688C90.8594 12.2031 90.9102 12.4141 91.0117 12.6016C91.1211 12.7891 91.293 12.9609 91.5273 13.1172C91.7617 13.2734 92.0664 13.4219 92.4414 13.5625C92.8164 13.7031 93.2734 13.8398 93.8125 13.9727C94.6172 14.1602 95.3281 14.3828 95.9453 14.6406C96.5625 14.8984 97.0781 15.2031 97.4922 15.5547C97.9062 15.8984 98.2148 16.3047 98.418 16.7734C98.6289 17.2344 98.7344 17.7617 98.7344 18.3555C98.7344 18.957 98.6094 19.4961 98.3594 19.9727C98.1094 20.4414 97.75 20.8398 97.2812 21.168C96.8203 21.4961 96.2656 21.75 95.6172 21.9297C94.9688 22.1016 94.2461 22.1875 93.4492 22.1875C92.7461 22.1875 92.0469 22.1016 91.3516 21.9297C90.6641 21.7578 90.043 21.4922 89.4883 21.1328C88.9336 20.7734 88.4883 20.3164 88.1523 19.7617C87.8242 19.1992 87.6602 18.5391 87.6602 17.7812H90.4961C90.4961 18.1875 90.5664 18.5391 90.707 18.8359C90.8555 19.125 91.0625 19.3633 91.3281 19.5508C91.6016 19.7305 91.9258 19.8633 92.3008 19.9492C92.6758 20.0352 93.0898 20.0781 93.543 20.0781C94.1133 20.0781 94.5781 20.0039 94.9375 19.8555C95.3047 19.6992 95.5703 19.4961 95.7344 19.2461C95.9062 18.9961 95.9922 18.7227 95.9922 18.4258ZM113.867 14.8516V15.5078C113.867 16.5469 113.719 17.4766 113.422 18.2969C113.125 19.1172 112.703 19.8203 112.156 20.4062C111.617 20.9844 110.969 21.4258 110.211 21.7305C109.453 22.0352 108.617 22.1875 107.703 22.1875C106.789 22.1875 105.953 22.0352 105.195 21.7305C104.438 21.4258 103.781 20.9844 103.227 20.4062C102.672 19.8203 102.242 19.1172 101.938 18.2969C101.641 17.4766 101.492 16.5469 101.492 15.5078V14.8516C101.492 13.8125 101.641 12.8828 101.938 12.0625C102.242 11.2422 102.668 10.5391 103.215 9.95312C103.762 9.36719 104.414 8.92188 105.172 8.61719C105.93 8.3125 106.766 8.16016 107.68 8.16016C108.602 8.16016 109.438 8.3125 110.188 8.61719C110.945 8.92188 111.598 9.36719 112.145 9.95312C112.699 10.5391 113.125 11.2422 113.422 12.0625C113.719 12.8828 113.867 13.8125 113.867 14.8516ZM111.043 15.5078V14.8281C111.043 14.1172 110.969 13.4883 110.82 12.9414C110.672 12.3945 110.449 11.9336 110.152 11.5586C109.863 11.1836 109.512 10.8984 109.098 10.7031C108.684 10.5078 108.211 10.4102 107.68 10.4102C107.156 10.4102 106.684 10.5078 106.262 10.7031C105.848 10.8984 105.496 11.1836 105.207 11.5586C104.926 11.9336 104.707 12.3945 104.551 12.9414C104.402 13.4883 104.328 14.1172 104.328 14.8281V15.5078C104.328 16.2109 104.402 16.8398 104.551 17.3945C104.707 17.9414 104.93 18.4062 105.219 18.7891C105.516 19.1641 105.871 19.4531 106.285 19.6562C106.707 19.8516 107.18 19.9492 107.703 19.9492C108.234 19.9492 108.703 19.8516 109.109 19.6562C109.523 19.4531 109.875 19.1641 110.164 18.7891C110.453 18.4062 110.672 17.9414 110.82 17.3945C110.969 16.8398 111.043 16.2109 111.043 15.5078ZM125.344 8.34766H128.18V17.3477C128.18 18.3945 127.938 19.2812 127.453 20.0078C126.969 20.7266 126.309 21.2695 125.473 21.6367C124.637 22.0039 123.684 22.1875 122.613 22.1875C121.527 22.1875 120.562 22.0039 119.719 21.6367C118.883 21.2695 118.227 20.7266 117.75 20.0078C117.273 19.2812 117.035 18.3945 117.035 17.3477V8.34766H119.848V17.3477C119.848 17.9492 119.957 18.4453 120.176 18.8359C120.402 19.2188 120.723 19.5 121.137 19.6797C121.551 19.8594 122.043 19.9492 122.613 19.9492C123.184 19.9492 123.672 19.8594 124.078 19.6797C124.484 19.5 124.797 19.2188 125.016 18.8359C125.234 18.4453 125.344 17.9492 125.344 17.3477V8.34766ZM143.605 8.34766V22H140.77L134.605 12.5898V22H131.781V8.34766H134.605L140.77 17.7578V8.34766H143.605ZM151.777 22H148.59L148.613 19.7617H151.777C152.676 19.7617 153.41 19.5977 153.98 19.2695C154.551 18.9336 154.969 18.4492 155.234 17.8164C155.508 17.1836 155.645 16.4141 155.645 15.5078V14.8281C155.645 14.1484 155.566 13.5469 155.41 13.0234C155.262 12.4922 155.031 12.0469 154.719 11.6875C154.406 11.3281 154.008 11.0586 153.523 10.8789C153.047 10.6914 152.48 10.5977 151.824 10.5977H148.531V8.34766H151.824C152.801 8.34766 153.695 8.50391 154.508 8.81641C155.328 9.12891 156.031 9.57422 156.617 10.1523C157.211 10.7227 157.668 11.4062 157.988 12.2031C158.316 13 158.48 13.8828 158.48 14.8516V15.5078C158.48 16.7969 158.195 17.9297 157.625 18.9062C157.062 19.8828 156.277 20.6445 155.27 21.1914C154.27 21.7305 153.105 22 151.777 22ZM150.184 8.34766V22H147.359V8.34766H150.184Z" fill="#9B9B9B"/>
</svg>
