<svg width="842" height="19" viewBox="0 0 842 19" fill="none" xmlns="http://www.w3.org/2000/svg">
<path d="M5.83594 3.625V15H3.89062V3.625H5.83594ZM9.40625 3.625V5.1875H0.351562V3.625H9.40625ZM13.5781 3V15H11.7031V3H13.5781ZM13.25 10.4609L12.6406 10.4531C12.6458 9.86979 12.7266 9.33073 12.8828 8.83594C13.0443 8.34115 13.2682 7.91146 13.5547 7.54688C13.8464 7.17708 14.1953 6.89323 14.6016 6.69531C15.0078 6.49219 15.4583 6.39062 15.9531 6.39062C16.3698 6.39062 16.7448 6.44792 17.0781 6.5625C17.4167 6.67708 17.7083 6.86198 17.9531 7.11719C18.1979 7.36719 18.3828 7.69531 18.5078 8.10156C18.638 8.5026 18.7031 8.99219 18.7031 9.57031V15H16.8125V9.55469C16.8125 9.14844 16.7526 8.82552 16.6328 8.58594C16.5182 8.34635 16.349 8.17448 16.125 8.07031C15.901 7.96094 15.6276 7.90625 15.3047 7.90625C14.9661 7.90625 14.6667 7.97396 14.4062 8.10938C14.151 8.24479 13.9375 8.42969 13.7656 8.66406C13.5938 8.89844 13.4635 9.16927 13.375 9.47656C13.2917 9.78385 13.25 10.112 13.25 10.4609ZM25.3359 15.1562C24.7109 15.1562 24.1458 15.0547 23.6406 14.8516C23.1406 14.6432 22.7135 14.3542 22.3594 13.9844C22.0104 13.6146 21.7422 13.1797 21.5547 12.6797C21.3672 12.1797 21.2734 11.6406 21.2734 11.0625V10.75C21.2734 10.0885 21.3698 9.48958 21.5625 8.95312C21.7552 8.41667 22.0234 7.95833 22.3672 7.57812C22.7109 7.19271 23.1172 6.89844 23.5859 6.69531C24.0547 6.49219 24.5625 6.39062 25.1094 6.39062C25.7135 6.39062 26.2422 6.49219 26.6953 6.69531C27.1484 6.89844 27.5234 7.1849 27.8203 7.55469C28.1224 7.91927 28.3464 8.35417 28.4922 8.85938C28.6432 9.36458 28.7188 9.92188 28.7188 10.5312V11.3359H22.1875V9.98438H26.8594V9.83594C26.849 9.4974 26.7812 9.17969 26.6562 8.88281C26.5365 8.58594 26.3516 8.34635 26.1016 8.16406C25.8516 7.98177 25.5182 7.89062 25.1016 7.89062C24.7891 7.89062 24.5104 7.95833 24.2656 8.09375C24.026 8.22396 23.8255 8.41406 23.6641 8.66406C23.5026 8.91406 23.3776 9.21615 23.2891 9.57031C23.2057 9.91927 23.1641 10.3125 23.1641 10.75V11.0625C23.1641 11.4323 23.2135 11.776 23.3125 12.0938C23.4167 12.4062 23.5677 12.6797 23.7656 12.9141C23.9635 13.1484 24.2031 13.3333 24.4844 13.4688C24.7656 13.599 25.0859 13.6641 25.4453 13.6641C25.8984 13.6641 26.3021 13.5729 26.6562 13.3906C27.0104 13.2083 27.3177 12.9505 27.5781 12.6172L28.5703 13.5781C28.388 13.8438 28.151 14.099 27.8594 14.3438C27.5677 14.5833 27.2109 14.7786 26.7891 14.9297C26.3724 15.0807 25.888 15.1562 25.3359 15.1562ZM42.3438 12.0703C42.3438 11.8359 42.3073 11.6276 42.2344 11.4453C42.1667 11.263 42.0443 11.0964 41.8672 10.9453C41.6901 10.7943 41.4401 10.6484 41.1172 10.5078C40.7995 10.362 40.3932 10.2135 39.8984 10.0625C39.3568 9.89583 38.8568 9.71094 38.3984 9.50781C37.9453 9.29948 37.5495 9.0599 37.2109 8.78906C36.8724 8.51302 36.6094 8.19792 36.4219 7.84375C36.2344 7.48438 36.1406 7.07031 36.1406 6.60156C36.1406 6.13802 36.237 5.71615 36.4297 5.33594C36.6276 4.95573 36.9062 4.6276 37.2656 4.35156C37.6302 4.07031 38.0599 3.85417 38.5547 3.70312C39.0495 3.54688 39.5964 3.46875 40.1953 3.46875C41.0391 3.46875 41.7656 3.625 42.375 3.9375C42.9896 4.25 43.4609 4.66927 43.7891 5.19531C44.1224 5.72135 44.2891 6.30208 44.2891 6.9375H42.3438C42.3438 6.5625 42.263 6.23177 42.1016 5.94531C41.9453 5.65365 41.7057 5.42448 41.3828 5.25781C41.0651 5.09115 40.6615 5.00781 40.1719 5.00781C39.7083 5.00781 39.3229 5.07812 39.0156 5.21875C38.7083 5.35938 38.4792 5.54948 38.3281 5.78906C38.1771 6.02865 38.1016 6.29948 38.1016 6.60156C38.1016 6.8151 38.151 7.01042 38.25 7.1875C38.349 7.35938 38.5 7.52083 38.7031 7.67188C38.9062 7.81771 39.1615 7.95573 39.4688 8.08594C39.776 8.21615 40.138 8.34115 40.5547 8.46094C41.1849 8.64844 41.7344 8.85677 42.2031 9.08594C42.6719 9.3099 43.0625 9.5651 43.375 9.85156C43.6875 10.138 43.9219 10.4635 44.0781 10.8281C44.2344 11.1875 44.3125 11.5964 44.3125 12.0547C44.3125 12.5339 44.2161 12.9661 44.0234 13.3516C43.8307 13.7318 43.5547 14.0573 43.1953 14.3281C42.8411 14.5938 42.4141 14.7995 41.9141 14.9453C41.4193 15.0859 40.8672 15.1562 40.2578 15.1562C39.7109 15.1562 39.1719 15.0833 38.6406 14.9375C38.1146 14.7917 37.6354 14.5703 37.2031 14.2734C36.7708 13.9714 36.4271 13.5964 36.1719 13.1484C35.9167 12.6953 35.7891 12.1667 35.7891 11.5625H37.75C37.75 11.9323 37.8125 12.2474 37.9375 12.5078C38.0677 12.7682 38.2474 12.9818 38.4766 13.1484C38.7057 13.3099 38.9714 13.4297 39.2734 13.5078C39.5807 13.5859 39.9089 13.625 40.2578 13.625C40.7161 13.625 41.099 13.5599 41.4062 13.4297C41.7188 13.2995 41.9531 13.1172 42.1094 12.8828C42.2656 12.6484 42.3438 12.3776 42.3438 12.0703ZM48.75 8.17188V18.25H46.8672V6.54688H48.6016L48.75 8.17188ZM54.2578 10.6953V10.8594C54.2578 11.474 54.1849 12.0443 54.0391 12.5703C53.8984 13.0911 53.6875 13.5469 53.4062 13.9375C53.1302 14.3229 52.7891 14.6224 52.3828 14.8359C51.9766 15.0495 51.5078 15.1562 50.9766 15.1562C50.4505 15.1562 49.9896 15.0599 49.5938 14.8672C49.2031 14.6693 48.8724 14.3906 48.6016 14.0312C48.3307 13.6719 48.112 13.25 47.9453 12.7656C47.7839 12.276 47.6693 11.7396 47.6016 11.1562V10.5234C47.6693 9.90365 47.7839 9.34115 47.9453 8.83594C48.112 8.33073 48.3307 7.89583 48.6016 7.53125C48.8724 7.16667 49.2031 6.88542 49.5938 6.6875C49.9844 6.48958 50.4401 6.39062 50.9609 6.39062C51.4922 6.39062 51.9635 6.49479 52.375 6.70312C52.7865 6.90625 53.1328 7.19792 53.4141 7.57812C53.6953 7.95312 53.9062 8.40625 54.0469 8.9375C54.1875 9.46354 54.2578 10.0495 54.2578 10.6953ZM52.375 10.8594V10.6953C52.375 10.3047 52.3385 9.94271 52.2656 9.60938C52.1927 9.27083 52.0781 8.97396 51.9219 8.71875C51.7656 8.46354 51.5651 8.26562 51.3203 8.125C51.0807 7.97917 50.7917 7.90625 50.4531 7.90625C50.1198 7.90625 49.8333 7.96354 49.5938 8.07812C49.3542 8.1875 49.1536 8.34115 48.9922 8.53906C48.8307 8.73698 48.7057 8.96875 48.6172 9.23438C48.5286 9.49479 48.4661 9.77865 48.4297 10.0859V11.6016C48.4922 11.9766 48.599 12.3203 48.75 12.6328C48.901 12.9453 49.1146 13.1953 49.3906 13.3828C49.6719 13.5651 50.0312 13.6562 50.4688 13.6562C50.8073 13.6562 51.0964 13.5833 51.3359 13.4375C51.5755 13.2917 51.7708 13.0911 51.9219 12.8359C52.0781 12.5755 52.1927 12.276 52.2656 11.9375C52.3385 11.599 52.375 11.2396 52.375 10.8594ZM60.5859 15.1562C59.9609 15.1562 59.3958 15.0547 58.8906 14.8516C58.3906 14.6432 57.9635 14.3542 57.6094 13.9844C57.2604 13.6146 56.9922 13.1797 56.8047 12.6797C56.6172 12.1797 56.5234 11.6406 56.5234 11.0625V10.75C56.5234 10.0885 56.6198 9.48958 56.8125 8.95312C57.0052 8.41667 57.2734 7.95833 57.6172 7.57812C57.9609 7.19271 58.3672 6.89844 58.8359 6.69531C59.3047 6.49219 59.8125 6.39062 60.3594 6.39062C60.9635 6.39062 61.4922 6.49219 61.9453 6.69531C62.3984 6.89844 62.7734 7.1849 63.0703 7.55469C63.3724 7.91927 63.5964 8.35417 63.7422 8.85938C63.8932 9.36458 63.9688 9.92188 63.9688 10.5312V11.3359H57.4375V9.98438H62.1094V9.83594C62.099 9.4974 62.0312 9.17969 61.9062 8.88281C61.7865 8.58594 61.6016 8.34635 61.3516 8.16406C61.1016 7.98177 60.7682 7.89062 60.3516 7.89062C60.0391 7.89062 59.7604 7.95833 59.5156 8.09375C59.276 8.22396 59.0755 8.41406 58.9141 8.66406C58.7526 8.91406 58.6276 9.21615 58.5391 9.57031C58.4557 9.91927 58.4141 10.3125 58.4141 10.75V11.0625C58.4141 11.4323 58.4635 11.776 58.5625 12.0938C58.6667 12.4062 58.8177 12.6797 59.0156 12.9141C59.2135 13.1484 59.4531 13.3333 59.7344 13.4688C60.0156 13.599 60.3359 13.6641 60.6953 13.6641C61.1484 13.6641 61.5521 13.5729 61.9062 13.3906C62.2604 13.2083 62.5677 12.9505 62.8281 12.6172L63.8203 13.5781C63.638 13.8438 63.401 14.099 63.1094 14.3438C62.8177 14.5833 62.4609 14.7786 62.0391 14.9297C61.6224 15.0807 61.138 15.1562 60.5859 15.1562ZM70.1641 15.1562C69.5391 15.1562 68.974 15.0547 68.4688 14.8516C67.9688 14.6432 67.5417 14.3542 67.1875 13.9844C66.8385 13.6146 66.5703 13.1797 66.3828 12.6797C66.1953 12.1797 66.1016 11.6406 66.1016 11.0625V10.75C66.1016 10.0885 66.1979 9.48958 66.3906 8.95312C66.5833 8.41667 66.8516 7.95833 67.1953 7.57812C67.5391 7.19271 67.9453 6.89844 68.4141 6.69531C68.8828 6.49219 69.3906 6.39062 69.9375 6.39062C70.5417 6.39062 71.0703 6.49219 71.5234 6.69531C71.9766 6.89844 72.3516 7.1849 72.6484 7.55469C72.9505 7.91927 73.1745 8.35417 73.3203 8.85938C73.4714 9.36458 73.5469 9.92188 73.5469 10.5312V11.3359H67.0156V9.98438H71.6875V9.83594C71.6771 9.4974 71.6094 9.17969 71.4844 8.88281C71.3646 8.58594 71.1797 8.34635 70.9297 8.16406C70.6797 7.98177 70.3464 7.89062 69.9297 7.89062C69.6172 7.89062 69.3385 7.95833 69.0938 8.09375C68.8542 8.22396 68.6536 8.41406 68.4922 8.66406C68.3307 8.91406 68.2057 9.21615 68.1172 9.57031C68.0339 9.91927 67.9922 10.3125 67.9922 10.75V11.0625C67.9922 11.4323 68.0417 11.776 68.1406 12.0938C68.2448 12.4062 68.3958 12.6797 68.5938 12.9141C68.7917 13.1484 69.0312 13.3333 69.3125 13.4688C69.5938 13.599 69.9141 13.6641 70.2734 13.6641C70.7266 13.6641 71.1302 13.5729 71.4844 13.3906C71.8385 13.2083 72.1458 12.9505 72.4062 12.6172L73.3984 13.5781C73.2161 13.8438 72.9792 14.099 72.6875 14.3438C72.3958 14.5833 72.0391 14.7786 71.6172 14.9297C71.2005 15.0807 70.7161 15.1562 70.1641 15.1562ZM79.4688 13.6562C79.776 13.6562 80.0521 13.5964 80.2969 13.4766C80.5469 13.3516 80.7474 13.1797 80.8984 12.9609C81.0547 12.7422 81.1406 12.4896 81.1562 12.2031H82.9297C82.9193 12.75 82.7578 13.2474 82.4453 13.6953C82.1328 14.1432 81.7188 14.5 81.2031 14.7656C80.6875 15.026 80.1172 15.1562 79.4922 15.1562C78.8464 15.1562 78.2839 15.0469 77.8047 14.8281C77.3255 14.6042 76.9271 14.2969 76.6094 13.9062C76.2917 13.5156 76.0521 13.0651 75.8906 12.5547C75.7344 12.0443 75.6562 11.4974 75.6562 10.9141V10.6406C75.6562 10.0573 75.7344 9.51042 75.8906 9C76.0521 8.48438 76.2917 8.03125 76.6094 7.64062C76.9271 7.25 77.3255 6.94531 77.8047 6.72656C78.2839 6.5026 78.8438 6.39062 79.4844 6.39062C80.1615 6.39062 80.7552 6.52604 81.2656 6.79688C81.776 7.0625 82.1771 7.4349 82.4688 7.91406C82.7656 8.38802 82.9193 8.9401 82.9297 9.57031H81.1562C81.1406 9.25781 81.0625 8.97656 80.9219 8.72656C80.7865 8.47135 80.5938 8.26823 80.3438 8.11719C80.099 7.96615 79.8047 7.89062 79.4609 7.89062C79.0807 7.89062 78.7656 7.96875 78.5156 8.125C78.2656 8.27604 78.0703 8.48438 77.9297 8.75C77.7891 9.01042 77.6875 9.30469 77.625 9.63281C77.5677 9.95573 77.5391 10.2917 77.5391 10.6406V10.9141C77.5391 11.263 77.5677 11.6016 77.625 11.9297C77.6823 12.2578 77.7812 12.5521 77.9219 12.8125C78.0677 13.0677 78.2656 13.2734 78.5156 13.4297C78.7656 13.5807 79.0833 13.6562 79.4688 13.6562ZM87.2344 3V15H85.3594V3H87.2344ZM86.9062 10.4609L86.2969 10.4531C86.3021 9.86979 86.3828 9.33073 86.5391 8.83594C86.7005 8.34115 86.9245 7.91146 87.2109 7.54688C87.5026 7.17708 87.8516 6.89323 88.2578 6.69531C88.6641 6.49219 89.1146 6.39062 89.6094 6.39062C90.026 6.39062 90.401 6.44792 90.7344 6.5625C91.0729 6.67708 91.3646 6.86198 91.6094 7.11719C91.8542 7.36719 92.0391 7.69531 92.1641 8.10156C92.2943 8.5026 92.3594 8.99219 92.3594 9.57031V15H90.4688V9.55469C90.4688 9.14844 90.4089 8.82552 90.2891 8.58594C90.1745 8.34635 90.0052 8.17448 89.7812 8.07031C89.5573 7.96094 89.2839 7.90625 88.9609 7.90625C88.6224 7.90625 88.3229 7.97396 88.0625 8.10938C87.8073 8.24479 87.5938 8.42969 87.4219 8.66406C87.25 8.89844 87.1198 9.16927 87.0312 9.47656C86.9479 9.78385 86.9062 10.112 86.9062 10.4609ZM100.258 3H102.141V13.1953L101.961 15H100.258V3ZM107.656 10.6953V10.8594C107.656 11.4844 107.586 12.0599 107.445 12.5859C107.31 13.1068 107.102 13.5599 106.82 13.9453C106.544 14.3307 106.201 14.6302 105.789 14.8438C105.383 15.0521 104.911 15.1562 104.375 15.1562C103.849 15.1562 103.391 15.0573 103 14.8594C102.609 14.6615 102.281 14.3802 102.016 14.0156C101.755 13.651 101.544 13.2161 101.383 12.7109C101.221 12.2057 101.107 11.6484 101.039 11.0391V10.5156C101.107 9.90104 101.221 9.34375 101.383 8.84375C101.544 8.33854 101.755 7.90365 102.016 7.53906C102.281 7.16927 102.607 6.88542 102.992 6.6875C103.383 6.48958 103.839 6.39062 104.359 6.39062C104.901 6.39062 105.378 6.49479 105.789 6.70312C106.206 6.91146 106.552 7.20833 106.828 7.59375C107.104 7.97396 107.31 8.42708 107.445 8.95312C107.586 9.47917 107.656 10.0599 107.656 10.6953ZM105.773 10.8594V10.6953C105.773 10.3151 105.742 9.95833 105.68 9.625C105.617 9.28646 105.513 8.98958 105.367 8.73438C105.227 8.47917 105.034 8.27865 104.789 8.13281C104.549 7.98177 104.25 7.90625 103.891 7.90625C103.557 7.90625 103.271 7.96354 103.031 8.07812C102.792 8.19271 102.591 8.34896 102.43 8.54688C102.268 8.74479 102.141 8.97396 102.047 9.23438C101.958 9.49479 101.898 9.77604 101.867 10.0781V11.4922C101.914 11.8828 102.013 12.2422 102.164 12.5703C102.32 12.8932 102.539 13.1536 102.82 13.3516C103.102 13.5443 103.464 13.6406 103.906 13.6406C104.255 13.6406 104.549 13.5703 104.789 13.4297C105.029 13.2891 105.219 13.0938 105.359 12.8438C105.505 12.5885 105.609 12.2917 105.672 11.9531C105.74 11.6146 105.773 11.25 105.773 10.8594ZM115.016 13.3047V9.27344C115.016 8.97135 114.961 8.71094 114.852 8.49219C114.742 8.27344 114.576 8.10417 114.352 7.98438C114.133 7.86458 113.857 7.80469 113.523 7.80469C113.216 7.80469 112.951 7.85677 112.727 7.96094C112.503 8.0651 112.328 8.20573 112.203 8.38281C112.078 8.5599 112.016 8.76042 112.016 8.98438H110.141C110.141 8.65104 110.221 8.32812 110.383 8.01562C110.544 7.70312 110.779 7.42448 111.086 7.17969C111.393 6.9349 111.76 6.74219 112.188 6.60156C112.615 6.46094 113.094 6.39062 113.625 6.39062C114.26 6.39062 114.823 6.4974 115.312 6.71094C115.807 6.92448 116.195 7.2474 116.477 7.67969C116.763 8.10677 116.906 8.64323 116.906 9.28906V13.0469C116.906 13.4323 116.932 13.7786 116.984 14.0859C117.042 14.388 117.122 14.651 117.227 14.875V15H115.297C115.208 14.7969 115.138 14.5391 115.086 14.2266C115.039 13.9089 115.016 13.6016 115.016 13.3047ZM115.289 9.85938L115.305 11.0234H113.953C113.604 11.0234 113.297 11.0573 113.031 11.125C112.766 11.1875 112.544 11.2812 112.367 11.4062C112.19 11.5312 112.057 11.6823 111.969 11.8594C111.88 12.0365 111.836 12.237 111.836 12.4609C111.836 12.6849 111.888 12.8906 111.992 13.0781C112.096 13.2604 112.247 13.4036 112.445 13.5078C112.648 13.612 112.893 13.6641 113.18 13.6641C113.565 13.6641 113.901 13.5859 114.188 13.4297C114.479 13.2682 114.708 13.0729 114.875 12.8438C115.042 12.6094 115.13 12.388 115.141 12.1797L115.75 13.0156C115.688 13.2292 115.581 13.4583 115.43 13.7031C115.279 13.9479 115.081 14.1823 114.836 14.4062C114.596 14.625 114.307 14.8047 113.969 14.9453C113.635 15.0859 113.25 15.1562 112.812 15.1562C112.26 15.1562 111.768 15.0469 111.336 14.8281C110.904 14.6042 110.565 14.3047 110.32 13.9297C110.076 13.5495 109.953 13.1198 109.953 12.6406C109.953 12.1927 110.036 11.7969 110.203 11.4531C110.375 11.1042 110.625 10.8125 110.953 10.5781C111.286 10.3438 111.693 10.1667 112.172 10.0469C112.651 9.92188 113.198 9.85938 113.812 9.85938H115.289ZM121.742 8.35156V15H119.859V6.54688H121.633L121.742 8.35156ZM121.406 10.4609L120.797 10.4531C120.802 9.85417 120.885 9.30469 121.047 8.80469C121.214 8.30469 121.443 7.875 121.734 7.51562C122.031 7.15625 122.385 6.88021 122.797 6.6875C123.208 6.48958 123.667 6.39062 124.172 6.39062C124.578 6.39062 124.945 6.44792 125.273 6.5625C125.607 6.67188 125.891 6.85156 126.125 7.10156C126.365 7.35156 126.547 7.67708 126.672 8.07812C126.797 8.47396 126.859 8.96094 126.859 9.53906V15H124.969V9.53125C124.969 9.125 124.909 8.80469 124.789 8.57031C124.674 8.33073 124.505 8.16146 124.281 8.0625C124.062 7.95833 123.789 7.90625 123.461 7.90625C123.138 7.90625 122.849 7.97396 122.594 8.10938C122.339 8.24479 122.122 8.42969 121.945 8.66406C121.773 8.89844 121.641 9.16927 121.547 9.47656C121.453 9.78385 121.406 10.112 121.406 10.4609ZM134.547 13.3047V9.27344C134.547 8.97135 134.492 8.71094 134.383 8.49219C134.273 8.27344 134.107 8.10417 133.883 7.98438C133.664 7.86458 133.388 7.80469 133.055 7.80469C132.747 7.80469 132.482 7.85677 132.258 7.96094C132.034 8.0651 131.859 8.20573 131.734 8.38281C131.609 8.5599 131.547 8.76042 131.547 8.98438H129.672C129.672 8.65104 129.753 8.32812 129.914 8.01562C130.076 7.70312 130.31 7.42448 130.617 7.17969C130.924 6.9349 131.292 6.74219 131.719 6.60156C132.146 6.46094 132.625 6.39062 133.156 6.39062C133.792 6.39062 134.354 6.4974 134.844 6.71094C135.339 6.92448 135.727 7.2474 136.008 7.67969C136.294 8.10677 136.438 8.64323 136.438 9.28906V13.0469C136.438 13.4323 136.464 13.7786 136.516 14.0859C136.573 14.388 136.654 14.651 136.758 14.875V15H134.828C134.74 14.7969 134.669 14.5391 134.617 14.2266C134.57 13.9089 134.547 13.6016 134.547 13.3047ZM134.82 9.85938L134.836 11.0234H133.484C133.135 11.0234 132.828 11.0573 132.562 11.125C132.297 11.1875 132.076 11.2812 131.898 11.4062C131.721 11.5312 131.589 11.6823 131.5 11.8594C131.411 12.0365 131.367 12.237 131.367 12.4609C131.367 12.6849 131.419 12.8906 131.523 13.0781C131.628 13.2604 131.779 13.4036 131.977 13.5078C132.18 13.612 132.424 13.6641 132.711 13.6641C133.096 13.6641 133.432 13.5859 133.719 13.4297C134.01 13.2682 134.24 13.0729 134.406 12.8438C134.573 12.6094 134.661 12.388 134.672 12.1797L135.281 13.0156C135.219 13.2292 135.112 13.4583 134.961 13.7031C134.81 13.9479 134.612 14.1823 134.367 14.4062C134.128 14.625 133.839 14.8047 133.5 14.9453C133.167 15.0859 132.781 15.1562 132.344 15.1562C131.792 15.1562 131.299 15.0469 130.867 14.8281C130.435 14.6042 130.096 14.3047 129.852 13.9297C129.607 13.5495 129.484 13.1198 129.484 12.6406C129.484 12.1927 129.568 11.7969 129.734 11.4531C129.906 11.1042 130.156 10.8125 130.484 10.5781C130.818 10.3438 131.224 10.1667 131.703 10.0469C132.182 9.92188 132.729 9.85938 133.344 9.85938H134.82ZM141.273 8.35156V15H139.391V6.54688H141.164L141.273 8.35156ZM140.938 10.4609L140.328 10.4531C140.333 9.85417 140.417 9.30469 140.578 8.80469C140.745 8.30469 140.974 7.875 141.266 7.51562C141.562 7.15625 141.917 6.88021 142.328 6.6875C142.74 6.48958 143.198 6.39062 143.703 6.39062C144.109 6.39062 144.477 6.44792 144.805 6.5625C145.138 6.67188 145.422 6.85156 145.656 7.10156C145.896 7.35156 146.078 7.67708 146.203 8.07812C146.328 8.47396 146.391 8.96094 146.391 9.53906V15H144.5V9.53125C144.5 9.125 144.44 8.80469 144.32 8.57031C144.206 8.33073 144.036 8.16146 143.812 8.0625C143.594 7.95833 143.32 7.90625 142.992 7.90625C142.669 7.90625 142.38 7.97396 142.125 8.10938C141.87 8.24479 141.654 8.42969 141.477 8.66406C141.305 8.89844 141.172 9.16927 141.078 9.47656C140.984 9.78385 140.938 10.112 140.938 10.4609ZM154.078 13.3047V9.27344C154.078 8.97135 154.023 8.71094 153.914 8.49219C153.805 8.27344 153.638 8.10417 153.414 7.98438C153.195 7.86458 152.919 7.80469 152.586 7.80469C152.279 7.80469 152.013 7.85677 151.789 7.96094C151.565 8.0651 151.391 8.20573 151.266 8.38281C151.141 8.5599 151.078 8.76042 151.078 8.98438H149.203C149.203 8.65104 149.284 8.32812 149.445 8.01562C149.607 7.70312 149.841 7.42448 150.148 7.17969C150.456 6.9349 150.823 6.74219 151.25 6.60156C151.677 6.46094 152.156 6.39062 152.688 6.39062C153.323 6.39062 153.885 6.4974 154.375 6.71094C154.87 6.92448 155.258 7.2474 155.539 7.67969C155.826 8.10677 155.969 8.64323 155.969 9.28906V13.0469C155.969 13.4323 155.995 13.7786 156.047 14.0859C156.104 14.388 156.185 14.651 156.289 14.875V15H154.359C154.271 14.7969 154.201 14.5391 154.148 14.2266C154.102 13.9089 154.078 13.6016 154.078 13.3047ZM154.352 9.85938L154.367 11.0234H153.016C152.667 11.0234 152.359 11.0573 152.094 11.125C151.828 11.1875 151.607 11.2812 151.43 11.4062C151.253 11.5312 151.12 11.6823 151.031 11.8594C150.943 12.0365 150.898 12.237 150.898 12.4609C150.898 12.6849 150.951 12.8906 151.055 13.0781C151.159 13.2604 151.31 13.4036 151.508 13.5078C151.711 13.612 151.956 13.6641 152.242 13.6641C152.628 13.6641 152.964 13.5859 153.25 13.4297C153.542 13.2682 153.771 13.0729 153.938 12.8438C154.104 12.6094 154.193 12.388 154.203 12.1797L154.812 13.0156C154.75 13.2292 154.643 13.4583 154.492 13.7031C154.341 13.9479 154.143 14.1823 153.898 14.4062C153.659 14.625 153.37 14.8047 153.031 14.9453C152.698 15.0859 152.312 15.1562 151.875 15.1562C151.323 15.1562 150.831 15.0469 150.398 14.8281C149.966 14.6042 149.628 14.3047 149.383 13.9297C149.138 13.5495 149.016 13.1198 149.016 12.6406C149.016 12.1927 149.099 11.7969 149.266 11.4531C149.438 11.1042 149.688 10.8125 150.016 10.5781C150.349 10.3438 150.755 10.1667 151.234 10.0469C151.714 9.92188 152.26 9.85938 152.875 9.85938H154.352ZM165.938 6.54688V15H164.047V6.54688H165.938ZM163.922 4.32812C163.922 4.04167 164.016 3.80469 164.203 3.61719C164.396 3.42448 164.661 3.32812 165 3.32812C165.333 3.32812 165.596 3.42448 165.789 3.61719C165.982 3.80469 166.078 4.04167 166.078 4.32812C166.078 4.60938 165.982 4.84375 165.789 5.03125C165.596 5.21875 165.333 5.3125 165 5.3125C164.661 5.3125 164.396 5.21875 164.203 5.03125C164.016 4.84375 163.922 4.60938 163.922 4.32812ZM173.742 12.7109C173.742 12.5234 173.695 12.3542 173.602 12.2031C173.508 12.0469 173.328 11.9062 173.062 11.7812C172.802 11.6562 172.417 11.5417 171.906 11.4375C171.458 11.3385 171.047 11.2214 170.672 11.0859C170.302 10.9453 169.984 10.776 169.719 10.5781C169.453 10.3802 169.247 10.1458 169.102 9.875C168.956 9.60417 168.883 9.29167 168.883 8.9375C168.883 8.59375 168.958 8.26823 169.109 7.96094C169.26 7.65365 169.477 7.38281 169.758 7.14844C170.039 6.91406 170.38 6.72917 170.781 6.59375C171.188 6.45833 171.641 6.39062 172.141 6.39062C172.849 6.39062 173.456 6.51042 173.961 6.75C174.471 6.98438 174.862 7.30469 175.133 7.71094C175.404 8.11198 175.539 8.5651 175.539 9.07031H173.656C173.656 8.84635 173.599 8.63802 173.484 8.44531C173.375 8.2474 173.208 8.08854 172.984 7.96875C172.76 7.84375 172.479 7.78125 172.141 7.78125C171.818 7.78125 171.549 7.83333 171.336 7.9375C171.128 8.03646 170.971 8.16667 170.867 8.32812C170.768 8.48958 170.719 8.66667 170.719 8.85938C170.719 9 170.745 9.1276 170.797 9.24219C170.854 9.35156 170.948 9.45312 171.078 9.54688C171.208 9.63542 171.385 9.71875 171.609 9.79688C171.839 9.875 172.125 9.95052 172.469 10.0234C173.115 10.1589 173.669 10.3333 174.133 10.5469C174.602 10.7552 174.961 11.026 175.211 11.3594C175.461 11.6875 175.586 12.1042 175.586 12.6094C175.586 12.9844 175.505 13.3281 175.344 13.6406C175.188 13.9479 174.958 14.2161 174.656 14.4453C174.354 14.6693 173.992 14.8438 173.57 14.9688C173.154 15.0938 172.685 15.1562 172.164 15.1562C171.398 15.1562 170.75 15.0208 170.219 14.75C169.688 14.474 169.284 14.1224 169.008 13.6953C168.737 13.263 168.602 12.8151 168.602 12.3516H170.422C170.443 12.7005 170.539 12.9792 170.711 13.1875C170.888 13.3906 171.107 13.5391 171.367 13.6328C171.633 13.7214 171.906 13.7656 172.188 13.7656C172.526 13.7656 172.81 13.7214 173.039 13.6328C173.268 13.5391 173.443 13.4141 173.562 13.2578C173.682 13.0964 173.742 12.9141 173.742 12.7109ZM187.094 6.54688V7.92188H182.328V6.54688H187.094ZM183.703 4.47656H185.586V12.6641C185.586 12.9245 185.622 13.125 185.695 13.2656C185.773 13.401 185.88 13.4922 186.016 13.5391C186.151 13.5859 186.31 13.6094 186.492 13.6094C186.622 13.6094 186.747 13.6016 186.867 13.5859C186.987 13.5703 187.083 13.5547 187.156 13.5391L187.164 14.9766C187.008 15.0234 186.826 15.0651 186.617 15.1016C186.414 15.138 186.18 15.1562 185.914 15.1562C185.482 15.1562 185.099 15.0807 184.766 14.9297C184.432 14.7734 184.172 14.5208 183.984 14.1719C183.797 13.8229 183.703 13.3594 183.703 12.7812V4.47656ZM191.406 3V15H189.531V3H191.406ZM191.078 10.4609L190.469 10.4531C190.474 9.86979 190.555 9.33073 190.711 8.83594C190.872 8.34115 191.096 7.91146 191.383 7.54688C191.674 7.17708 192.023 6.89323 192.43 6.69531C192.836 6.49219 193.286 6.39062 193.781 6.39062C194.198 6.39062 194.573 6.44792 194.906 6.5625C195.245 6.67708 195.536 6.86198 195.781 7.11719C196.026 7.36719 196.211 7.69531 196.336 8.10156C196.466 8.5026 196.531 8.99219 196.531 9.57031V15H194.641V9.55469C194.641 9.14844 194.581 8.82552 194.461 8.58594C194.346 8.34635 194.177 8.17448 193.953 8.07031C193.729 7.96094 193.456 7.90625 193.133 7.90625C192.794 7.90625 192.495 7.97396 192.234 8.10938C191.979 8.24479 191.766 8.42969 191.594 8.66406C191.422 8.89844 191.292 9.16927 191.203 9.47656C191.12 9.78385 191.078 10.112 191.078 10.4609ZM203.164 15.1562C202.539 15.1562 201.974 15.0547 201.469 14.8516C200.969 14.6432 200.542 14.3542 200.188 13.9844C199.839 13.6146 199.57 13.1797 199.383 12.6797C199.195 12.1797 199.102 11.6406 199.102 11.0625V10.75C199.102 10.0885 199.198 9.48958 199.391 8.95312C199.583 8.41667 199.852 7.95833 200.195 7.57812C200.539 7.19271 200.945 6.89844 201.414 6.69531C201.883 6.49219 202.391 6.39062 202.938 6.39062C203.542 6.39062 204.07 6.49219 204.523 6.69531C204.977 6.89844 205.352 7.1849 205.648 7.55469C205.951 7.91927 206.174 8.35417 206.32 8.85938C206.471 9.36458 206.547 9.92188 206.547 10.5312V11.3359H200.016V9.98438H204.688V9.83594C204.677 9.4974 204.609 9.17969 204.484 8.88281C204.365 8.58594 204.18 8.34635 203.93 8.16406C203.68 7.98177 203.346 7.89062 202.93 7.89062C202.617 7.89062 202.339 7.95833 202.094 8.09375C201.854 8.22396 201.654 8.41406 201.492 8.66406C201.331 8.91406 201.206 9.21615 201.117 9.57031C201.034 9.91927 200.992 10.3125 200.992 10.75V11.0625C200.992 11.4323 201.042 11.776 201.141 12.0938C201.245 12.4062 201.396 12.6797 201.594 12.9141C201.792 13.1484 202.031 13.3333 202.312 13.4688C202.594 13.599 202.914 13.6641 203.273 13.6641C203.727 13.6641 204.13 13.5729 204.484 13.3906C204.839 13.2083 205.146 12.9505 205.406 12.6172L206.398 13.5781C206.216 13.8438 205.979 14.099 205.688 14.3438C205.396 14.5833 205.039 14.7786 204.617 14.9297C204.201 15.0807 203.716 15.1562 203.164 15.1562ZM216.453 14.0781L218.75 6.54688H220.766L217.375 16.2891C217.297 16.4974 217.195 16.724 217.07 16.9688C216.945 17.2135 216.781 17.4453 216.578 17.6641C216.38 17.888 216.133 18.0677 215.836 18.2031C215.539 18.3438 215.18 18.4141 214.758 18.4141C214.591 18.4141 214.43 18.3984 214.273 18.3672C214.122 18.3411 213.979 18.3125 213.844 18.2812L213.836 16.8438C213.888 16.849 213.951 16.8542 214.023 16.8594C214.102 16.8646 214.164 16.8672 214.211 16.8672C214.523 16.8672 214.784 16.8281 214.992 16.75C215.201 16.6771 215.37 16.5573 215.5 16.3906C215.635 16.224 215.75 16 215.844 15.7188L216.453 14.0781ZM215.156 6.54688L217.164 12.875L217.5 14.8594L216.195 15.1953L213.125 6.54688H215.156ZM226.461 15.1562C225.836 15.1562 225.271 15.0547 224.766 14.8516C224.266 14.6432 223.839 14.3542 223.484 13.9844C223.135 13.6146 222.867 13.1797 222.68 12.6797C222.492 12.1797 222.398 11.6406 222.398 11.0625V10.75C222.398 10.0885 222.495 9.48958 222.688 8.95312C222.88 8.41667 223.148 7.95833 223.492 7.57812C223.836 7.19271 224.242 6.89844 224.711 6.69531C225.18 6.49219 225.688 6.39062 226.234 6.39062C226.839 6.39062 227.367 6.49219 227.82 6.69531C228.273 6.89844 228.648 7.1849 228.945 7.55469C229.247 7.91927 229.471 8.35417 229.617 8.85938C229.768 9.36458 229.844 9.92188 229.844 10.5312V11.3359H223.312V9.98438H227.984V9.83594C227.974 9.4974 227.906 9.17969 227.781 8.88281C227.661 8.58594 227.477 8.34635 227.227 8.16406C226.977 7.98177 226.643 7.89062 226.227 7.89062C225.914 7.89062 225.635 7.95833 225.391 8.09375C225.151 8.22396 224.951 8.41406 224.789 8.66406C224.628 8.91406 224.503 9.21615 224.414 9.57031C224.331 9.91927 224.289 10.3125 224.289 10.75V11.0625C224.289 11.4323 224.339 11.776 224.438 12.0938C224.542 12.4062 224.693 12.6797 224.891 12.9141C225.089 13.1484 225.328 13.3333 225.609 13.4688C225.891 13.599 226.211 13.6641 226.57 13.6641C227.023 13.6641 227.427 13.5729 227.781 13.3906C228.135 13.2083 228.443 12.9505 228.703 12.6172L229.695 13.5781C229.513 13.8438 229.276 14.099 228.984 14.3438C228.693 14.5833 228.336 14.7786 227.914 14.9297C227.497 15.0807 227.013 15.1562 226.461 15.1562ZM234.328 3V15H232.438V3H234.328ZM239.406 3V15H237.516V3H239.406ZM242.109 10.8672V10.6875C242.109 10.0781 242.198 9.51302 242.375 8.99219C242.552 8.46615 242.807 8.01042 243.141 7.625C243.479 7.23438 243.891 6.93229 244.375 6.71875C244.865 6.5 245.417 6.39062 246.031 6.39062C246.651 6.39062 247.203 6.5 247.688 6.71875C248.177 6.93229 248.591 7.23438 248.93 7.625C249.268 8.01042 249.526 8.46615 249.703 8.99219C249.88 9.51302 249.969 10.0781 249.969 10.6875V10.8672C249.969 11.4766 249.88 12.0417 249.703 12.5625C249.526 13.0833 249.268 13.5391 248.93 13.9297C248.591 14.3151 248.18 14.6172 247.695 14.8359C247.211 15.0495 246.661 15.1562 246.047 15.1562C245.427 15.1562 244.872 15.0495 244.383 14.8359C243.898 14.6172 243.487 14.3151 243.148 13.9297C242.81 13.5391 242.552 13.0833 242.375 12.5625C242.198 12.0417 242.109 11.4766 242.109 10.8672ZM243.992 10.6875V10.8672C243.992 11.2474 244.031 11.6068 244.109 11.9453C244.188 12.2839 244.31 12.5807 244.477 12.8359C244.643 13.0911 244.857 13.2917 245.117 13.4375C245.378 13.5833 245.688 13.6562 246.047 13.6562C246.396 13.6562 246.698 13.5833 246.953 13.4375C247.214 13.2917 247.427 13.0911 247.594 12.8359C247.76 12.5807 247.883 12.2839 247.961 11.9453C248.044 11.6068 248.086 11.2474 248.086 10.8672V10.6875C248.086 10.3125 248.044 9.95833 247.961 9.625C247.883 9.28646 247.758 8.98698 247.586 8.72656C247.419 8.46615 247.206 8.26302 246.945 8.11719C246.69 7.96615 246.385 7.89062 246.031 7.89062C245.677 7.89062 245.37 7.96615 245.109 8.11719C244.854 8.26302 244.643 8.46615 244.477 8.72656C244.31 8.98698 244.188 9.28646 244.109 9.625C244.031 9.95833 243.992 10.3125 243.992 10.6875ZM254.844 13.125L256.797 6.54688H258L257.672 8.51562L255.703 15H254.625L254.844 13.125ZM253.695 6.54688L255.219 13.1562L255.344 15H254.141L251.852 6.54688H253.695ZM259.828 13.0781L261.305 6.54688H263.141L260.859 15H259.656L259.828 13.0781ZM258.203 6.54688L260.133 13.0469L260.375 15H259.297L257.305 8.50781L256.977 6.54688H258.203ZM275.172 13.3047V9.27344C275.172 8.97135 275.117 8.71094 275.008 8.49219C274.898 8.27344 274.732 8.10417 274.508 7.98438C274.289 7.86458 274.013 7.80469 273.68 7.80469C273.372 7.80469 273.107 7.85677 272.883 7.96094C272.659 8.0651 272.484 8.20573 272.359 8.38281C272.234 8.5599 272.172 8.76042 272.172 8.98438H270.297C270.297 8.65104 270.378 8.32812 270.539 8.01562C270.701 7.70312 270.935 7.42448 271.242 7.17969C271.549 6.9349 271.917 6.74219 272.344 6.60156C272.771 6.46094 273.25 6.39062 273.781 6.39062C274.417 6.39062 274.979 6.4974 275.469 6.71094C275.964 6.92448 276.352 7.2474 276.633 7.67969C276.919 8.10677 277.062 8.64323 277.062 9.28906V13.0469C277.062 13.4323 277.089 13.7786 277.141 14.0859C277.198 14.388 277.279 14.651 277.383 14.875V15H275.453C275.365 14.7969 275.294 14.5391 275.242 14.2266C275.195 13.9089 275.172 13.6016 275.172 13.3047ZM275.445 9.85938L275.461 11.0234H274.109C273.76 11.0234 273.453 11.0573 273.188 11.125C272.922 11.1875 272.701 11.2812 272.523 11.4062C272.346 11.5312 272.214 11.6823 272.125 11.8594C272.036 12.0365 271.992 12.237 271.992 12.4609C271.992 12.6849 272.044 12.8906 272.148 13.0781C272.253 13.2604 272.404 13.4036 272.602 13.5078C272.805 13.612 273.049 13.6641 273.336 13.6641C273.721 13.6641 274.057 13.5859 274.344 13.4297C274.635 13.2682 274.865 13.0729 275.031 12.8438C275.198 12.6094 275.286 12.388 275.297 12.1797L275.906 13.0156C275.844 13.2292 275.737 13.4583 275.586 13.7031C275.435 13.9479 275.237 14.1823 274.992 14.4062C274.753 14.625 274.464 14.8047 274.125 14.9453C273.792 15.0859 273.406 15.1562 272.969 15.1562C272.417 15.1562 271.924 15.0469 271.492 14.8281C271.06 14.6042 270.721 14.3047 270.477 13.9297C270.232 13.5495 270.109 13.1198 270.109 12.6406C270.109 12.1927 270.193 11.7969 270.359 11.4531C270.531 11.1042 270.781 10.8125 271.109 10.5781C271.443 10.3438 271.849 10.1667 272.328 10.0469C272.807 9.92188 273.354 9.85938 273.969 9.85938H275.445ZM281.922 8.15625V15H280.039V6.54688H281.836L281.922 8.15625ZM284.508 6.49219L284.492 8.24219C284.378 8.22135 284.253 8.20573 284.117 8.19531C283.987 8.1849 283.857 8.17969 283.727 8.17969C283.404 8.17969 283.12 8.22656 282.875 8.32031C282.63 8.40885 282.424 8.53906 282.258 8.71094C282.096 8.8776 281.971 9.08073 281.883 9.32031C281.794 9.5599 281.742 9.82812 281.727 10.125L281.297 10.1562C281.297 9.625 281.349 9.13281 281.453 8.67969C281.557 8.22656 281.714 7.82812 281.922 7.48438C282.135 7.14062 282.401 6.8724 282.719 6.67969C283.042 6.48698 283.414 6.39062 283.836 6.39062C283.951 6.39062 284.073 6.40104 284.203 6.42188C284.339 6.44271 284.44 6.46615 284.508 6.49219ZM290.258 15.1562C289.633 15.1562 289.068 15.0547 288.562 14.8516C288.062 14.6432 287.635 14.3542 287.281 13.9844C286.932 13.6146 286.664 13.1797 286.477 12.6797C286.289 12.1797 286.195 11.6406 286.195 11.0625V10.75C286.195 10.0885 286.292 9.48958 286.484 8.95312C286.677 8.41667 286.945 7.95833 287.289 7.57812C287.633 7.19271 288.039 6.89844 288.508 6.69531C288.977 6.49219 289.484 6.39062 290.031 6.39062C290.635 6.39062 291.164 6.49219 291.617 6.69531C292.07 6.89844 292.445 7.1849 292.742 7.55469C293.044 7.91927 293.268 8.35417 293.414 8.85938C293.565 9.36458 293.641 9.92188 293.641 10.5312V11.3359H287.109V9.98438H291.781V9.83594C291.771 9.4974 291.703 9.17969 291.578 8.88281C291.458 8.58594 291.273 8.34635 291.023 8.16406C290.773 7.98177 290.44 7.89062 290.023 7.89062C289.711 7.89062 289.432 7.95833 289.188 8.09375C288.948 8.22396 288.747 8.41406 288.586 8.66406C288.424 8.91406 288.299 9.21615 288.211 9.57031C288.128 9.91927 288.086 10.3125 288.086 10.75V11.0625C288.086 11.4323 288.135 11.776 288.234 12.0938C288.339 12.4062 288.49 12.6797 288.688 12.9141C288.885 13.1484 289.125 13.3333 289.406 13.4688C289.688 13.599 290.008 13.6641 290.367 13.6641C290.82 13.6641 291.224 13.5729 291.578 13.3906C291.932 13.2083 292.24 12.9505 292.5 12.6172L293.492 13.5781C293.31 13.8438 293.073 14.099 292.781 14.3438C292.49 14.5833 292.133 14.7786 291.711 14.9297C291.294 15.0807 290.81 15.1562 290.258 15.1562ZM300.875 13.3047V9.27344C300.875 8.97135 300.82 8.71094 300.711 8.49219C300.602 8.27344 300.435 8.10417 300.211 7.98438C299.992 7.86458 299.716 7.80469 299.383 7.80469C299.076 7.80469 298.81 7.85677 298.586 7.96094C298.362 8.0651 298.188 8.20573 298.062 8.38281C297.938 8.5599 297.875 8.76042 297.875 8.98438H296C296 8.65104 296.081 8.32812 296.242 8.01562C296.404 7.70312 296.638 7.42448 296.945 7.17969C297.253 6.9349 297.62 6.74219 298.047 6.60156C298.474 6.46094 298.953 6.39062 299.484 6.39062C300.12 6.39062 300.682 6.4974 301.172 6.71094C301.667 6.92448 302.055 7.2474 302.336 7.67969C302.622 8.10677 302.766 8.64323 302.766 9.28906V13.0469C302.766 13.4323 302.792 13.7786 302.844 14.0859C302.901 14.388 302.982 14.651 303.086 14.875V15H301.156C301.068 14.7969 300.997 14.5391 300.945 14.2266C300.898 13.9089 300.875 13.6016 300.875 13.3047ZM301.148 9.85938L301.164 11.0234H299.812C299.464 11.0234 299.156 11.0573 298.891 11.125C298.625 11.1875 298.404 11.2812 298.227 11.4062C298.049 11.5312 297.917 11.6823 297.828 11.8594C297.74 12.0365 297.695 12.237 297.695 12.4609C297.695 12.6849 297.747 12.8906 297.852 13.0781C297.956 13.2604 298.107 13.4036 298.305 13.5078C298.508 13.612 298.753 13.6641 299.039 13.6641C299.424 13.6641 299.76 13.5859 300.047 13.4297C300.339 13.2682 300.568 13.0729 300.734 12.8438C300.901 12.6094 300.99 12.388 301 12.1797L301.609 13.0156C301.547 13.2292 301.44 13.4583 301.289 13.7031C301.138 13.9479 300.94 14.1823 300.695 14.4062C300.456 14.625 300.167 14.8047 299.828 14.9453C299.495 15.0859 299.109 15.1562 298.672 15.1562C298.12 15.1562 297.628 15.0469 297.195 14.8281C296.763 14.6042 296.424 14.3047 296.18 13.9297C295.935 13.5495 295.812 13.1198 295.812 12.6406C295.812 12.1927 295.896 11.7969 296.062 11.4531C296.234 11.1042 296.484 10.8125 296.812 10.5781C297.146 10.3438 297.552 10.1667 298.031 10.0469C298.51 9.92188 299.057 9.85938 299.672 9.85938H301.148ZM313.016 13.125L314.969 6.54688H316.172L315.844 8.51562L313.875 15H312.797L313.016 13.125ZM311.867 6.54688L313.391 13.1562L313.516 15H312.312L310.023 6.54688H311.867ZM318 13.0781L319.477 6.54688H321.312L319.031 15H317.828L318 13.0781ZM316.375 6.54688L318.305 13.0469L318.547 15H317.469L315.477 8.50781L315.148 6.54688H316.375ZM325.453 3V15H323.578V3H325.453ZM325.125 10.4609L324.516 10.4531C324.521 9.86979 324.602 9.33073 324.758 8.83594C324.919 8.34115 325.143 7.91146 325.43 7.54688C325.721 7.17708 326.07 6.89323 326.477 6.69531C326.883 6.49219 327.333 6.39062 327.828 6.39062C328.245 6.39062 328.62 6.44792 328.953 6.5625C329.292 6.67708 329.583 6.86198 329.828 7.11719C330.073 7.36719 330.258 7.69531 330.383 8.10156C330.513 8.5026 330.578 8.99219 330.578 9.57031V15H328.688V9.55469C328.688 9.14844 328.628 8.82552 328.508 8.58594C328.393 8.34635 328.224 8.17448 328 8.07031C327.776 7.96094 327.503 7.90625 327.18 7.90625C326.841 7.90625 326.542 7.97396 326.281 8.10938C326.026 8.24479 325.812 8.42969 325.641 8.66406C325.469 8.89844 325.339 9.16927 325.25 9.47656C325.167 9.78385 325.125 10.112 325.125 10.4609ZM337.211 15.1562C336.586 15.1562 336.021 15.0547 335.516 14.8516C335.016 14.6432 334.589 14.3542 334.234 13.9844C333.885 13.6146 333.617 13.1797 333.43 12.6797C333.242 12.1797 333.148 11.6406 333.148 11.0625V10.75C333.148 10.0885 333.245 9.48958 333.438 8.95312C333.63 8.41667 333.898 7.95833 334.242 7.57812C334.586 7.19271 334.992 6.89844 335.461 6.69531C335.93 6.49219 336.438 6.39062 336.984 6.39062C337.589 6.39062 338.117 6.49219 338.57 6.69531C339.023 6.89844 339.398 7.1849 339.695 7.55469C339.997 7.91927 340.221 8.35417 340.367 8.85938C340.518 9.36458 340.594 9.92188 340.594 10.5312V11.3359H334.062V9.98438H338.734V9.83594C338.724 9.4974 338.656 9.17969 338.531 8.88281C338.411 8.58594 338.227 8.34635 337.977 8.16406C337.727 7.98177 337.393 7.89062 336.977 7.89062C336.664 7.89062 336.385 7.95833 336.141 8.09375C335.901 8.22396 335.701 8.41406 335.539 8.66406C335.378 8.91406 335.253 9.21615 335.164 9.57031C335.081 9.91927 335.039 10.3125 335.039 10.75V11.0625C335.039 11.4323 335.089 11.776 335.188 12.0938C335.292 12.4062 335.443 12.6797 335.641 12.9141C335.839 13.1484 336.078 13.3333 336.359 13.4688C336.641 13.599 336.961 13.6641 337.32 13.6641C337.773 13.6641 338.177 13.5729 338.531 13.3906C338.885 13.2083 339.193 12.9505 339.453 12.6172L340.445 13.5781C340.263 13.8438 340.026 14.099 339.734 14.3438C339.443 14.5833 339.086 14.7786 338.664 14.9297C338.247 15.0807 337.763 15.1562 337.211 15.1562ZM344.953 8.15625V15H343.07V6.54688H344.867L344.953 8.15625ZM347.539 6.49219L347.523 8.24219C347.409 8.22135 347.284 8.20573 347.148 8.19531C347.018 8.1849 346.888 8.17969 346.758 8.17969C346.435 8.17969 346.151 8.22656 345.906 8.32031C345.661 8.40885 345.456 8.53906 345.289 8.71094C345.128 8.8776 345.003 9.08073 344.914 9.32031C344.826 9.5599 344.773 9.82812 344.758 10.125L344.328 10.1562C344.328 9.625 344.38 9.13281 344.484 8.67969C344.589 8.22656 344.745 7.82812 344.953 7.48438C345.167 7.14062 345.432 6.8724 345.75 6.67969C346.073 6.48698 346.445 6.39062 346.867 6.39062C346.982 6.39062 347.104 6.40104 347.234 6.42188C347.37 6.44271 347.471 6.46615 347.539 6.49219ZM353.289 15.1562C352.664 15.1562 352.099 15.0547 351.594 14.8516C351.094 14.6432 350.667 14.3542 350.312 13.9844C349.964 13.6146 349.695 13.1797 349.508 12.6797C349.32 12.1797 349.227 11.6406 349.227 11.0625V10.75C349.227 10.0885 349.323 9.48958 349.516 8.95312C349.708 8.41667 349.977 7.95833 350.32 7.57812C350.664 7.19271 351.07 6.89844 351.539 6.69531C352.008 6.49219 352.516 6.39062 353.062 6.39062C353.667 6.39062 354.195 6.49219 354.648 6.69531C355.102 6.89844 355.477 7.1849 355.773 7.55469C356.076 7.91927 356.299 8.35417 356.445 8.85938C356.596 9.36458 356.672 9.92188 356.672 10.5312V11.3359H350.141V9.98438H354.812V9.83594C354.802 9.4974 354.734 9.17969 354.609 8.88281C354.49 8.58594 354.305 8.34635 354.055 8.16406C353.805 7.98177 353.471 7.89062 353.055 7.89062C352.742 7.89062 352.464 7.95833 352.219 8.09375C351.979 8.22396 351.779 8.41406 351.617 8.66406C351.456 8.91406 351.331 9.21615 351.242 9.57031C351.159 9.91927 351.117 10.3125 351.117 10.75V11.0625C351.117 11.4323 351.167 11.776 351.266 12.0938C351.37 12.4062 351.521 12.6797 351.719 12.9141C351.917 13.1484 352.156 13.3333 352.438 13.4688C352.719 13.599 353.039 13.6641 353.398 13.6641C353.852 13.6641 354.255 13.5729 354.609 13.3906C354.964 13.2083 355.271 12.9505 355.531 12.6172L356.523 13.5781C356.341 13.8438 356.104 14.099 355.812 14.3438C355.521 14.5833 355.164 14.7786 354.742 14.9297C354.326 15.0807 353.841 15.1562 353.289 15.1562ZM366.008 8.26562V15H364.125V6.54688H365.898L366.008 8.26562ZM365.703 10.4609L365.062 10.4531C365.062 9.86979 365.135 9.33073 365.281 8.83594C365.427 8.34115 365.641 7.91146 365.922 7.54688C366.203 7.17708 366.552 6.89323 366.969 6.69531C367.391 6.49219 367.878 6.39062 368.43 6.39062C368.815 6.39062 369.167 6.44792 369.484 6.5625C369.807 6.67188 370.086 6.84635 370.32 7.08594C370.56 7.32552 370.742 7.63281 370.867 8.00781C370.997 8.38281 371.062 8.83594 371.062 9.36719V15H369.18V9.53125C369.18 9.11979 369.117 8.79688 368.992 8.5625C368.872 8.32812 368.698 8.16146 368.469 8.0625C368.245 7.95833 367.977 7.90625 367.664 7.90625C367.31 7.90625 367.008 7.97396 366.758 8.10938C366.513 8.24479 366.312 8.42969 366.156 8.66406C366 8.89844 365.885 9.16927 365.812 9.47656C365.74 9.78385 365.703 10.112 365.703 10.4609ZM370.945 9.96094L370.062 10.1562C370.062 9.64583 370.133 9.16406 370.273 8.71094C370.419 8.2526 370.63 7.85156 370.906 7.50781C371.188 7.15885 371.534 6.88542 371.945 6.6875C372.357 6.48958 372.828 6.39062 373.359 6.39062C373.792 6.39062 374.177 6.45052 374.516 6.57031C374.859 6.6849 375.151 6.86719 375.391 7.11719C375.63 7.36719 375.812 7.69271 375.938 8.09375C376.062 8.48958 376.125 8.96875 376.125 9.53125V15H374.234V9.52344C374.234 9.09635 374.172 8.76562 374.047 8.53125C373.927 8.29688 373.755 8.13542 373.531 8.04688C373.307 7.95312 373.039 7.90625 372.727 7.90625C372.435 7.90625 372.177 7.96094 371.953 8.07031C371.734 8.17448 371.549 8.32292 371.398 8.51562C371.247 8.70312 371.133 8.91927 371.055 9.16406C370.982 9.40885 370.945 9.67448 370.945 9.96094ZM378.703 10.8672V10.6875C378.703 10.0781 378.792 9.51302 378.969 8.99219C379.146 8.46615 379.401 8.01042 379.734 7.625C380.073 7.23438 380.484 6.93229 380.969 6.71875C381.458 6.5 382.01 6.39062 382.625 6.39062C383.245 6.39062 383.797 6.5 384.281 6.71875C384.771 6.93229 385.185 7.23438 385.523 7.625C385.862 8.01042 386.12 8.46615 386.297 8.99219C386.474 9.51302 386.562 10.0781 386.562 10.6875V10.8672C386.562 11.4766 386.474 12.0417 386.297 12.5625C386.12 13.0833 385.862 13.5391 385.523 13.9297C385.185 14.3151 384.773 14.6172 384.289 14.8359C383.805 15.0495 383.255 15.1562 382.641 15.1562C382.021 15.1562 381.466 15.0495 380.977 14.8359C380.492 14.6172 380.081 14.3151 379.742 13.9297C379.404 13.5391 379.146 13.0833 378.969 12.5625C378.792 12.0417 378.703 11.4766 378.703 10.8672ZM380.586 10.6875V10.8672C380.586 11.2474 380.625 11.6068 380.703 11.9453C380.781 12.2839 380.904 12.5807 381.07 12.8359C381.237 13.0911 381.451 13.2917 381.711 13.4375C381.971 13.5833 382.281 13.6562 382.641 13.6562C382.99 13.6562 383.292 13.5833 383.547 13.4375C383.807 13.2917 384.021 13.0911 384.188 12.8359C384.354 12.5807 384.477 12.2839 384.555 11.9453C384.638 11.6068 384.68 11.2474 384.68 10.8672V10.6875C384.68 10.3125 384.638 9.95833 384.555 9.625C384.477 9.28646 384.352 8.98698 384.18 8.72656C384.013 8.46615 383.799 8.26302 383.539 8.11719C383.284 7.96615 382.979 7.89062 382.625 7.89062C382.271 7.89062 381.964 7.96615 381.703 8.11719C381.448 8.26302 381.237 8.46615 381.07 8.72656C380.904 8.98698 380.781 9.28646 380.703 9.625C380.625 9.95833 380.586 10.3125 380.586 10.6875ZM393.883 12.7109C393.883 12.5234 393.836 12.3542 393.742 12.2031C393.648 12.0469 393.469 11.9062 393.203 11.7812C392.943 11.6562 392.557 11.5417 392.047 11.4375C391.599 11.3385 391.188 11.2214 390.812 11.0859C390.443 10.9453 390.125 10.776 389.859 10.5781C389.594 10.3802 389.388 10.1458 389.242 9.875C389.096 9.60417 389.023 9.29167 389.023 8.9375C389.023 8.59375 389.099 8.26823 389.25 7.96094C389.401 7.65365 389.617 7.38281 389.898 7.14844C390.18 6.91406 390.521 6.72917 390.922 6.59375C391.328 6.45833 391.781 6.39062 392.281 6.39062C392.99 6.39062 393.596 6.51042 394.102 6.75C394.612 6.98438 395.003 7.30469 395.273 7.71094C395.544 8.11198 395.68 8.5651 395.68 9.07031H393.797C393.797 8.84635 393.74 8.63802 393.625 8.44531C393.516 8.2474 393.349 8.08854 393.125 7.96875C392.901 7.84375 392.62 7.78125 392.281 7.78125C391.958 7.78125 391.69 7.83333 391.477 7.9375C391.268 8.03646 391.112 8.16667 391.008 8.32812C390.909 8.48958 390.859 8.66667 390.859 8.85938C390.859 9 390.885 9.1276 390.938 9.24219C390.995 9.35156 391.089 9.45312 391.219 9.54688C391.349 9.63542 391.526 9.71875 391.75 9.79688C391.979 9.875 392.266 9.95052 392.609 10.0234C393.255 10.1589 393.81 10.3333 394.273 10.5469C394.742 10.7552 395.102 11.026 395.352 11.3594C395.602 11.6875 395.727 12.1042 395.727 12.6094C395.727 12.9844 395.646 13.3281 395.484 13.6406C395.328 13.9479 395.099 14.2161 394.797 14.4453C394.495 14.6693 394.133 14.8438 393.711 14.9688C393.294 15.0938 392.826 15.1562 392.305 15.1562C391.539 15.1562 390.891 15.0208 390.359 14.75C389.828 14.474 389.424 14.1224 389.148 13.6953C388.878 13.263 388.742 12.8151 388.742 12.3516H390.562C390.583 12.7005 390.68 12.9792 390.852 13.1875C391.029 13.3906 391.247 13.5391 391.508 13.6328C391.773 13.7214 392.047 13.7656 392.328 13.7656C392.667 13.7656 392.951 13.7214 393.18 13.6328C393.409 13.5391 393.583 13.4141 393.703 13.2578C393.823 13.0964 393.883 12.9141 393.883 12.7109ZM402.25 6.54688V7.92188H397.484V6.54688H402.25ZM398.859 4.47656H400.742V12.6641C400.742 12.9245 400.779 13.125 400.852 13.2656C400.93 13.401 401.036 13.4922 401.172 13.5391C401.307 13.5859 401.466 13.6094 401.648 13.6094C401.779 13.6094 401.904 13.6016 402.023 13.5859C402.143 13.5703 402.24 13.5547 402.312 13.5391L402.32 14.9766C402.164 15.0234 401.982 15.0651 401.773 15.1016C401.57 15.138 401.336 15.1562 401.07 15.1562C400.638 15.1562 400.255 15.0807 399.922 14.9297C399.589 14.7734 399.328 14.5208 399.141 14.1719C398.953 13.8229 398.859 13.3594 398.859 12.7812V4.47656ZM414.43 12.7109C414.43 12.5234 414.383 12.3542 414.289 12.2031C414.195 12.0469 414.016 11.9062 413.75 11.7812C413.49 11.6562 413.104 11.5417 412.594 11.4375C412.146 11.3385 411.734 11.2214 411.359 11.0859C410.99 10.9453 410.672 10.776 410.406 10.5781C410.141 10.3802 409.935 10.1458 409.789 9.875C409.643 9.60417 409.57 9.29167 409.57 8.9375C409.57 8.59375 409.646 8.26823 409.797 7.96094C409.948 7.65365 410.164 7.38281 410.445 7.14844C410.727 6.91406 411.068 6.72917 411.469 6.59375C411.875 6.45833 412.328 6.39062 412.828 6.39062C413.536 6.39062 414.143 6.51042 414.648 6.75C415.159 6.98438 415.549 7.30469 415.82 7.71094C416.091 8.11198 416.227 8.5651 416.227 9.07031H414.344C414.344 8.84635 414.286 8.63802 414.172 8.44531C414.062 8.2474 413.896 8.08854 413.672 7.96875C413.448 7.84375 413.167 7.78125 412.828 7.78125C412.505 7.78125 412.237 7.83333 412.023 7.9375C411.815 8.03646 411.659 8.16667 411.555 8.32812C411.456 8.48958 411.406 8.66667 411.406 8.85938C411.406 9 411.432 9.1276 411.484 9.24219C411.542 9.35156 411.635 9.45312 411.766 9.54688C411.896 9.63542 412.073 9.71875 412.297 9.79688C412.526 9.875 412.812 9.95052 413.156 10.0234C413.802 10.1589 414.357 10.3333 414.82 10.5469C415.289 10.7552 415.648 11.026 415.898 11.3594C416.148 11.6875 416.273 12.1042 416.273 12.6094C416.273 12.9844 416.193 13.3281 416.031 13.6406C415.875 13.9479 415.646 14.2161 415.344 14.4453C415.042 14.6693 414.68 14.8438 414.258 14.9688C413.841 15.0938 413.372 15.1562 412.852 15.1562C412.086 15.1562 411.438 15.0208 410.906 14.75C410.375 14.474 409.971 14.1224 409.695 13.6953C409.424 13.263 409.289 12.8151 409.289 12.3516H411.109C411.13 12.7005 411.227 12.9792 411.398 13.1875C411.576 13.3906 411.794 13.5391 412.055 13.6328C412.32 13.7214 412.594 13.7656 412.875 13.7656C413.214 13.7656 413.497 13.7214 413.727 13.6328C413.956 13.5391 414.13 13.4141 414.25 13.2578C414.37 13.0964 414.43 12.9141 414.43 12.7109ZM420.812 8.17188V18.25H418.93V6.54688H420.664L420.812 8.17188ZM426.32 10.6953V10.8594C426.32 11.474 426.247 12.0443 426.102 12.5703C425.961 13.0911 425.75 13.5469 425.469 13.9375C425.193 14.3229 424.852 14.6224 424.445 14.8359C424.039 15.0495 423.57 15.1562 423.039 15.1562C422.513 15.1562 422.052 15.0599 421.656 14.8672C421.266 14.6693 420.935 14.3906 420.664 14.0312C420.393 13.6719 420.174 13.25 420.008 12.7656C419.846 12.276 419.732 11.7396 419.664 11.1562V10.5234C419.732 9.90365 419.846 9.34115 420.008 8.83594C420.174 8.33073 420.393 7.89583 420.664 7.53125C420.935 7.16667 421.266 6.88542 421.656 6.6875C422.047 6.48958 422.503 6.39062 423.023 6.39062C423.555 6.39062 424.026 6.49479 424.438 6.70312C424.849 6.90625 425.195 7.19792 425.477 7.57812C425.758 7.95312 425.969 8.40625 426.109 8.9375C426.25 9.46354 426.32 10.0495 426.32 10.6953ZM424.438 10.8594V10.6953C424.438 10.3047 424.401 9.94271 424.328 9.60938C424.255 9.27083 424.141 8.97396 423.984 8.71875C423.828 8.46354 423.628 8.26562 423.383 8.125C423.143 7.97917 422.854 7.90625 422.516 7.90625C422.182 7.90625 421.896 7.96354 421.656 8.07812C421.417 8.1875 421.216 8.34115 421.055 8.53906C420.893 8.73698 420.768 8.96875 420.68 9.23438C420.591 9.49479 420.529 9.77865 420.492 10.0859V11.6016C420.555 11.9766 420.661 12.3203 420.812 12.6328C420.964 12.9453 421.177 13.1953 421.453 13.3828C421.734 13.5651 422.094 13.6562 422.531 13.6562C422.87 13.6562 423.159 13.5833 423.398 13.4375C423.638 13.2917 423.833 13.0911 423.984 12.8359C424.141 12.5755 424.255 12.276 424.328 11.9375C424.401 11.599 424.438 11.2396 424.438 10.8594ZM432.648 15.1562C432.023 15.1562 431.458 15.0547 430.953 14.8516C430.453 14.6432 430.026 14.3542 429.672 13.9844C429.323 13.6146 429.055 13.1797 428.867 12.6797C428.68 12.1797 428.586 11.6406 428.586 11.0625V10.75C428.586 10.0885 428.682 9.48958 428.875 8.95312C429.068 8.41667 429.336 7.95833 429.68 7.57812C430.023 7.19271 430.43 6.89844 430.898 6.69531C431.367 6.49219 431.875 6.39062 432.422 6.39062C433.026 6.39062 433.555 6.49219 434.008 6.69531C434.461 6.89844 434.836 7.1849 435.133 7.55469C435.435 7.91927 435.659 8.35417 435.805 8.85938C435.956 9.36458 436.031 9.92188 436.031 10.5312V11.3359H429.5V9.98438H434.172V9.83594C434.161 9.4974 434.094 9.17969 433.969 8.88281C433.849 8.58594 433.664 8.34635 433.414 8.16406C433.164 7.98177 432.831 7.89062 432.414 7.89062C432.102 7.89062 431.823 7.95833 431.578 8.09375C431.339 8.22396 431.138 8.41406 430.977 8.66406C430.815 8.91406 430.69 9.21615 430.602 9.57031C430.518 9.91927 430.477 10.3125 430.477 10.75V11.0625C430.477 11.4323 430.526 11.776 430.625 12.0938C430.729 12.4062 430.88 12.6797 431.078 12.9141C431.276 13.1484 431.516 13.3333 431.797 13.4688C432.078 13.599 432.398 13.6641 432.758 13.6641C433.211 13.6641 433.615 13.5729 433.969 13.3906C434.323 13.2083 434.63 12.9505 434.891 12.6172L435.883 13.5781C435.701 13.8438 435.464 14.099 435.172 14.3438C434.88 14.5833 434.523 14.7786 434.102 14.9297C433.685 15.0807 433.201 15.1562 432.648 15.1562ZM442.227 15.1562C441.602 15.1562 441.036 15.0547 440.531 14.8516C440.031 14.6432 439.604 14.3542 439.25 13.9844C438.901 13.6146 438.633 13.1797 438.445 12.6797C438.258 12.1797 438.164 11.6406 438.164 11.0625V10.75C438.164 10.0885 438.26 9.48958 438.453 8.95312C438.646 8.41667 438.914 7.95833 439.258 7.57812C439.602 7.19271 440.008 6.89844 440.477 6.69531C440.945 6.49219 441.453 6.39062 442 6.39062C442.604 6.39062 443.133 6.49219 443.586 6.69531C444.039 6.89844 444.414 7.1849 444.711 7.55469C445.013 7.91927 445.237 8.35417 445.383 8.85938C445.534 9.36458 445.609 9.92188 445.609 10.5312V11.3359H439.078V9.98438H443.75V9.83594C443.74 9.4974 443.672 9.17969 443.547 8.88281C443.427 8.58594 443.242 8.34635 442.992 8.16406C442.742 7.98177 442.409 7.89062 441.992 7.89062C441.68 7.89062 441.401 7.95833 441.156 8.09375C440.917 8.22396 440.716 8.41406 440.555 8.66406C440.393 8.91406 440.268 9.21615 440.18 9.57031C440.096 9.91927 440.055 10.3125 440.055 10.75V11.0625C440.055 11.4323 440.104 11.776 440.203 12.0938C440.307 12.4062 440.458 12.6797 440.656 12.9141C440.854 13.1484 441.094 13.3333 441.375 13.4688C441.656 13.599 441.977 13.6641 442.336 13.6641C442.789 13.6641 443.193 13.5729 443.547 13.3906C443.901 13.2083 444.208 12.9505 444.469 12.6172L445.461 13.5781C445.279 13.8438 445.042 14.099 444.75 14.3438C444.458 14.5833 444.102 14.7786 443.68 14.9297C443.263 15.0807 442.779 15.1562 442.227 15.1562ZM451.531 13.6562C451.839 13.6562 452.115 13.5964 452.359 13.4766C452.609 13.3516 452.81 13.1797 452.961 12.9609C453.117 12.7422 453.203 12.4896 453.219 12.2031H454.992C454.982 12.75 454.82 13.2474 454.508 13.6953C454.195 14.1432 453.781 14.5 453.266 14.7656C452.75 15.026 452.18 15.1562 451.555 15.1562C450.909 15.1562 450.346 15.0469 449.867 14.8281C449.388 14.6042 448.99 14.2969 448.672 13.9062C448.354 13.5156 448.115 13.0651 447.953 12.5547C447.797 12.0443 447.719 11.4974 447.719 10.9141V10.6406C447.719 10.0573 447.797 9.51042 447.953 9C448.115 8.48438 448.354 8.03125 448.672 7.64062C448.99 7.25 449.388 6.94531 449.867 6.72656C450.346 6.5026 450.906 6.39062 451.547 6.39062C452.224 6.39062 452.818 6.52604 453.328 6.79688C453.839 7.0625 454.24 7.4349 454.531 7.91406C454.828 8.38802 454.982 8.9401 454.992 9.57031H453.219C453.203 9.25781 453.125 8.97656 452.984 8.72656C452.849 8.47135 452.656 8.26823 452.406 8.11719C452.161 7.96615 451.867 7.89062 451.523 7.89062C451.143 7.89062 450.828 7.96875 450.578 8.125C450.328 8.27604 450.133 8.48438 449.992 8.75C449.852 9.01042 449.75 9.30469 449.688 9.63281C449.63 9.95573 449.602 10.2917 449.602 10.6406V10.9141C449.602 11.263 449.63 11.6016 449.688 11.9297C449.745 12.2578 449.844 12.5521 449.984 12.8125C450.13 13.0677 450.328 13.2734 450.578 13.4297C450.828 13.5807 451.146 13.6562 451.531 13.6562ZM459.297 3V15H457.422V3H459.297ZM458.969 10.4609L458.359 10.4531C458.365 9.86979 458.445 9.33073 458.602 8.83594C458.763 8.34115 458.987 7.91146 459.273 7.54688C459.565 7.17708 459.914 6.89323 460.32 6.69531C460.727 6.49219 461.177 6.39062 461.672 6.39062C462.089 6.39062 462.464 6.44792 462.797 6.5625C463.135 6.67708 463.427 6.86198 463.672 7.11719C463.917 7.36719 464.102 7.69531 464.227 8.10156C464.357 8.5026 464.422 8.99219 464.422 9.57031V15H462.531V9.55469C462.531 9.14844 462.471 8.82552 462.352 8.58594C462.237 8.34635 462.068 8.17448 461.844 8.07031C461.62 7.96094 461.346 7.90625 461.023 7.90625C460.685 7.90625 460.385 7.97396 460.125 8.10938C459.87 8.24479 459.656 8.42969 459.484 8.66406C459.312 8.89844 459.182 9.16927 459.094 9.47656C459.01 9.78385 458.969 10.112 458.969 10.4609ZM477.055 12.7109C477.055 12.5234 477.008 12.3542 476.914 12.2031C476.82 12.0469 476.641 11.9062 476.375 11.7812C476.115 11.6562 475.729 11.5417 475.219 11.4375C474.771 11.3385 474.359 11.2214 473.984 11.0859C473.615 10.9453 473.297 10.776 473.031 10.5781C472.766 10.3802 472.56 10.1458 472.414 9.875C472.268 9.60417 472.195 9.29167 472.195 8.9375C472.195 8.59375 472.271 8.26823 472.422 7.96094C472.573 7.65365 472.789 7.38281 473.07 7.14844C473.352 6.91406 473.693 6.72917 474.094 6.59375C474.5 6.45833 474.953 6.39062 475.453 6.39062C476.161 6.39062 476.768 6.51042 477.273 6.75C477.784 6.98438 478.174 7.30469 478.445 7.71094C478.716 8.11198 478.852 8.5651 478.852 9.07031H476.969C476.969 8.84635 476.911 8.63802 476.797 8.44531C476.688 8.2474 476.521 8.08854 476.297 7.96875C476.073 7.84375 475.792 7.78125 475.453 7.78125C475.13 7.78125 474.862 7.83333 474.648 7.9375C474.44 8.03646 474.284 8.16667 474.18 8.32812C474.081 8.48958 474.031 8.66667 474.031 8.85938C474.031 9 474.057 9.1276 474.109 9.24219C474.167 9.35156 474.26 9.45312 474.391 9.54688C474.521 9.63542 474.698 9.71875 474.922 9.79688C475.151 9.875 475.438 9.95052 475.781 10.0234C476.427 10.1589 476.982 10.3333 477.445 10.5469C477.914 10.7552 478.273 11.026 478.523 11.3594C478.773 11.6875 478.898 12.1042 478.898 12.6094C478.898 12.9844 478.818 13.3281 478.656 13.6406C478.5 13.9479 478.271 14.2161 477.969 14.4453C477.667 14.6693 477.305 14.8438 476.883 14.9688C476.466 15.0938 475.997 15.1562 475.477 15.1562C474.711 15.1562 474.062 15.0208 473.531 14.75C473 14.474 472.596 14.1224 472.32 13.6953C472.049 13.263 471.914 12.8151 471.914 12.3516H473.734C473.755 12.7005 473.852 12.9792 474.023 13.1875C474.201 13.3906 474.419 13.5391 474.68 13.6328C474.945 13.7214 475.219 13.7656 475.5 13.7656C475.839 13.7656 476.122 13.7214 476.352 13.6328C476.581 13.5391 476.755 13.4141 476.875 13.2578C476.995 13.0964 477.055 12.9141 477.055 12.7109ZM481.188 10.8672V10.6875C481.188 10.0781 481.276 9.51302 481.453 8.99219C481.63 8.46615 481.885 8.01042 482.219 7.625C482.557 7.23438 482.969 6.93229 483.453 6.71875C483.943 6.5 484.495 6.39062 485.109 6.39062C485.729 6.39062 486.281 6.5 486.766 6.71875C487.255 6.93229 487.669 7.23438 488.008 7.625C488.346 8.01042 488.604 8.46615 488.781 8.99219C488.958 9.51302 489.047 10.0781 489.047 10.6875V10.8672C489.047 11.4766 488.958 12.0417 488.781 12.5625C488.604 13.0833 488.346 13.5391 488.008 13.9297C487.669 14.3151 487.258 14.6172 486.773 14.8359C486.289 15.0495 485.74 15.1562 485.125 15.1562C484.505 15.1562 483.951 15.0495 483.461 14.8359C482.977 14.6172 482.565 14.3151 482.227 13.9297C481.888 13.5391 481.63 13.0833 481.453 12.5625C481.276 12.0417 481.188 11.4766 481.188 10.8672ZM483.07 10.6875V10.8672C483.07 11.2474 483.109 11.6068 483.188 11.9453C483.266 12.2839 483.388 12.5807 483.555 12.8359C483.721 13.0911 483.935 13.2917 484.195 13.4375C484.456 13.5833 484.766 13.6562 485.125 13.6562C485.474 13.6562 485.776 13.5833 486.031 13.4375C486.292 13.2917 486.505 13.0911 486.672 12.8359C486.839 12.5807 486.961 12.2839 487.039 11.9453C487.122 11.6068 487.164 11.2474 487.164 10.8672V10.6875C487.164 10.3125 487.122 9.95833 487.039 9.625C486.961 9.28646 486.836 8.98698 486.664 8.72656C486.497 8.46615 486.284 8.26302 486.023 8.11719C485.768 7.96615 485.464 7.89062 485.109 7.89062C484.755 7.89062 484.448 7.96615 484.188 8.11719C483.932 8.26302 483.721 8.46615 483.555 8.72656C483.388 8.98698 483.266 9.28646 483.188 9.625C483.109 9.95833 483.07 10.3125 483.07 10.6875ZM496.711 13.0078V6.54688H498.602V15H496.82L496.711 13.0078ZM496.977 11.25L497.609 11.2344C497.609 11.8021 497.547 12.3255 497.422 12.8047C497.297 13.2786 497.104 13.6927 496.844 14.0469C496.583 14.3958 496.25 14.6693 495.844 14.8672C495.438 15.0599 494.951 15.1562 494.383 15.1562C493.971 15.1562 493.594 15.0964 493.25 14.9766C492.906 14.8568 492.609 14.6719 492.359 14.4219C492.115 14.1719 491.924 13.8464 491.789 13.4453C491.654 13.0443 491.586 12.5651 491.586 12.0078V6.54688H493.469V12.0234C493.469 12.3307 493.505 12.5885 493.578 12.7969C493.651 13 493.75 13.1641 493.875 13.2891C494 13.4141 494.146 13.5026 494.312 13.5547C494.479 13.6068 494.656 13.6328 494.844 13.6328C495.38 13.6328 495.802 13.5286 496.109 13.3203C496.422 13.1068 496.643 12.8203 496.773 12.4609C496.909 12.1016 496.977 11.6979 496.977 11.25ZM503.398 8.35156V15H501.516V6.54688H503.289L503.398 8.35156ZM503.062 10.4609L502.453 10.4531C502.458 9.85417 502.542 9.30469 502.703 8.80469C502.87 8.30469 503.099 7.875 503.391 7.51562C503.688 7.15625 504.042 6.88021 504.453 6.6875C504.865 6.48958 505.323 6.39062 505.828 6.39062C506.234 6.39062 506.602 6.44792 506.93 6.5625C507.263 6.67188 507.547 6.85156 507.781 7.10156C508.021 7.35156 508.203 7.67708 508.328 8.07812C508.453 8.47396 508.516 8.96094 508.516 9.53906V15H506.625V9.53125C506.625 9.125 506.565 8.80469 506.445 8.57031C506.331 8.33073 506.161 8.16146 505.938 8.0625C505.719 7.95833 505.445 7.90625 505.117 7.90625C504.794 7.90625 504.505 7.97396 504.25 8.10938C503.995 8.24479 503.779 8.42969 503.602 8.66406C503.43 8.89844 503.297 9.16927 503.203 9.47656C503.109 9.78385 503.062 10.112 503.062 10.4609ZM516.594 13.25V3H518.484V15H516.773L516.594 13.25ZM511.094 10.8672V10.7031C511.094 10.0625 511.169 9.47917 511.32 8.95312C511.471 8.42188 511.69 7.96615 511.977 7.58594C512.263 7.20052 512.612 6.90625 513.023 6.70312C513.435 6.49479 513.898 6.39062 514.414 6.39062C514.924 6.39062 515.372 6.48958 515.758 6.6875C516.143 6.88542 516.471 7.16927 516.742 7.53906C517.013 7.90365 517.229 8.34115 517.391 8.85156C517.552 9.35677 517.667 9.91927 517.734 10.5391V11.0625C517.667 11.6667 517.552 12.2188 517.391 12.7188C517.229 13.2188 517.013 13.651 516.742 14.0156C516.471 14.3802 516.141 14.6615 515.75 14.8594C515.365 15.0573 514.914 15.1562 514.398 15.1562C513.888 15.1562 513.427 15.0495 513.016 14.8359C512.609 14.6224 512.263 14.3229 511.977 13.9375C511.69 13.5521 511.471 13.099 511.32 12.5781C511.169 12.0521 511.094 11.4818 511.094 10.8672ZM512.977 10.7031V10.8672C512.977 11.2526 513.01 11.612 513.078 11.9453C513.151 12.2786 513.263 12.5729 513.414 12.8281C513.565 13.0781 513.76 13.276 514 13.4219C514.245 13.5625 514.536 13.6328 514.875 13.6328C515.302 13.6328 515.654 13.5391 515.93 13.3516C516.206 13.1641 516.422 12.9115 516.578 12.5938C516.74 12.2708 516.849 11.9115 516.906 11.5156V10.1016C516.875 9.79427 516.81 9.50781 516.711 9.24219C516.617 8.97656 516.49 8.74479 516.328 8.54688C516.167 8.34375 515.966 8.1875 515.727 8.07812C515.492 7.96354 515.214 7.90625 514.891 7.90625C514.547 7.90625 514.255 7.97917 514.016 8.125C513.776 8.27083 513.578 8.47135 513.422 8.72656C513.271 8.98177 513.159 9.27865 513.086 9.61719C513.013 9.95573 512.977 10.3177 512.977 10.7031ZM526.195 12.7109C526.195 12.5234 526.148 12.3542 526.055 12.2031C525.961 12.0469 525.781 11.9062 525.516 11.7812C525.255 11.6562 524.87 11.5417 524.359 11.4375C523.911 11.3385 523.5 11.2214 523.125 11.0859C522.755 10.9453 522.438 10.776 522.172 10.5781C521.906 10.3802 521.701 10.1458 521.555 9.875C521.409 9.60417 521.336 9.29167 521.336 8.9375C521.336 8.59375 521.411 8.26823 521.562 7.96094C521.714 7.65365 521.93 7.38281 522.211 7.14844C522.492 6.91406 522.833 6.72917 523.234 6.59375C523.641 6.45833 524.094 6.39062 524.594 6.39062C525.302 6.39062 525.909 6.51042 526.414 6.75C526.924 6.98438 527.315 7.30469 527.586 7.71094C527.857 8.11198 527.992 8.5651 527.992 9.07031H526.109C526.109 8.84635 526.052 8.63802 525.938 8.44531C525.828 8.2474 525.661 8.08854 525.438 7.96875C525.214 7.84375 524.932 7.78125 524.594 7.78125C524.271 7.78125 524.003 7.83333 523.789 7.9375C523.581 8.03646 523.424 8.16667 523.32 8.32812C523.221 8.48958 523.172 8.66667 523.172 8.85938C523.172 9 523.198 9.1276 523.25 9.24219C523.307 9.35156 523.401 9.45312 523.531 9.54688C523.661 9.63542 523.839 9.71875 524.062 9.79688C524.292 9.875 524.578 9.95052 524.922 10.0234C525.568 10.1589 526.122 10.3333 526.586 10.5469C527.055 10.7552 527.414 11.026 527.664 11.3594C527.914 11.6875 528.039 12.1042 528.039 12.6094C528.039 12.9844 527.958 13.3281 527.797 13.6406C527.641 13.9479 527.411 14.2161 527.109 14.4453C526.807 14.6693 526.445 14.8438 526.023 14.9688C525.607 15.0938 525.138 15.1562 524.617 15.1562C523.852 15.1562 523.203 15.0208 522.672 14.75C522.141 14.474 521.737 14.1224 521.461 13.6953C521.19 13.263 521.055 12.8151 521.055 12.3516H522.875C522.896 12.7005 522.992 12.9792 523.164 13.1875C523.341 13.3906 523.56 13.5391 523.82 13.6328C524.086 13.7214 524.359 13.7656 524.641 13.7656C524.979 13.7656 525.263 13.7214 525.492 13.6328C525.721 13.5391 525.896 13.4141 526.016 13.2578C526.135 13.0964 526.195 12.9141 526.195 12.7109ZM532.453 13.1875L532.445 14.5312C532.445 15.0625 532.312 15.6094 532.047 16.1719C531.781 16.7344 531.43 17.1979 530.992 17.5625L529.984 16.9766C530.13 16.7422 530.263 16.5052 530.383 16.2656C530.503 16.026 530.599 15.7708 530.672 15.5C530.745 15.2292 530.781 14.9297 530.781 14.6016V13.1875H532.453ZM542.266 3V15H540.375V3H542.266ZM547.344 6.54688V15H545.453V6.54688H547.344ZM545.328 4.32812C545.328 4.04167 545.422 3.80469 545.609 3.61719C545.802 3.42448 546.068 3.32812 546.406 3.32812C546.74 3.32812 547.003 3.42448 547.195 3.61719C547.388 3.80469 547.484 4.04167 547.484 4.32812C547.484 4.60938 547.388 4.84375 547.195 5.03125C547.003 5.21875 546.74 5.3125 546.406 5.3125C546.068 5.3125 545.802 5.21875 545.609 5.03125C545.422 4.84375 545.328 4.60938 545.328 4.32812ZM552.305 3V15H550.414V3H552.305ZM557.555 6.54688L553.875 10.625L551.859 12.6875L551.367 11.0938L552.891 9.21094L555.281 6.54688H557.555ZM555.688 15L552.945 11.0312L554.133 9.71094L557.867 15H555.688ZM563.32 15.1562C562.695 15.1562 562.13 15.0547 561.625 14.8516C561.125 14.6432 560.698 14.3542 560.344 13.9844C559.995 13.6146 559.727 13.1797 559.539 12.6797C559.352 12.1797 559.258 11.6406 559.258 11.0625V10.75C559.258 10.0885 559.354 9.48958 559.547 8.95312C559.74 8.41667 560.008 7.95833 560.352 7.57812C560.695 7.19271 561.102 6.89844 561.57 6.69531C562.039 6.49219 562.547 6.39062 563.094 6.39062C563.698 6.39062 564.227 6.49219 564.68 6.69531C565.133 6.89844 565.508 7.1849 565.805 7.55469C566.107 7.91927 566.331 8.35417 566.477 8.85938C566.628 9.36458 566.703 9.92188 566.703 10.5312V11.3359H560.172V9.98438H564.844V9.83594C564.833 9.4974 564.766 9.17969 564.641 8.88281C564.521 8.58594 564.336 8.34635 564.086 8.16406C563.836 7.98177 563.503 7.89062 563.086 7.89062C562.773 7.89062 562.495 7.95833 562.25 8.09375C562.01 8.22396 561.81 8.41406 561.648 8.66406C561.487 8.91406 561.362 9.21615 561.273 9.57031C561.19 9.91927 561.148 10.3125 561.148 10.75V11.0625C561.148 11.4323 561.198 11.776 561.297 12.0938C561.401 12.4062 561.552 12.6797 561.75 12.9141C561.948 13.1484 562.188 13.3333 562.469 13.4688C562.75 13.599 563.07 13.6641 563.43 13.6641C563.883 13.6641 564.286 13.5729 564.641 13.3906C564.995 13.2083 565.302 12.9505 565.562 12.6172L566.555 13.5781C566.372 13.8438 566.135 14.099 565.844 14.3438C565.552 14.5833 565.195 14.7786 564.773 14.9297C564.357 15.0807 563.872 15.1562 563.32 15.1562ZM575.297 3V4.07031L575.023 7.0625H573.938V4.15625V3H575.297ZM577.641 3V4.07031L577.367 7.0625H576.281V4.09375V3H577.641ZM582.281 3V15H580.391V3H582.281ZM590.109 13.3047V9.27344C590.109 8.97135 590.055 8.71094 589.945 8.49219C589.836 8.27344 589.669 8.10417 589.445 7.98438C589.227 7.86458 588.951 7.80469 588.617 7.80469C588.31 7.80469 588.044 7.85677 587.82 7.96094C587.596 8.0651 587.422 8.20573 587.297 8.38281C587.172 8.5599 587.109 8.76042 587.109 8.98438H585.234C585.234 8.65104 585.315 8.32812 585.477 8.01562C585.638 7.70312 585.872 7.42448 586.18 7.17969C586.487 6.9349 586.854 6.74219 587.281 6.60156C587.708 6.46094 588.188 6.39062 588.719 6.39062C589.354 6.39062 589.917 6.4974 590.406 6.71094C590.901 6.92448 591.289 7.2474 591.57 7.67969C591.857 8.10677 592 8.64323 592 9.28906V13.0469C592 13.4323 592.026 13.7786 592.078 14.0859C592.135 14.388 592.216 14.651 592.32 14.875V15H590.391C590.302 14.7969 590.232 14.5391 590.18 14.2266C590.133 13.9089 590.109 13.6016 590.109 13.3047ZM590.383 9.85938L590.398 11.0234H589.047C588.698 11.0234 588.391 11.0573 588.125 11.125C587.859 11.1875 587.638 11.2812 587.461 11.4062C587.284 11.5312 587.151 11.6823 587.062 11.8594C586.974 12.0365 586.93 12.237 586.93 12.4609C586.93 12.6849 586.982 12.8906 587.086 13.0781C587.19 13.2604 587.341 13.4036 587.539 13.5078C587.742 13.612 587.987 13.6641 588.273 13.6641C588.659 13.6641 588.995 13.5859 589.281 13.4297C589.573 13.2682 589.802 13.0729 589.969 12.8438C590.135 12.6094 590.224 12.388 590.234 12.1797L590.844 13.0156C590.781 13.2292 590.674 13.4583 590.523 13.7031C590.372 13.9479 590.174 14.1823 589.93 14.4062C589.69 14.625 589.401 14.8047 589.062 14.9453C588.729 15.0859 588.344 15.1562 587.906 15.1562C587.354 15.1562 586.862 15.0469 586.43 14.8281C585.997 14.6042 585.659 14.3047 585.414 13.9297C585.169 13.5495 585.047 13.1198 585.047 12.6406C585.047 12.1927 585.13 11.7969 585.297 11.4531C585.469 11.1042 585.719 10.8125 586.047 10.5781C586.38 10.3438 586.786 10.1667 587.266 10.0469C587.745 9.92188 588.292 9.85938 588.906 9.85938H590.383ZM598.758 9.39062V10.8906H594.625V9.39062H598.758ZM603.422 3V15H601.531V3H603.422ZM611.25 13.3047V9.27344C611.25 8.97135 611.195 8.71094 611.086 8.49219C610.977 8.27344 610.81 8.10417 610.586 7.98438C610.367 7.86458 610.091 7.80469 609.758 7.80469C609.451 7.80469 609.185 7.85677 608.961 7.96094C608.737 8.0651 608.562 8.20573 608.438 8.38281C608.312 8.5599 608.25 8.76042 608.25 8.98438H606.375C606.375 8.65104 606.456 8.32812 606.617 8.01562C606.779 7.70312 607.013 7.42448 607.32 7.17969C607.628 6.9349 607.995 6.74219 608.422 6.60156C608.849 6.46094 609.328 6.39062 609.859 6.39062C610.495 6.39062 611.057 6.4974 611.547 6.71094C612.042 6.92448 612.43 7.2474 612.711 7.67969C612.997 8.10677 613.141 8.64323 613.141 9.28906V13.0469C613.141 13.4323 613.167 13.7786 613.219 14.0859C613.276 14.388 613.357 14.651 613.461 14.875V15H611.531C611.443 14.7969 611.372 14.5391 611.32 14.2266C611.273 13.9089 611.25 13.6016 611.25 13.3047ZM611.523 9.85938L611.539 11.0234H610.188C609.839 11.0234 609.531 11.0573 609.266 11.125C609 11.1875 608.779 11.2812 608.602 11.4062C608.424 11.5312 608.292 11.6823 608.203 11.8594C608.115 12.0365 608.07 12.237 608.07 12.4609C608.07 12.6849 608.122 12.8906 608.227 13.0781C608.331 13.2604 608.482 13.4036 608.68 13.5078C608.883 13.612 609.128 13.6641 609.414 13.6641C609.799 13.6641 610.135 13.5859 610.422 13.4297C610.714 13.2682 610.943 13.0729 611.109 12.8438C611.276 12.6094 611.365 12.388 611.375 12.1797L611.984 13.0156C611.922 13.2292 611.815 13.4583 611.664 13.7031C611.513 13.9479 611.315 14.1823 611.07 14.4062C610.831 14.625 610.542 14.8047 610.203 14.9453C609.87 15.0859 609.484 15.1562 609.047 15.1562C608.495 15.1562 608.003 15.0469 607.57 14.8281C607.138 14.6042 606.799 14.3047 606.555 13.9297C606.31 13.5495 606.188 13.1198 606.188 12.6406C606.188 12.1927 606.271 11.7969 606.438 11.4531C606.609 11.1042 606.859 10.8125 607.188 10.5781C607.521 10.3438 607.927 10.1667 608.406 10.0469C608.885 9.92188 609.432 9.85938 610.047 9.85938H611.523ZM619.898 9.39062V10.8906H615.766V9.39062H619.898ZM624.562 3V15H622.672V3H624.562ZM632.391 13.3047V9.27344C632.391 8.97135 632.336 8.71094 632.227 8.49219C632.117 8.27344 631.951 8.10417 631.727 7.98438C631.508 7.86458 631.232 7.80469 630.898 7.80469C630.591 7.80469 630.326 7.85677 630.102 7.96094C629.878 8.0651 629.703 8.20573 629.578 8.38281C629.453 8.5599 629.391 8.76042 629.391 8.98438H627.516C627.516 8.65104 627.596 8.32812 627.758 8.01562C627.919 7.70312 628.154 7.42448 628.461 7.17969C628.768 6.9349 629.135 6.74219 629.562 6.60156C629.99 6.46094 630.469 6.39062 631 6.39062C631.635 6.39062 632.198 6.4974 632.688 6.71094C633.182 6.92448 633.57 7.2474 633.852 7.67969C634.138 8.10677 634.281 8.64323 634.281 9.28906V13.0469C634.281 13.4323 634.307 13.7786 634.359 14.0859C634.417 14.388 634.497 14.651 634.602 14.875V15H632.672C632.583 14.7969 632.513 14.5391 632.461 14.2266C632.414 13.9089 632.391 13.6016 632.391 13.3047ZM632.664 9.85938L632.68 11.0234H631.328C630.979 11.0234 630.672 11.0573 630.406 11.125C630.141 11.1875 629.919 11.2812 629.742 11.4062C629.565 11.5312 629.432 11.6823 629.344 11.8594C629.255 12.0365 629.211 12.237 629.211 12.4609C629.211 12.6849 629.263 12.8906 629.367 13.0781C629.471 13.2604 629.622 13.4036 629.82 13.5078C630.023 13.612 630.268 13.6641 630.555 13.6641C630.94 13.6641 631.276 13.5859 631.562 13.4297C631.854 13.2682 632.083 13.0729 632.25 12.8438C632.417 12.6094 632.505 12.388 632.516 12.1797L633.125 13.0156C633.062 13.2292 632.956 13.4583 632.805 13.7031C632.654 13.9479 632.456 14.1823 632.211 14.4062C631.971 14.625 631.682 14.8047 631.344 14.9453C631.01 15.0859 630.625 15.1562 630.188 15.1562C629.635 15.1562 629.143 15.0469 628.711 14.8281C628.279 14.6042 627.94 14.3047 627.695 13.9297C627.451 13.5495 627.328 13.1198 627.328 12.6406C627.328 12.1927 627.411 11.7969 627.578 11.4531C627.75 11.1042 628 10.8125 628.328 10.5781C628.661 10.3438 629.068 10.1667 629.547 10.0469C630.026 9.92188 630.573 9.85938 631.188 9.85938H632.664ZM638 3V4.07031L637.727 7.0625H636.641V4.15625V3H638ZM640.344 3V4.07031L640.07 7.0625H638.984V4.09375V3H640.344ZM647.594 10.8672V10.6875C647.594 10.0781 647.682 9.51302 647.859 8.99219C648.036 8.46615 648.292 8.01042 648.625 7.625C648.964 7.23438 649.375 6.93229 649.859 6.71875C650.349 6.5 650.901 6.39062 651.516 6.39062C652.135 6.39062 652.688 6.5 653.172 6.71875C653.661 6.93229 654.076 7.23438 654.414 7.625C654.753 8.01042 655.01 8.46615 655.188 8.99219C655.365 9.51302 655.453 10.0781 655.453 10.6875V10.8672C655.453 11.4766 655.365 12.0417 655.188 12.5625C655.01 13.0833 654.753 13.5391 654.414 13.9297C654.076 14.3151 653.664 14.6172 653.18 14.8359C652.695 15.0495 652.146 15.1562 651.531 15.1562C650.911 15.1562 650.357 15.0495 649.867 14.8359C649.383 14.6172 648.971 14.3151 648.633 13.9297C648.294 13.5391 648.036 13.0833 647.859 12.5625C647.682 12.0417 647.594 11.4766 647.594 10.8672ZM649.477 10.6875V10.8672C649.477 11.2474 649.516 11.6068 649.594 11.9453C649.672 12.2839 649.794 12.5807 649.961 12.8359C650.128 13.0911 650.341 13.2917 650.602 13.4375C650.862 13.5833 651.172 13.6562 651.531 13.6562C651.88 13.6562 652.182 13.5833 652.438 13.4375C652.698 13.2917 652.911 13.0911 653.078 12.8359C653.245 12.5807 653.367 12.2839 653.445 11.9453C653.529 11.6068 653.57 11.2474 653.57 10.8672V10.6875C653.57 10.3125 653.529 9.95833 653.445 9.625C653.367 9.28646 653.242 8.98698 653.07 8.72656C652.904 8.46615 652.69 8.26302 652.43 8.11719C652.174 7.96615 651.87 7.89062 651.516 7.89062C651.161 7.89062 650.854 7.96615 650.594 8.11719C650.339 8.26302 650.128 8.46615 649.961 8.72656C649.794 8.98698 649.672 9.28646 649.594 9.625C649.516 9.95833 649.477 10.3125 649.477 10.6875ZM659.922 8.15625V15H658.039V6.54688H659.836L659.922 8.15625ZM662.508 6.49219L662.492 8.24219C662.378 8.22135 662.253 8.20573 662.117 8.19531C661.987 8.1849 661.857 8.17969 661.727 8.17969C661.404 8.17969 661.12 8.22656 660.875 8.32031C660.63 8.40885 660.424 8.53906 660.258 8.71094C660.096 8.8776 659.971 9.08073 659.883 9.32031C659.794 9.5599 659.742 9.82812 659.727 10.125L659.297 10.1562C659.297 9.625 659.349 9.13281 659.453 8.67969C659.557 8.22656 659.714 7.82812 659.922 7.48438C660.135 7.14062 660.401 6.8724 660.719 6.67969C661.042 6.48698 661.414 6.39062 661.836 6.39062C661.951 6.39062 662.073 6.40104 662.203 6.42188C662.339 6.44271 662.44 6.46615 662.508 6.49219ZM670.812 3V4.07031L670.539 7.0625H669.453V4.15625V3H670.812ZM673.156 3V4.07031L672.883 7.0625H671.797V4.09375V3H673.156ZM675.789 3H677.672V13.1953L677.492 15H675.789V3ZM683.188 10.6953V10.8594C683.188 11.4844 683.117 12.0599 682.977 12.5859C682.841 13.1068 682.633 13.5599 682.352 13.9453C682.076 14.3307 681.732 14.6302 681.32 14.8438C680.914 15.0521 680.443 15.1562 679.906 15.1562C679.38 15.1562 678.922 15.0573 678.531 14.8594C678.141 14.6615 677.812 14.3802 677.547 14.0156C677.286 13.651 677.076 13.2161 676.914 12.7109C676.753 12.2057 676.638 11.6484 676.57 11.0391V10.5156C676.638 9.90104 676.753 9.34375 676.914 8.84375C677.076 8.33854 677.286 7.90365 677.547 7.53906C677.812 7.16927 678.138 6.88542 678.523 6.6875C678.914 6.48958 679.37 6.39062 679.891 6.39062C680.432 6.39062 680.909 6.49479 681.32 6.70312C681.737 6.91146 682.083 7.20833 682.359 7.59375C682.635 7.97396 682.841 8.42708 682.977 8.95312C683.117 9.47917 683.188 10.0599 683.188 10.6953ZM681.305 10.8594V10.6953C681.305 10.3151 681.273 9.95833 681.211 9.625C681.148 9.28646 681.044 8.98958 680.898 8.73438C680.758 8.47917 680.565 8.27865 680.32 8.13281C680.081 7.98177 679.781 7.90625 679.422 7.90625C679.089 7.90625 678.802 7.96354 678.562 8.07812C678.323 8.19271 678.122 8.34896 677.961 8.54688C677.799 8.74479 677.672 8.97396 677.578 9.23438C677.49 9.49479 677.43 9.77604 677.398 10.0781V11.4922C677.445 11.8828 677.544 12.2422 677.695 12.5703C677.852 12.8932 678.07 13.1536 678.352 13.3516C678.633 13.5443 678.995 13.6406 679.438 13.6406C679.786 13.6406 680.081 13.5703 680.32 13.4297C680.56 13.2891 680.75 13.0938 680.891 12.8438C681.036 12.5885 681.141 12.2917 681.203 11.9531C681.271 11.6146 681.305 11.25 681.305 10.8594ZM690.547 13.3047V9.27344C690.547 8.97135 690.492 8.71094 690.383 8.49219C690.273 8.27344 690.107 8.10417 689.883 7.98438C689.664 7.86458 689.388 7.80469 689.055 7.80469C688.747 7.80469 688.482 7.85677 688.258 7.96094C688.034 8.0651 687.859 8.20573 687.734 8.38281C687.609 8.5599 687.547 8.76042 687.547 8.98438H685.672C685.672 8.65104 685.753 8.32812 685.914 8.01562C686.076 7.70312 686.31 7.42448 686.617 7.17969C686.924 6.9349 687.292 6.74219 687.719 6.60156C688.146 6.46094 688.625 6.39062 689.156 6.39062C689.792 6.39062 690.354 6.4974 690.844 6.71094C691.339 6.92448 691.727 7.2474 692.008 7.67969C692.294 8.10677 692.438 8.64323 692.438 9.28906V13.0469C692.438 13.4323 692.464 13.7786 692.516 14.0859C692.573 14.388 692.654 14.651 692.758 14.875V15H690.828C690.74 14.7969 690.669 14.5391 690.617 14.2266C690.57 13.9089 690.547 13.6016 690.547 13.3047ZM690.82 9.85938L690.836 11.0234H689.484C689.135 11.0234 688.828 11.0573 688.562 11.125C688.297 11.1875 688.076 11.2812 687.898 11.4062C687.721 11.5312 687.589 11.6823 687.5 11.8594C687.411 12.0365 687.367 12.237 687.367 12.4609C687.367 12.6849 687.419 12.8906 687.523 13.0781C687.628 13.2604 687.779 13.4036 687.977 13.5078C688.18 13.612 688.424 13.6641 688.711 13.6641C689.096 13.6641 689.432 13.5859 689.719 13.4297C690.01 13.2682 690.24 13.0729 690.406 12.8438C690.573 12.6094 690.661 12.388 690.672 12.1797L691.281 13.0156C691.219 13.2292 691.112 13.4583 690.961 13.7031C690.81 13.9479 690.612 14.1823 690.367 14.4062C690.128 14.625 689.839 14.8047 689.5 14.9453C689.167 15.0859 688.781 15.1562 688.344 15.1562C687.792 15.1562 687.299 15.0469 686.867 14.8281C686.435 14.6042 686.096 14.3047 685.852 13.9297C685.607 13.5495 685.484 13.1198 685.484 12.6406C685.484 12.1927 685.568 11.7969 685.734 11.4531C685.906 11.1042 686.156 10.8125 686.484 10.5781C686.818 10.3438 687.224 10.1667 687.703 10.0469C688.182 9.92188 688.729 9.85938 689.344 9.85938H690.82ZM699.195 9.39062V10.8906H695.062V9.39062H699.195ZM701.852 3H703.734V13.1953L703.555 15H701.852V3ZM709.25 10.6953V10.8594C709.25 11.4844 709.18 12.0599 709.039 12.5859C708.904 13.1068 708.695 13.5599 708.414 13.9453C708.138 14.3307 707.794 14.6302 707.383 14.8438C706.977 15.0521 706.505 15.1562 705.969 15.1562C705.443 15.1562 704.984 15.0573 704.594 14.8594C704.203 14.6615 703.875 14.3802 703.609 14.0156C703.349 13.651 703.138 13.2161 702.977 12.7109C702.815 12.2057 702.701 11.6484 702.633 11.0391V10.5156C702.701 9.90104 702.815 9.34375 702.977 8.84375C703.138 8.33854 703.349 7.90365 703.609 7.53906C703.875 7.16927 704.201 6.88542 704.586 6.6875C704.977 6.48958 705.432 6.39062 705.953 6.39062C706.495 6.39062 706.971 6.49479 707.383 6.70312C707.799 6.91146 708.146 7.20833 708.422 7.59375C708.698 7.97396 708.904 8.42708 709.039 8.95312C709.18 9.47917 709.25 10.0599 709.25 10.6953ZM707.367 10.8594V10.6953C707.367 10.3151 707.336 9.95833 707.273 9.625C707.211 9.28646 707.107 8.98958 706.961 8.73438C706.82 8.47917 706.628 8.27865 706.383 8.13281C706.143 7.98177 705.844 7.90625 705.484 7.90625C705.151 7.90625 704.865 7.96354 704.625 8.07812C704.385 8.19271 704.185 8.34896 704.023 8.54688C703.862 8.74479 703.734 8.97396 703.641 9.23438C703.552 9.49479 703.492 9.77604 703.461 10.0781V11.4922C703.508 11.8828 703.607 12.2422 703.758 12.5703C703.914 12.8932 704.133 13.1536 704.414 13.3516C704.695 13.5443 705.057 13.6406 705.5 13.6406C705.849 13.6406 706.143 13.5703 706.383 13.4297C706.622 13.2891 706.812 13.0938 706.953 12.8438C707.099 12.5885 707.203 12.2917 707.266 11.9531C707.333 11.6146 707.367 11.25 707.367 10.8594ZM716.609 13.3047V9.27344C716.609 8.97135 716.555 8.71094 716.445 8.49219C716.336 8.27344 716.169 8.10417 715.945 7.98438C715.727 7.86458 715.451 7.80469 715.117 7.80469C714.81 7.80469 714.544 7.85677 714.32 7.96094C714.096 8.0651 713.922 8.20573 713.797 8.38281C713.672 8.5599 713.609 8.76042 713.609 8.98438H711.734C711.734 8.65104 711.815 8.32812 711.977 8.01562C712.138 7.70312 712.372 7.42448 712.68 7.17969C712.987 6.9349 713.354 6.74219 713.781 6.60156C714.208 6.46094 714.688 6.39062 715.219 6.39062C715.854 6.39062 716.417 6.4974 716.906 6.71094C717.401 6.92448 717.789 7.2474 718.07 7.67969C718.357 8.10677 718.5 8.64323 718.5 9.28906V13.0469C718.5 13.4323 718.526 13.7786 718.578 14.0859C718.635 14.388 718.716 14.651 718.82 14.875V15H716.891C716.802 14.7969 716.732 14.5391 716.68 14.2266C716.633 13.9089 716.609 13.6016 716.609 13.3047ZM716.883 9.85938L716.898 11.0234H715.547C715.198 11.0234 714.891 11.0573 714.625 11.125C714.359 11.1875 714.138 11.2812 713.961 11.4062C713.784 11.5312 713.651 11.6823 713.562 11.8594C713.474 12.0365 713.43 12.237 713.43 12.4609C713.43 12.6849 713.482 12.8906 713.586 13.0781C713.69 13.2604 713.841 13.4036 714.039 13.5078C714.242 13.612 714.487 13.6641 714.773 13.6641C715.159 13.6641 715.495 13.5859 715.781 13.4297C716.073 13.2682 716.302 13.0729 716.469 12.8438C716.635 12.6094 716.724 12.388 716.734 12.1797L717.344 13.0156C717.281 13.2292 717.174 13.4583 717.023 13.7031C716.872 13.9479 716.674 14.1823 716.43 14.4062C716.19 14.625 715.901 14.8047 715.562 14.9453C715.229 15.0859 714.844 15.1562 714.406 15.1562C713.854 15.1562 713.362 15.0469 712.93 14.8281C712.497 14.6042 712.159 14.3047 711.914 13.9297C711.669 13.5495 711.547 13.1198 711.547 12.6406C711.547 12.1927 711.63 11.7969 711.797 11.4531C711.969 11.1042 712.219 10.8125 712.547 10.5781C712.88 10.3438 713.286 10.1667 713.766 10.0469C714.245 9.92188 714.792 9.85938 715.406 9.85938H716.883ZM725.258 9.39062V10.8906H721.125V9.39062H725.258ZM727.914 3H729.797V13.1953L729.617 15H727.914V3ZM735.312 10.6953V10.8594C735.312 11.4844 735.242 12.0599 735.102 12.5859C734.966 13.1068 734.758 13.5599 734.477 13.9453C734.201 14.3307 733.857 14.6302 733.445 14.8438C733.039 15.0521 732.568 15.1562 732.031 15.1562C731.505 15.1562 731.047 15.0573 730.656 14.8594C730.266 14.6615 729.938 14.3802 729.672 14.0156C729.411 13.651 729.201 13.2161 729.039 12.7109C728.878 12.2057 728.763 11.6484 728.695 11.0391V10.5156C728.763 9.90104 728.878 9.34375 729.039 8.84375C729.201 8.33854 729.411 7.90365 729.672 7.53906C729.938 7.16927 730.263 6.88542 730.648 6.6875C731.039 6.48958 731.495 6.39062 732.016 6.39062C732.557 6.39062 733.034 6.49479 733.445 6.70312C733.862 6.91146 734.208 7.20833 734.484 7.59375C734.76 7.97396 734.966 8.42708 735.102 8.95312C735.242 9.47917 735.312 10.0599 735.312 10.6953ZM733.43 10.8594V10.6953C733.43 10.3151 733.398 9.95833 733.336 9.625C733.273 9.28646 733.169 8.98958 733.023 8.73438C732.883 8.47917 732.69 8.27865 732.445 8.13281C732.206 7.98177 731.906 7.90625 731.547 7.90625C731.214 7.90625 730.927 7.96354 730.688 8.07812C730.448 8.19271 730.247 8.34896 730.086 8.54688C729.924 8.74479 729.797 8.97396 729.703 9.23438C729.615 9.49479 729.555 9.77604 729.523 10.0781V11.4922C729.57 11.8828 729.669 12.2422 729.82 12.5703C729.977 12.8932 730.195 13.1536 730.477 13.3516C730.758 13.5443 731.12 13.6406 731.562 13.6406C731.911 13.6406 732.206 13.5703 732.445 13.4297C732.685 13.2891 732.875 13.0938 733.016 12.8438C733.161 12.5885 733.266 12.2917 733.328 11.9531C733.396 11.6146 733.43 11.25 733.43 10.8594ZM742.672 13.3047V9.27344C742.672 8.97135 742.617 8.71094 742.508 8.49219C742.398 8.27344 742.232 8.10417 742.008 7.98438C741.789 7.86458 741.513 7.80469 741.18 7.80469C740.872 7.80469 740.607 7.85677 740.383 7.96094C740.159 8.0651 739.984 8.20573 739.859 8.38281C739.734 8.5599 739.672 8.76042 739.672 8.98438H737.797C737.797 8.65104 737.878 8.32812 738.039 8.01562C738.201 7.70312 738.435 7.42448 738.742 7.17969C739.049 6.9349 739.417 6.74219 739.844 6.60156C740.271 6.46094 740.75 6.39062 741.281 6.39062C741.917 6.39062 742.479 6.4974 742.969 6.71094C743.464 6.92448 743.852 7.2474 744.133 7.67969C744.419 8.10677 744.562 8.64323 744.562 9.28906V13.0469C744.562 13.4323 744.589 13.7786 744.641 14.0859C744.698 14.388 744.779 14.651 744.883 14.875V15H742.953C742.865 14.7969 742.794 14.5391 742.742 14.2266C742.695 13.9089 742.672 13.6016 742.672 13.3047ZM742.945 9.85938L742.961 11.0234H741.609C741.26 11.0234 740.953 11.0573 740.688 11.125C740.422 11.1875 740.201 11.2812 740.023 11.4062C739.846 11.5312 739.714 11.6823 739.625 11.8594C739.536 12.0365 739.492 12.237 739.492 12.4609C739.492 12.6849 739.544 12.8906 739.648 13.0781C739.753 13.2604 739.904 13.4036 740.102 13.5078C740.305 13.612 740.549 13.6641 740.836 13.6641C741.221 13.6641 741.557 13.5859 741.844 13.4297C742.135 13.2682 742.365 13.0729 742.531 12.8438C742.698 12.6094 742.786 12.388 742.797 12.1797L743.406 13.0156C743.344 13.2292 743.237 13.4583 743.086 13.7031C742.935 13.9479 742.737 14.1823 742.492 14.4062C742.253 14.625 741.964 14.8047 741.625 14.9453C741.292 15.0859 740.906 15.1562 740.469 15.1562C739.917 15.1562 739.424 15.0469 738.992 14.8281C738.56 14.6042 738.221 14.3047 737.977 13.9297C737.732 13.5495 737.609 13.1198 737.609 12.6406C737.609 12.1927 737.693 11.7969 737.859 11.4531C738.031 11.1042 738.281 10.8125 738.609 10.5781C738.943 10.3438 739.349 10.1667 739.828 10.0469C740.307 9.92188 740.854 9.85938 741.469 9.85938H742.945ZM749.297 13.1875L749.289 14.5312C749.289 15.0625 749.156 15.6094 748.891 16.1719C748.625 16.7344 748.273 17.1979 747.836 17.5625L746.828 16.9766C746.974 16.7422 747.107 16.5052 747.227 16.2656C747.346 16.026 747.443 15.7708 747.516 15.5C747.589 15.2292 747.625 14.9297 747.625 14.6016V13.1875H749.297ZM751.594 3V4.07031L751.32 7.0625H750.234V4.15625V3H751.594ZM753.938 3V4.07031L753.664 7.0625H752.578V4.09375V3H753.938ZM766.312 13.3047V9.27344C766.312 8.97135 766.258 8.71094 766.148 8.49219C766.039 8.27344 765.872 8.10417 765.648 7.98438C765.43 7.86458 765.154 7.80469 764.82 7.80469C764.513 7.80469 764.247 7.85677 764.023 7.96094C763.799 8.0651 763.625 8.20573 763.5 8.38281C763.375 8.5599 763.312 8.76042 763.312 8.98438H761.438C761.438 8.65104 761.518 8.32812 761.68 8.01562C761.841 7.70312 762.076 7.42448 762.383 7.17969C762.69 6.9349 763.057 6.74219 763.484 6.60156C763.911 6.46094 764.391 6.39062 764.922 6.39062C765.557 6.39062 766.12 6.4974 766.609 6.71094C767.104 6.92448 767.492 7.2474 767.773 7.67969C768.06 8.10677 768.203 8.64323 768.203 9.28906V13.0469C768.203 13.4323 768.229 13.7786 768.281 14.0859C768.339 14.388 768.419 14.651 768.523 14.875V15H766.594C766.505 14.7969 766.435 14.5391 766.383 14.2266C766.336 13.9089 766.312 13.6016 766.312 13.3047ZM766.586 9.85938L766.602 11.0234H765.25C764.901 11.0234 764.594 11.0573 764.328 11.125C764.062 11.1875 763.841 11.2812 763.664 11.4062C763.487 11.5312 763.354 11.6823 763.266 11.8594C763.177 12.0365 763.133 12.237 763.133 12.4609C763.133 12.6849 763.185 12.8906 763.289 13.0781C763.393 13.2604 763.544 13.4036 763.742 13.5078C763.945 13.612 764.19 13.6641 764.477 13.6641C764.862 13.6641 765.198 13.5859 765.484 13.4297C765.776 13.2682 766.005 13.0729 766.172 12.8438C766.339 12.6094 766.427 12.388 766.438 12.1797L767.047 13.0156C766.984 13.2292 766.878 13.4583 766.727 13.7031C766.576 13.9479 766.378 14.1823 766.133 14.4062C765.893 14.625 765.604 14.8047 765.266 14.9453C764.932 15.0859 764.547 15.1562 764.109 15.1562C763.557 15.1562 763.065 15.0469 762.633 14.8281C762.201 14.6042 761.862 14.3047 761.617 13.9297C761.372 13.5495 761.25 13.1198 761.25 12.6406C761.25 12.1927 761.333 11.7969 761.5 11.4531C761.672 11.1042 761.922 10.8125 762.25 10.5781C762.583 10.3438 762.99 10.1667 763.469 10.0469C763.948 9.92188 764.495 9.85938 765.109 9.85938H766.586ZM773.062 8.15625V15H771.18V6.54688H772.977L773.062 8.15625ZM775.648 6.49219L775.633 8.24219C775.518 8.22135 775.393 8.20573 775.258 8.19531C775.128 8.1849 774.997 8.17969 774.867 8.17969C774.544 8.17969 774.26 8.22656 774.016 8.32031C773.771 8.40885 773.565 8.53906 773.398 8.71094C773.237 8.8776 773.112 9.08073 773.023 9.32031C772.935 9.5599 772.883 9.82812 772.867 10.125L772.438 10.1562C772.438 9.625 772.49 9.13281 772.594 8.67969C772.698 8.22656 772.854 7.82812 773.062 7.48438C773.276 7.14062 773.542 6.8724 773.859 6.67969C774.182 6.48698 774.555 6.39062 774.977 6.39062C775.091 6.39062 775.214 6.40104 775.344 6.42188C775.479 6.44271 775.581 6.46615 775.648 6.49219ZM781.398 15.1562C780.773 15.1562 780.208 15.0547 779.703 14.8516C779.203 14.6432 778.776 14.3542 778.422 13.9844C778.073 13.6146 777.805 13.1797 777.617 12.6797C777.43 12.1797 777.336 11.6406 777.336 11.0625V10.75C777.336 10.0885 777.432 9.48958 777.625 8.95312C777.818 8.41667 778.086 7.95833 778.43 7.57812C778.773 7.19271 779.18 6.89844 779.648 6.69531C780.117 6.49219 780.625 6.39062 781.172 6.39062C781.776 6.39062 782.305 6.49219 782.758 6.69531C783.211 6.89844 783.586 7.1849 783.883 7.55469C784.185 7.91927 784.409 8.35417 784.555 8.85938C784.706 9.36458 784.781 9.92188 784.781 10.5312V11.3359H778.25V9.98438H782.922V9.83594C782.911 9.4974 782.844 9.17969 782.719 8.88281C782.599 8.58594 782.414 8.34635 782.164 8.16406C781.914 7.98177 781.581 7.89062 781.164 7.89062C780.852 7.89062 780.573 7.95833 780.328 8.09375C780.089 8.22396 779.888 8.41406 779.727 8.66406C779.565 8.91406 779.44 9.21615 779.352 9.57031C779.268 9.91927 779.227 10.3125 779.227 10.75V11.0625C779.227 11.4323 779.276 11.776 779.375 12.0938C779.479 12.4062 779.63 12.6797 779.828 12.9141C780.026 13.1484 780.266 13.3333 780.547 13.4688C780.828 13.599 781.148 13.6641 781.508 13.6641C781.961 13.6641 782.365 13.5729 782.719 13.3906C783.073 13.2083 783.38 12.9505 783.641 12.6172L784.633 13.5781C784.451 13.8438 784.214 14.099 783.922 14.3438C783.63 14.5833 783.273 14.7786 782.852 14.9297C782.435 15.0807 781.951 15.1562 781.398 15.1562ZM794.094 3V15H792.219V3H794.094ZM793.766 10.4609L793.156 10.4531C793.161 9.86979 793.242 9.33073 793.398 8.83594C793.56 8.34115 793.784 7.91146 794.07 7.54688C794.362 7.17708 794.711 6.89323 795.117 6.69531C795.523 6.49219 795.974 6.39062 796.469 6.39062C796.885 6.39062 797.26 6.44792 797.594 6.5625C797.932 6.67708 798.224 6.86198 798.469 7.11719C798.714 7.36719 798.898 7.69531 799.023 8.10156C799.154 8.5026 799.219 8.99219 799.219 9.57031V15H797.328V9.55469C797.328 9.14844 797.268 8.82552 797.148 8.58594C797.034 8.34635 796.865 8.17448 796.641 8.07031C796.417 7.96094 796.143 7.90625 795.82 7.90625C795.482 7.90625 795.182 7.97396 794.922 8.10938C794.667 8.24479 794.453 8.42969 794.281 8.66406C794.109 8.89844 793.979 9.16927 793.891 9.47656C793.807 9.78385 793.766 10.112 793.766 10.4609ZM805.852 15.1562C805.227 15.1562 804.661 15.0547 804.156 14.8516C803.656 14.6432 803.229 14.3542 802.875 13.9844C802.526 13.6146 802.258 13.1797 802.07 12.6797C801.883 12.1797 801.789 11.6406 801.789 11.0625V10.75C801.789 10.0885 801.885 9.48958 802.078 8.95312C802.271 8.41667 802.539 7.95833 802.883 7.57812C803.227 7.19271 803.633 6.89844 804.102 6.69531C804.57 6.49219 805.078 6.39062 805.625 6.39062C806.229 6.39062 806.758 6.49219 807.211 6.69531C807.664 6.89844 808.039 7.1849 808.336 7.55469C808.638 7.91927 808.862 8.35417 809.008 8.85938C809.159 9.36458 809.234 9.92188 809.234 10.5312V11.3359H802.703V9.98438H807.375V9.83594C807.365 9.4974 807.297 9.17969 807.172 8.88281C807.052 8.58594 806.867 8.34635 806.617 8.16406C806.367 7.98177 806.034 7.89062 805.617 7.89062C805.305 7.89062 805.026 7.95833 804.781 8.09375C804.542 8.22396 804.341 8.41406 804.18 8.66406C804.018 8.91406 803.893 9.21615 803.805 9.57031C803.721 9.91927 803.68 10.3125 803.68 10.75V11.0625C803.68 11.4323 803.729 11.776 803.828 12.0938C803.932 12.4062 804.083 12.6797 804.281 12.9141C804.479 13.1484 804.719 13.3333 805 13.4688C805.281 13.599 805.602 13.6641 805.961 13.6641C806.414 13.6641 806.818 13.5729 807.172 13.3906C807.526 13.2083 807.833 12.9505 808.094 12.6172L809.086 13.5781C808.904 13.8438 808.667 14.099 808.375 14.3438C808.083 14.5833 807.727 14.7786 807.305 14.9297C806.888 15.0807 806.404 15.1562 805.852 15.1562ZM816.469 13.3047V9.27344C816.469 8.97135 816.414 8.71094 816.305 8.49219C816.195 8.27344 816.029 8.10417 815.805 7.98438C815.586 7.86458 815.31 7.80469 814.977 7.80469C814.669 7.80469 814.404 7.85677 814.18 7.96094C813.956 8.0651 813.781 8.20573 813.656 8.38281C813.531 8.5599 813.469 8.76042 813.469 8.98438H811.594C811.594 8.65104 811.674 8.32812 811.836 8.01562C811.997 7.70312 812.232 7.42448 812.539 7.17969C812.846 6.9349 813.214 6.74219 813.641 6.60156C814.068 6.46094 814.547 6.39062 815.078 6.39062C815.714 6.39062 816.276 6.4974 816.766 6.71094C817.26 6.92448 817.648 7.2474 817.93 7.67969C818.216 8.10677 818.359 8.64323 818.359 9.28906V13.0469C818.359 13.4323 818.385 13.7786 818.438 14.0859C818.495 14.388 818.576 14.651 818.68 14.875V15H816.75C816.661 14.7969 816.591 14.5391 816.539 14.2266C816.492 13.9089 816.469 13.6016 816.469 13.3047ZM816.742 9.85938L816.758 11.0234H815.406C815.057 11.0234 814.75 11.0573 814.484 11.125C814.219 11.1875 813.997 11.2812 813.82 11.4062C813.643 11.5312 813.51 11.6823 813.422 11.8594C813.333 12.0365 813.289 12.237 813.289 12.4609C813.289 12.6849 813.341 12.8906 813.445 13.0781C813.549 13.2604 813.701 13.4036 813.898 13.5078C814.102 13.612 814.346 13.6641 814.633 13.6641C815.018 13.6641 815.354 13.5859 815.641 13.4297C815.932 13.2682 816.161 13.0729 816.328 12.8438C816.495 12.6094 816.583 12.388 816.594 12.1797L817.203 13.0156C817.141 13.2292 817.034 13.4583 816.883 13.7031C816.732 13.9479 816.534 14.1823 816.289 14.4062C816.049 14.625 815.76 14.8047 815.422 14.9453C815.089 15.0859 814.703 15.1562 814.266 15.1562C813.714 15.1562 813.221 15.0469 812.789 14.8281C812.357 14.6042 812.018 14.3047 811.773 13.9297C811.529 13.5495 811.406 13.1198 811.406 12.6406C811.406 12.1927 811.49 11.7969 811.656 11.4531C811.828 11.1042 812.078 10.8125 812.406 10.5781C812.74 10.3438 813.146 10.1667 813.625 10.0469C814.104 9.92188 814.651 9.85938 815.266 9.85938H816.742ZM823.219 8.15625V15H821.336V6.54688H823.133L823.219 8.15625ZM825.805 6.49219L825.789 8.24219C825.674 8.22135 825.549 8.20573 825.414 8.19531C825.284 8.1849 825.154 8.17969 825.023 8.17969C824.701 8.17969 824.417 8.22656 824.172 8.32031C823.927 8.40885 823.721 8.53906 823.555 8.71094C823.393 8.8776 823.268 9.08073 823.18 9.32031C823.091 9.5599 823.039 9.82812 823.023 10.125L822.594 10.1562C822.594 9.625 822.646 9.13281 822.75 8.67969C822.854 8.22656 823.01 7.82812 823.219 7.48438C823.432 7.14062 823.698 6.8724 824.016 6.67969C824.339 6.48698 824.711 6.39062 825.133 6.39062C825.247 6.39062 825.37 6.40104 825.5 6.42188C825.635 6.44271 825.737 6.46615 825.805 6.49219ZM832.984 13.25V3H834.875V15H833.164L832.984 13.25ZM827.484 10.8672V10.7031C827.484 10.0625 827.56 9.47917 827.711 8.95312C827.862 8.42188 828.081 7.96615 828.367 7.58594C828.654 7.20052 829.003 6.90625 829.414 6.70312C829.826 6.49479 830.289 6.39062 830.805 6.39062C831.315 6.39062 831.763 6.48958 832.148 6.6875C832.534 6.88542 832.862 7.16927 833.133 7.53906C833.404 7.90365 833.62 8.34115 833.781 8.85156C833.943 9.35677 834.057 9.91927 834.125 10.5391V11.0625C834.057 11.6667 833.943 12.2188 833.781 12.7188C833.62 13.2188 833.404 13.651 833.133 14.0156C832.862 14.3802 832.531 14.6615 832.141 14.8594C831.755 15.0573 831.305 15.1562 830.789 15.1562C830.279 15.1562 829.818 15.0495 829.406 14.8359C829 14.6224 828.654 14.3229 828.367 13.9375C828.081 13.5521 827.862 13.099 827.711 12.5781C827.56 12.0521 827.484 11.4818 827.484 10.8672ZM829.367 10.7031V10.8672C829.367 11.2526 829.401 11.612 829.469 11.9453C829.542 12.2786 829.654 12.5729 829.805 12.8281C829.956 13.0781 830.151 13.276 830.391 13.4219C830.635 13.5625 830.927 13.6328 831.266 13.6328C831.693 13.6328 832.044 13.5391 832.32 13.3516C832.596 13.1641 832.812 12.9115 832.969 12.5938C833.13 12.2708 833.24 11.9115 833.297 11.5156V10.1016C833.266 9.79427 833.201 9.50781 833.102 9.24219C833.008 8.97656 832.88 8.74479 832.719 8.54688C832.557 8.34375 832.357 8.1875 832.117 8.07812C831.883 7.96354 831.604 7.90625 831.281 7.90625C830.938 7.90625 830.646 7.97917 830.406 8.125C830.167 8.27083 829.969 8.47135 829.812 8.72656C829.661 8.98177 829.549 9.27865 829.477 9.61719C829.404 9.95573 829.367 10.3177 829.367 10.7031ZM837.922 14.0625C837.922 13.7708 838.021 13.526 838.219 13.3281C838.417 13.125 838.685 13.0234 839.023 13.0234C839.367 13.0234 839.635 13.125 839.828 13.3281C840.026 13.526 840.125 13.7708 840.125 14.0625C840.125 14.3542 840.026 14.599 839.828 14.7969C839.635 14.9948 839.367 15.0938 839.023 15.0938C838.685 15.0938 838.417 14.9948 838.219 14.7969C838.021 14.599 837.922 14.3542 837.922 14.0625Z" fill="#9B9B9B"/>
</svg>
