<svg width="28" height="193" viewBox="0 0 28 193" fill="none" xmlns="http://www.w3.org/2000/svg">
<path d="M19.7617 152.289L22 152.289L22 159.684L19.7617 159.684L19.7617 152.289ZM8.34767 158.793L22 158.793L22 161.617L8.34767 161.617L8.34767 158.793ZM14.8516 137.766L15.5078 137.766C16.5469 137.766 17.4766 137.914 18.2969 138.211C19.1172 138.508 19.8203 138.93 20.4063 139.477C20.9844 140.016 21.4258 140.664 21.7305 141.422C22.0352 142.18 22.1875 143.016 22.1875 143.93C22.1875 144.844 22.0352 145.68 21.7305 146.437C21.4258 147.195 20.9844 147.852 20.4063 148.406C19.8203 148.961 19.1172 149.391 18.2969 149.695C17.4766 149.992 16.5469 150.141 15.5078 150.141L14.8516 150.141C13.8125 150.141 12.8828 149.992 12.0625 149.695C11.2422 149.391 10.5391 148.965 9.95313 148.418C9.3672 147.871 8.92188 147.219 8.6172 146.461C8.31251 145.703 8.16016 144.867 8.16016 143.953C8.16016 143.031 8.31251 142.195 8.6172 141.445C8.92188 140.687 9.3672 140.035 9.95313 139.488C10.5391 138.934 11.2422 138.508 12.0625 138.211C12.8828 137.914 13.8125 137.766 14.8516 137.766ZM15.5078 140.59L14.8281 140.59C14.1172 140.59 13.4883 140.664 12.9414 140.812C12.3945 140.961 11.9336 141.184 11.5586 141.48C11.1836 141.77 10.8984 142.121 10.7031 142.535C10.5078 142.949 10.4102 143.422 10.4102 143.953C10.4102 144.477 10.5078 144.949 10.7031 145.371C10.8984 145.785 11.1836 146.137 11.5586 146.426C11.9336 146.707 12.3945 146.926 12.9414 147.082C13.4883 147.23 14.1172 147.305 14.8281 147.305L15.5078 147.305C16.2109 147.305 16.8399 147.23 17.3945 147.082C17.9414 146.926 18.4063 146.703 18.7891 146.414C19.1641 146.117 19.4531 145.762 19.6563 145.348C19.8516 144.926 19.9492 144.453 19.9492 143.93C19.9492 143.398 19.8516 142.93 19.6563 142.523C19.4531 142.109 19.1641 141.758 18.7891 141.469C18.4063 141.18 17.9414 140.961 17.3945 140.812C16.8399 140.664 16.2109 140.59 15.5078 140.59ZM8.34766 126.289L8.34766 123.453L17.3477 123.453C18.3945 123.453 19.2813 123.695 20.0078 124.18C20.7266 124.664 21.2695 125.324 21.6367 126.16C22.0039 126.996 22.1875 127.949 22.1875 129.02C22.1875 130.105 22.0039 131.07 21.6367 131.914C21.2695 132.75 20.7266 133.406 20.0078 133.883C19.2813 134.359 18.3945 134.598 17.3477 134.598L8.34766 134.598L8.34766 131.785L17.3477 131.785C17.9492 131.785 18.4453 131.676 18.8359 131.457C19.2188 131.23 19.5 130.91 19.6797 130.496C19.8594 130.082 19.9492 129.59 19.9492 129.02C19.9492 128.449 19.8594 127.961 19.6797 127.555C19.5 127.148 19.2188 126.836 18.8359 126.617C18.4453 126.398 17.9492 126.289 17.3477 126.289L8.34766 126.289ZM22 115.434L22 118.621L19.7617 118.598L19.7617 115.434C19.7617 114.535 19.5977 113.801 19.2695 113.23C18.9336 112.66 18.4492 112.242 17.8164 111.977C17.1836 111.703 16.4141 111.566 15.5078 111.566L14.8281 111.566C14.1484 111.566 13.5469 111.645 13.0234 111.801C12.4922 111.949 12.0469 112.18 11.6875 112.492C11.3281 112.805 11.0586 113.203 10.8789 113.687C10.6914 114.164 10.5977 114.73 10.5977 115.387L10.5977 118.68L8.34766 118.68L8.34766 115.387C8.34766 114.41 8.50391 113.516 8.81641 112.703C9.12891 111.883 9.57423 111.18 10.1524 110.594C10.7227 110 11.4063 109.543 12.2031 109.223C13 108.895 13.8828 108.73 14.8516 108.73L15.5078 108.73C16.7969 108.73 17.9297 109.016 18.9063 109.586C19.8828 110.148 20.6445 110.934 21.1914 111.941C21.7305 112.941 22 114.105 22 115.434ZM8.34766 117.027L22 117.027L22 119.852L8.34766 119.852L8.34766 117.027ZM19.7617 95.6719L22 95.6719L22 103.488L19.7617 103.488L19.7617 95.6719ZM8.34766 102.598L22 102.598L22 105.422L8.34766 105.422L8.34766 102.598ZM13.8203 96.6797L16.0586 96.6797L16.0586 103.488L13.8203 103.488L13.8203 96.6797ZM8.34766 95.6953L10.5977 95.6953L10.5977 103.488L8.34766 103.488L8.34766 95.6953ZM8.34766 92.8086L8.34766 87.4297C8.34766 86.5937 8.43751 85.8437 8.61719 85.1797C8.79688 84.5156 9.06251 83.9531 9.41407 83.4922C9.75782 83.0234 10.1875 82.668 10.7031 82.4258C11.2109 82.1758 11.8008 82.0508 12.4727 82.0508C13.2148 82.0508 13.8516 82.1836 14.3828 82.4492C14.9063 82.7148 15.3398 83.0898 15.6836 83.5742C16.0273 84.0586 16.3047 84.6289 16.5156 85.2852L17.0078 86.1875L17.0078 90.9336L14.7578 90.957L14.7578 87.3945C14.7578 86.832 14.6719 86.3672 14.5 86C14.3281 85.6328 14.0898 85.3555 13.7852 85.168C13.4727 84.9805 13.1133 84.8867 12.707 84.8867C12.2773 84.8867 11.9063 84.9805 11.5938 85.168C11.2734 85.3477 11.0273 85.6289 10.8555 86.0117C10.6836 86.3867 10.5977 86.8594 10.5977 87.4297L10.5977 89.9727L22 89.9727L22 92.8086L8.34766 92.8086ZM22 84.5352L15.9531 87.9102L15.9297 84.9219L21.8711 81.4883L22 81.4883L22 84.5352ZM18.4258 63.9609C18.168 63.9609 17.9375 64.0078 17.7344 64.1016C17.5313 64.1875 17.3477 64.3398 17.1836 64.5586C17.0117 64.7695 16.8516 65.0625 16.7031 65.4375C16.5547 65.8047 16.4141 66.2695 16.2813 66.832C16.0859 67.6445 15.8672 68.3633 15.625 68.9883C15.375 69.6055 15.0859 70.125 14.7578 70.5469C14.4297 70.9687 14.043 71.2891 13.5977 71.5078C13.1523 71.7187 12.6328 71.8242 12.0391 71.8242C11.4688 71.8242 10.9492 71.6992 10.4805 71.4492C10.0039 71.1992 9.59376 70.8437 9.25001 70.3828C8.89844 69.9219 8.62891 69.375 8.44141 68.7422C8.25391 68.1094 8.16016 67.4141 8.16016 66.6562C8.16016 65.5547 8.33985 64.5977 8.69922 63.7852C9.0586 62.9727 9.55469 62.3437 10.1875 61.8984C10.8125 61.4453 11.5391 61.2187 12.3672 61.2187L12.3672 64.043C11.9766 64.043 11.625 64.1445 11.3125 64.3477C11 64.543 10.75 64.832 10.5625 65.2148C10.375 65.5977 10.2813 66.0781 10.2813 66.6562C10.2813 67.2109 10.3633 67.668 10.5273 68.0273C10.6836 68.3867 10.8906 68.6562 11.1484 68.8359C11.3984 69.0078 11.6719 69.0937 11.9688 69.0937C12.2031 69.0937 12.4141 69.043 12.6016 68.9414C12.7891 68.832 12.9609 68.6602 13.1172 68.4258C13.2734 68.1914 13.4219 67.8867 13.5625 67.5117C13.7031 67.1367 13.8398 66.6797 13.9727 66.1406C14.1602 65.3359 14.3828 64.625 14.6406 64.0078C14.8984 63.3906 15.2031 62.875 15.5547 62.4609C15.8984 62.0469 16.3047 61.7383 16.7734 61.5352C17.2344 61.3242 17.7617 61.2187 18.3555 61.2187C18.957 61.2187 19.4961 61.3437 19.9727 61.5937C20.4414 61.8437 20.8398 62.2031 21.168 62.6719C21.4961 63.1328 21.75 63.6875 21.9297 64.3359C22.1016 64.9844 22.1875 65.707 22.1875 66.5039C22.1875 67.207 22.1016 67.9062 21.9297 68.6016C21.7578 69.2891 21.4922 69.9102 21.1328 70.4648C20.7734 71.0195 20.3164 71.4648 19.7617 71.8008C19.1992 72.1289 18.5391 72.293 17.7813 72.293L17.7813 69.457C18.1875 69.457 18.5391 69.3867 18.8359 69.2461C19.125 69.0977 19.3633 68.8906 19.5508 68.625C19.7305 68.3516 19.8633 68.0273 19.9492 67.6523C20.0352 67.2773 20.0781 66.8633 20.0781 66.4102C20.0781 65.8398 20.0039 65.375 19.8555 65.0156C19.6992 64.6484 19.4961 64.3828 19.2461 64.2187C18.9961 64.0469 18.7227 63.9609 18.4258 63.9609ZM14.8516 46.0859L15.5078 46.0859C16.5469 46.0859 17.4766 46.2344 18.2969 46.5312C19.1172 46.8281 19.8203 47.25 20.4063 47.7969C20.9844 48.3359 21.4258 48.9844 21.7305 49.7422C22.0352 50.5 22.1875 51.3359 22.1875 52.25C22.1875 53.1641 22.0352 54 21.7305 54.7578C21.4258 55.5156 20.9844 56.1719 20.4063 56.7266C19.8203 57.2812 19.1172 57.7109 18.2969 58.0156C17.4766 58.3125 16.5469 58.4609 15.5078 58.4609L14.8516 58.4609C13.8125 58.4609 12.8828 58.3125 12.0625 58.0156C11.2422 57.7109 10.5391 57.2852 9.95313 56.7383C9.36719 56.1914 8.92188 55.5391 8.61719 54.7812C8.3125 54.0234 8.16016 53.1875 8.16016 52.2734C8.16016 51.3516 8.3125 50.5156 8.61719 49.7656C8.92188 49.0078 9.36719 48.3555 9.95313 47.8086C10.5391 47.2539 11.2422 46.8281 12.0625 46.5312C12.8828 46.2344 13.8125 46.0859 14.8516 46.0859ZM15.5078 48.9102L14.8281 48.9102C14.1172 48.9102 13.4883 48.9844 12.9414 49.1328C12.3945 49.2812 11.9336 49.5039 11.5586 49.8008C11.1836 50.0898 10.8984 50.4414 10.7031 50.8555C10.5078 51.2695 10.4102 51.7422 10.4102 52.2734C10.4102 52.7969 10.5078 53.2695 10.7031 53.6914C10.8984 54.1055 11.1836 54.457 11.5586 54.7461C11.9336 55.0273 12.3945 55.2461 12.9414 55.4023C13.4883 55.5508 14.1172 55.625 14.8281 55.625L15.5078 55.625C16.2109 55.625 16.8398 55.5508 17.3945 55.4023C17.9414 55.2461 18.4063 55.0234 18.7891 54.7344C19.1641 54.4375 19.4531 54.082 19.6563 53.668C19.8516 53.2461 19.9492 52.7734 19.9492 52.25C19.9492 51.7187 19.8516 51.25 19.6563 50.8437C19.4531 50.4297 19.1641 50.0781 18.7891 49.7891C18.4063 49.5 17.9414 49.2812 17.3945 49.1328C16.8398 48.9844 16.2109 48.9102 15.5078 48.9102ZM8.34766 34.6094L8.34766 31.7734L17.3477 31.7734C18.3945 31.7734 19.2813 32.0156 20.0078 32.5C20.7266 32.9844 21.2695 33.6445 21.6367 34.4805C22.0039 35.3164 22.1875 36.2695 22.1875 37.3398C22.1875 38.4258 22.0039 39.3906 21.6367 40.2344C21.2695 41.0703 20.7266 41.7266 20.0078 42.2031C19.2813 42.6797 18.3945 42.918 17.3477 42.918L8.34766 42.918L8.34766 40.1055L17.3477 40.1055C17.9492 40.1055 18.4453 39.9961 18.8359 39.7773C19.2188 39.5508 19.5 39.2305 19.6797 38.8164C19.8594 38.4023 19.9492 37.9102 19.9492 37.3398C19.9492 36.7695 19.8594 36.2812 19.6797 35.875C19.5 35.4687 19.2188 35.1562 18.8359 34.9375C18.4453 34.7187 17.9492 34.6094 17.3477 34.6094L8.34766 34.6094ZM8.34766 16.3477L22 16.3477L22 19.1836L12.5898 25.3477L22 25.3477L22 28.1719L8.34766 28.1719L8.34766 25.3477L17.7578 19.1836L8.34766 19.1836L8.34766 16.3477ZM22 8.17578L22 11.3633L19.7617 11.3398L19.7617 8.17578C19.7617 7.27734 19.5977 6.54297 19.2695 5.97266C18.9336 5.40234 18.4492 4.98437 17.8164 4.71875C17.1836 4.44531 16.4141 4.30859 15.5078 4.30859L14.8281 4.30859C14.1484 4.30859 13.5469 4.38672 13.0234 4.54297C12.4922 4.69141 12.0469 4.92187 11.6875 5.23437C11.3281 5.54687 11.0586 5.94531 10.8789 6.42969C10.6914 6.90625 10.5977 7.47266 10.5977 8.12891L10.5977 11.4219L8.34766 11.4219L8.34766 8.12891C8.34766 7.15234 8.50391 6.25781 8.81641 5.44531C9.12891 4.625 9.57422 3.92187 10.1523 3.33594C10.7227 2.74219 11.4063 2.28516 12.2031 1.96484C13 1.63672 13.8828 1.47266 14.8516 1.47266L15.5078 1.47266C16.7969 1.47266 17.9297 1.75781 18.9063 2.32812C19.8828 2.89062 20.6445 3.67578 21.1914 4.68359C21.7305 5.68359 22 6.84766 22 8.17578ZM8.34766 9.76953L22 9.76953L22 12.5937L8.34766 12.5937L8.34766 9.76953Z" fill="#9B9B9B"/>
<path d="M13.2929 192.707C13.6834 193.098 14.3166 193.098 14.7071 192.707L21.0711 186.343C21.4616 185.953 21.4616 185.319 21.0711 184.929C20.6805 184.538 20.0474 184.538 19.6569 184.929L14 190.586L8.34315 184.929C7.95263 184.538 7.31946 184.538 6.92894 184.929C6.53841 185.319 6.53841 185.953 6.92894 186.343L13.2929 192.707ZM13 171L13 192H15L15 171H13Z" fill="#9B9B9B"/>
</svg>
